<svg width="325" height="240" viewBox="0 0 325 240" fill="none" xmlns="http://www.w3.org/2000/svg">
<path d="M325 210.908H0V211.069H325V210.908Z" fill="#EBEBEB"/>
<path d="M55.6266 217.041H34.0986V217.202H55.6266V217.041Z" fill="#EBEBEB"/>
<path d="M141.699 215.295H111.24V215.456H141.699V215.295Z" fill="#EBEBEB"/>
<path d="M98.852 223.026H77.5645V223.187H98.852V223.026Z" fill="#EBEBEB"/>
<path d="M292.435 221.943H287.307V222.104H292.435V221.943Z" fill="#EBEBEB"/>
<path d="M281.522 221.943H254.456V222.104H281.522V221.943Z" fill="#EBEBEB"/>
<path d="M208.214 219.225H180.186V219.386H208.214V219.225Z" fill="#EBEBEB"/>
<path d="M154.049 182.177H28.5409C27.5577 182.176 26.6153 181.787 25.9207 181.098C25.2261 180.408 24.8359 179.473 24.8359 178.499V3.64612C24.8445 2.67728 25.2384 1.7509 25.9321 1.06821C26.6258 0.385522 27.5633 0.00165969 28.5409 0H154.049C155.034 0 155.978 0.387538 156.674 1.07736C157.37 1.76718 157.761 2.70278 157.761 3.67833V178.499C157.761 179.475 157.37 180.41 156.674 181.1C155.978 181.79 155.034 182.177 154.049 182.177ZM28.5409 0.128839C27.6008 0.130545 26.6998 0.501867 26.0356 1.1613C25.3715 1.82074 24.9984 2.7144 24.9984 3.64612V178.499C24.9984 179.431 25.3715 180.324 26.0356 180.984C26.6998 181.643 27.6008 182.015 28.5409 182.016H154.049C154.99 182.015 155.892 181.644 156.557 180.984C157.222 180.325 157.597 179.431 157.598 178.499V3.64612C157.597 2.7138 157.222 1.82016 156.557 1.16091C155.892 0.501658 154.99 0.130542 154.049 0.128839H28.5409Z" fill="#EBEBEB"/>
<path d="M294.652 182.177H169.137C168.153 182.176 167.21 181.788 166.515 181.098C165.819 180.409 165.427 179.474 165.426 178.499V3.64612C165.436 2.67669 165.831 1.75032 166.526 1.06781C167.221 0.385297 168.159 0.00164159 169.137 0H294.652C295.629 0.00335269 296.565 0.387964 297.257 1.07047C297.949 1.75298 298.342 2.67839 298.351 3.64612V178.499C298.351 179.472 297.962 180.406 297.268 181.095C296.575 181.785 295.634 182.174 294.652 182.177ZM169.137 0.128839C168.197 0.130542 167.295 0.501658 166.63 1.16091C165.964 1.82016 165.59 2.7138 165.588 3.64612V178.499C165.59 179.431 165.964 180.325 166.63 180.984C167.295 181.644 168.197 182.015 169.137 182.016H294.652C295.593 182.015 296.495 181.644 297.16 180.984C297.825 180.325 298.2 179.431 298.201 178.499V3.64612C298.2 2.7138 297.825 1.82016 297.16 1.16091C296.495 0.501658 295.593 0.130542 294.652 0.128839H169.137Z" fill="#EBEBEB"/>
<path d="M249.269 63.5173L284.408 63.5173V23.4486L249.269 23.4486V63.5173Z" fill="#EBEBEB"/>
<path d="M253.097 26.006C253.133 26.0043 253.169 25.9932 253.201 25.9738C253.298 25.9158 263.12 20.1245 266.246 20.1245C269.373 20.1245 278.739 25.9222 278.837 25.9738C278.859 25.9879 278.884 25.9975 278.911 26.0019C278.937 26.0063 278.964 26.0055 278.99 25.9995C279.016 25.9935 279.04 25.9824 279.062 25.967C279.084 25.9515 279.102 25.9319 279.116 25.9093C279.143 25.8637 279.152 25.8095 279.139 25.7579C279.127 25.7064 279.096 25.6614 279.051 25.6323C278.661 25.3875 269.483 19.7251 266.246 19.7251C263.009 19.7251 253.396 25.3875 252.993 25.6323C252.969 25.6456 252.949 25.6634 252.933 25.6846C252.916 25.7059 252.905 25.7301 252.898 25.7559C252.891 25.7817 252.89 25.8086 252.894 25.8349C252.898 25.8613 252.907 25.8866 252.921 25.9093C252.94 25.9384 252.966 25.9624 252.997 25.9793C253.027 25.9961 253.062 26.0053 253.097 26.006Z" fill="#EBEBEB"/>
<path d="M245.284 63.5173L283.315 63.5173V23.4486L245.284 23.4486V63.5173Z" fill="#F5F5F5"/>
<path d="M280.13 60.3608V26.6116L248.475 26.6116V60.3608H280.13Z" fill="#191919"/>
<path d="M262.45 49.1645C262.45 48.4 262.221 47.6527 261.793 47.0171C261.364 46.3815 260.755 45.8861 260.042 45.5935C259.33 45.301 258.546 45.2244 257.789 45.3736C257.033 45.5227 256.338 45.8908 255.792 46.4314C255.247 46.9719 254.875 47.6606 254.725 48.4104C254.574 49.1602 254.652 49.9373 254.947 50.6436C255.242 51.3499 255.742 51.9535 256.383 52.3782C257.025 52.8029 257.779 53.0296 258.55 53.0296C259.584 53.0296 260.576 52.6224 261.308 51.8975C262.039 51.1727 262.45 50.1896 262.45 49.1645Z" fill="#F5F5F5"/>
<path d="M273.904 37.8078C273.904 37.0433 273.675 36.296 273.246 35.6604C272.818 35.0248 272.209 34.5294 271.496 34.2368C270.783 33.9443 269.999 33.8678 269.243 34.0169C268.486 34.166 267.791 34.5342 267.246 35.0747C266.7 35.6153 266.329 36.304 266.178 37.0537C266.028 37.8035 266.105 38.5806 266.4 39.2869C266.696 39.9932 267.195 40.5968 267.837 41.0215C268.478 41.4462 269.232 41.6729 270.004 41.6729C271.038 41.6729 272.03 41.2657 272.761 40.5409C273.493 39.816 273.904 38.8329 273.904 37.8078Z" fill="#F5F5F5"/>
<path d="M198.92 96.3645H234.059V56.2958L198.92 56.2958V96.3645Z" fill="#EBEBEB"/>
<path d="M202.742 58.8537C202.776 58.8625 202.812 58.8625 202.846 58.8537C202.944 58.7958 212.765 53.0045 215.892 53.0045C219.018 53.0045 228.385 58.8022 228.482 58.8473C228.505 58.8614 228.53 58.871 228.556 58.8754C228.582 58.8798 228.609 58.879 228.635 58.873C228.661 58.867 228.686 58.856 228.708 58.8405C228.729 58.825 228.748 58.8054 228.762 58.7829C228.789 58.7373 228.797 58.6831 228.785 58.6315C228.773 58.5799 228.741 58.5349 228.697 58.5059C228.307 58.2675 219.129 52.5986 215.892 52.5986C212.655 52.5986 203.041 58.2611 202.638 58.5059C202.615 58.5192 202.594 58.537 202.578 58.5582C202.562 58.5794 202.55 58.6036 202.543 58.6294C202.537 58.6553 202.535 58.6821 202.539 58.7085C202.543 58.7348 202.553 58.7601 202.567 58.7829C202.588 58.808 202.615 58.8277 202.645 58.84C202.676 58.8524 202.709 58.8571 202.742 58.8537Z" fill="#EBEBEB"/>
<path d="M194.929 96.3645H232.961V56.2958L194.929 56.2958V96.3645Z" fill="#F5F5F5"/>
<path d="M229.768 93.2082V59.459H198.113V93.2082H229.768Z" fill="#191919"/>
<path d="M210.939 83.1523C210.939 82.3878 210.71 81.6405 210.281 81.0049C209.853 80.3693 209.244 79.8739 208.531 79.5813C207.819 79.2888 207.034 79.2122 206.278 79.3614C205.521 79.5105 204.826 79.8786 204.281 80.4192C203.736 80.9597 203.364 81.6484 203.214 82.3982C203.063 83.148 203.14 83.9251 203.436 84.6314C203.731 85.3377 204.231 85.9413 204.872 86.366C205.513 86.7907 206.267 87.0174 207.039 87.0174C208.073 87.0174 209.065 86.6102 209.796 85.8853C210.528 85.1605 210.939 84.1774 210.939 83.1523Z" fill="#F5F5F5"/>
<path d="M224.698 69.5146C224.698 68.7501 224.47 68.0028 224.041 67.3672C223.613 66.7316 223.004 66.2362 222.291 65.9436C221.578 65.6511 220.794 65.5745 220.038 65.7237C219.281 65.8728 218.586 66.2409 218.041 66.7815C217.495 67.322 217.124 68.0107 216.973 68.7605C216.823 69.5103 216.9 70.2874 217.195 70.9937C217.49 71.7 217.99 72.3036 218.632 72.7283C219.273 73.153 220.027 73.3797 220.798 73.3797C221.833 73.3797 222.825 72.9725 223.556 72.2476C224.288 71.5228 224.698 70.5397 224.698 69.5146Z" fill="#F5F5F5"/>
<path d="M216.95 83.1523C216.95 82.3878 217.179 81.6405 217.607 81.0049C218.036 80.3693 218.645 79.8739 219.358 79.5813C220.07 79.2888 220.855 79.2122 221.611 79.3614C222.368 79.5105 223.062 79.8786 223.608 80.4192C224.153 80.9597 224.525 81.6484 224.675 82.3982C224.826 83.148 224.749 83.9251 224.453 84.6314C224.158 85.3377 223.658 85.9413 223.017 86.366C222.376 86.7907 221.622 87.0174 220.85 87.0174C219.816 87.0174 218.824 86.6102 218.092 85.8853C217.361 85.1605 216.95 84.1774 216.95 83.1523Z" fill="#F5F5F5"/>
<path d="M203.184 69.5146C203.184 68.7501 203.412 68.0028 203.841 67.3672C204.269 66.7316 204.878 66.2362 205.591 65.9436C206.304 65.6511 207.088 65.5745 207.844 65.7237C208.601 65.8728 209.296 66.2409 209.841 66.7815C210.387 67.322 210.758 68.0107 210.909 68.7605C211.059 69.5103 210.982 70.2874 210.687 70.9937C210.392 71.7 209.892 72.3036 209.25 72.7283C208.609 73.153 207.855 73.3797 207.084 73.3797C206.049 73.3797 205.057 72.9725 204.326 72.2476C203.594 71.5228 203.184 70.5397 203.184 69.5146Z" fill="#F5F5F5"/>
<path d="M50.6795 122.409L177.312 122.409V15.6409L50.6795 15.6409L50.6795 122.409Z" fill="#E6E6E6"/>
<path d="M48.8612 122.409L175.494 122.409V15.6409L48.8612 15.6409L48.8612 122.409Z" fill="#F5F5F5"/>
<path d="M172.23 118.776V19.2742L52.13 19.2742V118.776L172.23 118.776Z" fill="#191919"/>
<path d="M53.502 118.776L53.502 19.2742H52.1239L52.1239 118.776H53.502Z" fill="#E6E6E6"/>
<path d="M50.2116 107.76L174.141 107.76V102.877L50.2116 102.877V107.76Z" fill="#F5F5F5"/>
<path d="M45.3058 9.62431H180.87C180.936 9.62346 181.002 9.63566 181.063 9.6602C181.125 9.68475 181.181 9.72115 181.228 9.7673C181.275 9.81344 181.313 9.86841 181.338 9.92901C181.364 9.98962 181.377 10.0546 181.377 10.1203C181.377 10.186 181.364 10.2511 181.338 10.3117C181.313 10.3723 181.275 10.4272 181.228 10.4734C181.181 10.5195 181.125 10.5559 181.063 10.5805C181.002 10.605 180.936 10.6172 180.87 10.6164H45.3058C45.2396 10.6172 45.1738 10.605 45.1123 10.5805C45.0508 10.5559 44.9949 10.5195 44.9477 10.4734C44.9005 10.4272 44.8631 10.3723 44.8375 10.3117C44.812 10.2511 44.7988 10.186 44.7988 10.1203C44.7988 10.0546 44.812 9.98962 44.8375 9.92901C44.8631 9.86841 44.9005 9.81344 44.9477 9.7673C44.9949 9.72115 45.0508 9.68475 45.1123 9.6602C45.1738 9.63566 45.2396 9.62346 45.3058 9.62431Z" fill="#E6E6E6"/>
<path d="M42.2891 10.12C42.2891 10.6133 42.4368 11.0956 42.7135 11.5057C42.9902 11.9158 43.3834 12.2353 43.8434 12.4238C44.3035 12.6123 44.8096 12.6613 45.2977 12.5646C45.7859 12.4679 46.2341 12.2298 46.5856 11.8805C46.9371 11.5312 47.1762 11.0864 47.2725 10.6024C47.3689 10.1184 47.3181 9.6169 47.1267 9.16148C46.9353 8.70605 46.6119 8.31714 46.1974 8.04398C45.7829 7.77082 45.2959 7.62569 44.7981 7.62696C44.468 7.62696 44.1412 7.69149 43.8364 7.81686C43.5316 7.94222 43.2547 8.12596 43.0216 8.35754C42.7886 8.58912 42.6039 8.86401 42.4782 9.16644C42.3525 9.46887 42.2882 9.7929 42.2891 10.12Z" fill="#E6E6E6"/>
<path d="M176.631 12.8839C176.719 12.8883 176.808 12.8748 176.89 12.8444C176.973 12.814 177.048 12.7672 177.112 12.707C177.176 12.6467 177.227 12.5742 177.262 12.4939C177.296 12.4136 177.314 12.3271 177.314 12.2397V10.7903C177.314 10.7029 177.296 10.6164 177.262 10.5361C177.227 10.4557 177.176 10.3832 177.112 10.323C177.048 10.2627 176.973 10.216 176.89 10.1855C176.808 10.1551 176.719 10.1417 176.631 10.1461C176.459 10.1461 176.294 10.2139 176.172 10.3347C176.05 10.4556 175.981 10.6194 175.981 10.7903V12.2397C175.981 12.4105 176.05 12.5744 176.172 12.6952C176.294 12.816 176.459 12.8839 176.631 12.8839Z" fill="#E6E6E6"/>
<path d="M52.8844 12.8838C53.0568 12.8838 53.2221 12.8159 53.344 12.6951C53.4659 12.5743 53.5344 12.4105 53.5344 12.2396V10.7902C53.5344 10.6193 53.4659 10.4555 53.344 10.3347C53.2221 10.2139 53.0568 10.146 52.8844 10.146C52.712 10.146 52.5467 10.2139 52.4248 10.3347C52.3029 10.4555 52.2344 10.6193 52.2344 10.7902V12.2396C52.2344 12.4105 52.3029 12.5743 52.4248 12.6951C52.5467 12.8159 52.712 12.8838 52.8844 12.8838Z" fill="#E6E6E6"/>
<path opacity="0.4" d="M45.4601 92.0037L174.141 92.0037V10.1205L45.4601 10.1205V92.0037Z" fill="#E0E0E0"/>
<path d="M166.037 10.12C166.037 10.613 166.185 11.095 166.461 11.505C166.737 11.915 167.13 12.2345 167.59 12.4232C168.05 12.6119 168.555 12.6613 169.043 12.5651C169.531 12.4689 169.98 12.2315 170.331 11.8828C170.683 11.5342 170.923 11.0899 171.02 10.6063C171.117 10.1227 171.067 9.62148 170.877 9.16594C170.686 8.7104 170.364 8.32104 169.95 8.0471C169.536 7.77317 169.05 7.62695 168.553 7.62695C167.885 7.62695 167.246 7.88961 166.774 8.35714C166.302 8.82468 166.037 9.45879 166.037 10.12Z" fill="#E6E6E6"/>
<path d="M243.262 140.092H242.794C242.814 140.005 242.827 139.917 242.833 139.828C242.833 137.896 240.448 136.317 237.497 136.311C237.68 135.919 237.778 135.493 237.783 135.061C237.783 133.129 235.904 131.537 233.577 131.537C232.943 131.54 232.316 131.667 231.731 131.911C231.753 131.787 231.769 131.663 231.777 131.537C231.777 129.025 229.346 126.983 226.343 126.983C223.821 126.983 221.728 128.426 221.104 130.371C220.313 129.555 219.36 128.91 218.305 128.475C217.25 128.041 216.116 127.826 214.974 127.846C213.661 127.812 212.359 128.095 211.181 128.672C210.003 129.249 208.985 130.102 208.214 131.157C207.791 130.743 207.29 130.417 206.739 130.195C206.188 129.974 205.598 129.863 205.003 129.869C202.683 129.869 200.804 131.441 200.804 133.386C200.806 133.819 200.903 134.245 201.09 134.636C198.139 134.636 195.747 136.214 195.747 138.16C195.757 138.34 195.785 138.52 195.832 138.694H195.318C191.418 138.694 188.272 139.983 188.272 141.638C188.272 143.294 191.425 144.576 195.318 144.576C196.755 144.592 198.186 144.392 199.563 143.983C201.162 146.231 206.147 147.848 212.049 147.848C218.861 147.848 224.451 145.664 225.049 142.882C227.007 143.563 229.072 143.894 231.146 143.861C232.864 143.874 234.576 143.657 236.236 143.217H236.268C236.541 144.737 239.577 145.935 243.288 145.935C247.188 145.935 250.341 144.614 250.341 142.991C250.341 141.368 247.156 140.092 243.262 140.092Z" fill="#E6E6E6"/>
<path d="M253.331 141.87C254.767 141.87 256.144 142.436 257.16 143.442C258.175 144.448 258.746 145.813 258.746 147.236C258.746 153.176 243.887 158.04 225.726 158.04H209.332C191.171 158.04 176.312 153.176 176.312 147.236C176.313 145.813 176.883 144.448 177.898 143.442C178.914 142.436 180.291 141.87 181.727 141.87H253.331Z" fill="#F0F0F0"/>
<path d="M102.641 210.908H131.371V158.039H102.641V210.908Z" fill="#E6E6E6"/>
<path d="M108.095 210.908H102.635V205.967H113.815L108.095 210.908Z" fill="#F0F0F0"/>
<path d="M258.492 210.908H287.222V158.039H258.492V210.908Z" fill="#E6E6E6"/>
<path d="M102.642 208.724L263.257 208.724V158.046L102.642 158.046V208.724Z" fill="#F0F0F0"/>
<path d="M257.796 210.908H263.25V205.967H252.076L257.796 210.908Z" fill="#F0F0F0"/>
<path d="M258.7 162.633V181.959H107.25V162.633H258.7ZM259.045 162.292H106.873V182.307H259.019V162.292H259.045Z" fill="#191919"/>
<path d="M258.7 184.786V204.112H107.25V184.786H258.7ZM259.045 184.445H106.873V204.473H259.019V184.445H259.045Z" fill="#191919"/>
<path d="M168.936 164.269H196.951C197.216 164.269 197.479 164.217 197.724 164.116C197.968 164.015 198.191 163.868 198.378 163.682C198.565 163.496 198.714 163.275 198.814 163.032C198.915 162.789 198.967 162.528 198.966 162.265H166.921C166.92 162.528 166.972 162.789 167.072 163.032C167.173 163.275 167.322 163.496 167.509 163.682C167.696 163.868 167.918 164.015 168.163 164.116C168.408 164.217 168.671 164.269 168.936 164.269Z" fill="#191919"/>
<path d="M168.936 186.442H196.951C197.216 186.442 197.478 186.39 197.722 186.29C197.966 186.19 198.189 186.043 198.376 185.857C198.563 185.672 198.711 185.452 198.813 185.209C198.914 184.967 198.966 184.707 198.966 184.445H166.921C166.921 184.975 167.133 185.483 167.511 185.857C167.889 186.232 168.401 186.442 168.936 186.442Z" fill="#191919"/>
<path d="M162.5 240C232.104 240 288.529 236.735 288.529 232.708C288.529 228.68 232.104 225.416 162.5 225.416C92.8966 225.416 36.4717 228.68 36.4717 232.708C36.4717 236.735 92.8966 240 162.5 240Z" fill="#F5F5F5"/>
<path d="M85.7406 84.8077L85.1621 84.5114C90.2117 74.7405 96.9929 65.9491 105.182 58.5569L105.624 59.0336C97.491 66.3743 90.756 75.1046 85.7406 84.8077Z" fill="#407BFF"/>
<path d="M77.6041 107.805L76.9541 107.676C77.895 103.121 79.1857 98.6439 80.8151 94.2837L81.4261 94.5092C79.8098 98.8375 78.5321 103.283 77.6041 107.805Z" fill="#407BFF"/>
<path opacity="0.9" d="M219.038 177.406C247.744 148.956 247.745 102.829 219.038 74.3782C190.331 45.9279 143.788 45.9279 115.081 74.3782C86.3741 102.829 86.374 148.956 115.081 177.406C143.788 205.856 190.331 205.856 219.038 177.406Z" fill="#191919"/>
<g opacity="0.4">
<path d="M115.043 166.639H97.7598L101.101 158.51H111.702L115.043 166.639Z" fill="#407BFF"/>
<path opacity="0.2" d="M115.043 166.639H97.7598L101.101 158.51H111.702L115.043 166.639Z" fill="#191919"/>
<path d="M141.311 166.639H115.044L111.703 158.51H137.97L141.311 166.639Z" fill="#407BFF"/>
<path opacity="0.3" d="M141.311 166.639H115.044L111.703 158.51H137.97L141.311 166.639Z" fill="black"/>
<path d="M137.104 166.639H119.814L123.155 158.51H133.763L137.104 166.639Z" fill="#407BFF"/>
<path opacity="0.2" d="M137.104 166.639H119.814L123.155 158.51H133.763L137.104 166.639Z" fill="#191919"/>
<path d="M163.365 166.639H137.105L133.764 158.51H160.024L163.365 166.639Z" fill="#407BFF"/>
<path opacity="0.3" d="M163.365 166.639H137.105L133.764 158.51H160.024L163.365 166.639Z" fill="black"/>
<path d="M159.159 166.639H141.876L145.217 158.51H155.818L159.159 166.639Z" fill="#407BFF"/>
<path opacity="0.2" d="M159.159 166.639H141.876L145.217 158.51H155.818L159.159 166.639Z" fill="#191919"/>
<path d="M185.419 166.639H159.159L155.818 158.51H182.085L185.419 166.639Z" fill="#407BFF"/>
<path opacity="0.3" d="M185.419 166.639H159.159L155.818 158.51H182.085L185.419 166.639Z" fill="black"/>
<path d="M181.213 166.639H163.93L167.271 158.51H177.872L181.213 166.639Z" fill="#407BFF"/>
<path opacity="0.2" d="M181.213 166.639H163.93L167.271 158.51H177.872L181.213 166.639Z" fill="#191919"/>
<path d="M207.48 166.639H181.213L177.872 158.51H204.139L207.48 166.639Z" fill="#407BFF"/>
<path opacity="0.3" d="M207.48 166.639H181.213L177.872 158.51H204.139L207.48 166.639Z" fill="black"/>
<path d="M203.274 166.639H185.984L189.325 158.51H199.933L203.274 166.639Z" fill="#407BFF"/>
<path opacity="0.2" d="M203.274 166.639H185.984L189.325 158.51H199.933L203.274 166.639Z" fill="#191919"/>
<path d="M217.289 166.639C218.125 163.946 218.883 161.237 219.564 158.51H199.934L203.275 166.639H217.289Z" fill="#407BFF"/>
<path opacity="0.3" d="M217.289 166.639C218.125 163.946 218.883 161.237 219.564 158.51H199.934L203.275 166.639H217.289Z" fill="black"/>
<path d="M219.565 158.51H211.388L208.047 166.639H217.29C218.131 163.946 218.889 161.237 219.565 158.51Z" fill="#407BFF"/>
<path opacity="0.2" d="M219.565 158.51H211.388L208.047 166.639H217.29C218.131 163.946 218.889 161.237 219.565 158.51Z" fill="#191919"/>
<path d="M121.784 158.51H104.494L107.835 150.374H118.443L121.784 158.51Z" fill="#407BFF"/>
<path opacity="0.2" d="M121.784 158.51H104.494L107.835 150.374H118.443L121.784 158.51Z" fill="#191919"/>
<path d="M148.043 158.51H121.783L118.442 150.374H144.702L148.043 158.51Z" fill="#407BFF"/>
<path opacity="0.3" d="M148.043 158.51H121.783L118.442 150.374H144.702L148.043 158.51Z" fill="black"/>
<path d="M143.839 158.51H126.556L129.897 150.374H140.498L143.839 158.51Z" fill="#407BFF"/>
<path opacity="0.2" d="M143.839 158.51H126.556L129.897 150.374H140.498L143.839 158.51Z" fill="#191919"/>
<path d="M170.099 158.51H143.839L140.498 150.374H166.765L170.099 158.51Z" fill="#407BFF"/>
<path opacity="0.3" d="M170.099 158.51H143.839L140.498 150.374H166.765L170.099 158.51Z" fill="black"/>
<path d="M165.893 158.51H148.609L151.95 150.374H162.552L165.893 158.51Z" fill="#407BFF"/>
<path opacity="0.2" d="M165.893 158.51H148.609L151.95 150.374H162.552L165.893 158.51Z" fill="#191919"/>
<path d="M192.159 158.51H165.893L162.552 150.374H188.818L192.159 158.51Z" fill="#407BFF"/>
<path opacity="0.3" d="M192.159 158.51H165.893L162.552 150.374H188.818L192.159 158.51Z" fill="black"/>
<path d="M187.954 158.51H170.664L174.005 150.374H184.613L187.954 158.51Z" fill="#407BFF"/>
<path opacity="0.2" d="M187.954 158.51H170.664L174.005 150.374H184.613L187.954 158.51Z" fill="#191919"/>
<path d="M214.214 158.51H187.954L184.613 150.374H210.873L214.214 158.51Z" fill="#407BFF"/>
<path opacity="0.3" d="M214.214 158.51H187.954L184.613 150.374H210.873L214.214 158.51Z" fill="black"/>
<path d="M210.008 158.51H192.725L196.066 150.374H206.667L210.008 158.51Z" fill="#407BFF"/>
<path opacity="0.2" d="M210.008 158.51H192.725L196.066 150.374H206.667L210.008 158.51Z" fill="#191919"/>
<path d="M219.564 158.51C220.214 155.811 220.831 153.105 221.338 150.374H206.7L210.041 158.51H219.564Z" fill="#407BFF"/>
<path opacity="0.3" d="M219.564 158.51C220.214 155.811 220.831 153.105 221.338 150.374H206.7L210.041 158.51H219.564Z" fill="black"/>
<path d="M221.339 150.374H218.121L214.78 158.51H219.564C220.234 155.811 220.832 153.105 221.339 150.374Z" fill="#407BFF"/>
<path opacity="0.2" d="M221.339 150.374H218.121L214.78 158.51H219.564C220.234 155.811 220.832 153.105 221.339 150.374Z" fill="#191919"/>
<path d="M127.556 150.373H110.272L113.613 142.244H124.215L127.556 150.373Z" fill="#407BFF"/>
<path opacity="0.2" d="M127.556 150.373H110.272L113.613 142.244H124.215L127.556 150.373Z" fill="#191919"/>
<path d="M153.822 150.373H127.556L124.215 142.244H150.481L153.822 150.373Z" fill="#407BFF"/>
<path opacity="0.3" d="M153.822 150.373H127.556L124.215 142.244H150.481L153.822 150.373Z" fill="black"/>
<path d="M149.617 150.373H132.327L135.668 142.244H146.27L149.617 150.373Z" fill="#407BFF"/>
<path opacity="0.2" d="M149.617 150.373H132.327L135.668 142.244H146.27L149.617 150.373Z" fill="#191919"/>
<path d="M175.877 150.373H149.617L146.27 142.244H172.536L175.877 150.373Z" fill="#407BFF"/>
<path opacity="0.3" d="M175.877 150.373H149.617L146.27 142.244H172.536L175.877 150.373Z" fill="black"/>
<path d="M171.672 150.373H154.389L157.73 142.244H168.331L171.672 150.373Z" fill="#407BFF"/>
<path opacity="0.2" d="M171.672 150.373H154.389L157.73 142.244H168.331L171.672 150.373Z" fill="#191919"/>
<path d="M197.932 150.373H171.672L168.331 142.244H194.591L197.932 150.373Z" fill="#407BFF"/>
<path opacity="0.3" d="M197.932 150.373H171.672L168.331 142.244H194.591L197.932 150.373Z" fill="black"/>
<path d="M193.726 150.373H176.442L179.783 142.244H190.385L193.726 150.373Z" fill="#407BFF"/>
<path opacity="0.2" d="M193.726 150.373H176.442L179.783 142.244H190.385L193.726 150.373Z" fill="#191919"/>
<path d="M219.992 150.373H193.726L190.385 142.244H216.651L219.992 150.373Z" fill="#407BFF"/>
<path opacity="0.3" d="M219.992 150.373H193.726L190.385 142.244H216.651L219.992 150.373Z" fill="black"/>
<path d="M215.786 150.373H198.496L201.837 142.244H212.445L215.786 150.373Z" fill="#407BFF"/>
<path opacity="0.2" d="M215.786 150.373H198.496L201.837 142.244H212.445L215.786 150.373Z" fill="#191919"/>
<path d="M221.338 150.373C221.845 147.681 222.279 144.971 222.638 142.244H212.446L215.8 150.373H221.338Z" fill="#407BFF"/>
<path opacity="0.3" d="M221.338 150.373C221.845 147.681 222.279 144.971 222.638 142.244H212.446L215.8 150.373H221.338Z" fill="black"/>
<path d="M221.917 147.062L220.559 150.373H221.339C221.547 149.274 221.739 148.17 221.917 147.062Z" fill="#407BFF"/>
<path opacity="0.2" d="M221.917 147.062L220.559 150.373H221.339C221.547 149.274 221.739 148.17 221.917 147.062Z" fill="#191919"/>
<path d="M134.29 142.244H117.007L120.348 134.114H130.956L134.29 142.244Z" fill="#407BFF"/>
<path opacity="0.2" d="M134.29 142.244H117.007L120.348 134.114H130.956L134.29 142.244Z" fill="#191919"/>
<path d="M160.556 142.244H134.29L130.955 134.114H157.215L160.556 142.244Z" fill="#407BFF"/>
<path opacity="0.3" d="M160.556 142.244H134.29L130.955 134.114H157.215L160.556 142.244Z" fill="black"/>
<path d="M156.352 142.244H139.068L142.409 134.114H153.011L156.352 142.244Z" fill="#407BFF"/>
<path opacity="0.2" d="M156.352 142.244H139.068L142.409 134.114H153.011L156.352 142.244Z" fill="#191919"/>
<path d="M182.611 142.244H156.351L153.01 134.114H179.276L182.611 142.244Z" fill="#407BFF"/>
<path opacity="0.3" d="M182.611 142.244H156.351L153.01 134.114H179.276L182.611 142.244Z" fill="black"/>
<path d="M178.407 142.244H161.123L164.464 134.114H175.066L178.407 142.244Z" fill="#407BFF"/>
<path opacity="0.2" d="M178.407 142.244H161.123L164.464 134.114H175.066L178.407 142.244Z" fill="#191919"/>
<path d="M204.673 142.244H178.406L175.065 134.114H201.332L204.673 142.244Z" fill="#407BFF"/>
<path opacity="0.3" d="M204.673 142.244H178.406L175.065 134.114H201.332L204.673 142.244Z" fill="black"/>
<path d="M200.467 142.244H183.177L186.518 134.114H197.126L200.467 142.244Z" fill="#407BFF"/>
<path opacity="0.2" d="M200.467 142.244H183.177L186.518 134.114H197.126L200.467 142.244Z" fill="#191919"/>
<path d="M222.612 142.244C222.95 139.542 223.199 136.833 223.359 134.114H197.125L200.466 142.244H222.612Z" fill="#407BFF"/>
<path opacity="0.3" d="M222.612 142.244C222.95 139.542 223.199 136.833 223.359 134.114H197.125L200.466 142.244H222.612Z" fill="black"/>
<path d="M222.522 142.244H205.238L208.579 134.114H219.181L222.522 142.244Z" fill="#407BFF"/>
<path opacity="0.2" d="M222.522 142.244H205.238L208.579 134.114H219.181L222.522 142.244Z" fill="#191919"/>
<path d="M222.613 142.244C222.951 139.542 223.2 136.833 223.36 134.114H219.181L222.522 142.244H222.613Z" fill="#407BFF"/>
<path opacity="0.3" d="M222.613 142.244C222.951 139.542 223.2 136.833 223.36 134.114H219.181L222.522 142.244H222.613Z" fill="black"/>
<path d="M130.462 199.164H136.364L133.023 191.035H119.932C123.648 193.471 127.169 196.189 130.462 199.164Z" fill="#407BFF"/>
<path opacity="0.3" d="M130.462 199.164H136.364L133.023 191.035H119.932C123.648 193.471 127.169 196.189 130.462 199.164Z" fill="black"/>
<path d="M130.462 199.164H132.158L128.817 191.035H119.932C123.648 193.471 127.169 196.189 130.462 199.164Z" fill="#407BFF"/>
<path opacity="0.2" d="M130.462 199.164H132.158L128.817 191.035H119.932C123.648 193.471 127.169 196.189 130.462 199.164Z" fill="#191919"/>
<path d="M158.417 199.164H132.157L128.816 191.035H155.076L158.417 199.164Z" fill="#407BFF"/>
<path opacity="0.3" d="M158.417 199.164H132.157L128.816 191.035H155.076L158.417 199.164Z" fill="black"/>
<path d="M154.213 199.164H136.93L140.271 191.035H150.872L154.213 199.164Z" fill="#407BFF"/>
<path opacity="0.2" d="M154.213 199.164H136.93L140.271 191.035H150.872L154.213 199.164Z" fill="#191919"/>
<path d="M180.473 199.164H154.213L150.872 191.035H177.132L180.473 199.164Z" fill="#407BFF"/>
<path opacity="0.3" d="M180.473 199.164H154.213L150.872 191.035H177.132L180.473 199.164Z" fill="black"/>
<path d="M176.267 199.164H158.983L162.324 191.035H172.926L176.267 199.164Z" fill="#407BFF"/>
<path opacity="0.2" d="M176.267 199.164H158.983L162.324 191.035H172.926L176.267 199.164Z" fill="#191919"/>
<path d="M202.391 198.817L199.193 191.035H172.9L176.241 199.164H202.001C202.15 199.055 202.267 198.932 202.391 198.817Z" fill="#407BFF"/>
<path opacity="0.3" d="M202.391 198.817L199.193 191.035H172.9L176.241 199.164H202.001C202.15 199.055 202.267 198.932 202.391 198.817Z" fill="black"/>
<path d="M198.329 199.164H181.039L184.38 191.035H194.988L198.329 199.164Z" fill="#407BFF"/>
<path opacity="0.2" d="M198.329 199.164H181.039L184.38 191.035H194.988L198.329 199.164Z" fill="#191919"/>
<path d="M202.026 199.164C204.447 196.8 206.452 194.052 207.961 191.035H195L198.341 199.164H202.026Z" fill="#407BFF"/>
<path opacity="0.3" d="M202.026 199.164C204.447 196.8 206.452 194.052 207.961 191.035H195L198.341 199.164H202.026Z" fill="black"/>
<path d="M207.961 191.035H206.44L203.918 197.167C205.483 195.272 206.839 193.216 207.961 191.035Z" fill="#407BFF"/>
<path opacity="0.2" d="M207.961 191.035H206.44L203.918 197.167C205.483 195.272 206.839 193.216 207.961 191.035Z" fill="#191919"/>
<path d="M110.058 183.813C113.184 186.435 116.558 188.722 119.931 191.035H121.043L117.702 182.905H108.998C109.349 183.208 109.7 183.517 110.058 183.813Z" fill="#407BFF"/>
<path opacity="0.3" d="M110.058 183.813C113.184 186.435 116.558 188.722 119.931 191.035H121.043L117.702 182.905H108.998C109.349 183.208 109.7 183.517 110.058 183.813Z" fill="black"/>
<path d="M110.058 183.813C111.839 185.308 113.704 186.693 115.602 188.033L113.496 182.879H108.998C109.349 183.208 109.7 183.517 110.058 183.813Z" fill="#407BFF"/>
<path opacity="0.2" d="M110.058 183.813C111.839 185.308 113.704 186.693 115.602 188.033L113.496 182.879H108.998C109.349 183.208 109.7 183.517 110.058 183.813Z" fill="#191919"/>
<path d="M119.932 191.035H143.098L139.75 182.905H113.49L115.596 188.059C117.033 189.051 118.489 190.036 119.932 191.035Z" fill="#407BFF"/>
<path opacity="0.3" d="M119.932 191.035H143.098L139.75 182.905H113.49L115.596 188.059C117.033 189.051 118.489 190.036 119.932 191.035Z" fill="black"/>
<path d="M138.892 191.035H121.608L124.949 182.905H135.551L138.892 191.035Z" fill="#407BFF"/>
<path opacity="0.2" d="M138.892 191.035H121.608L124.949 182.905H135.551L138.892 191.035Z" fill="#191919"/>
<path d="M165.158 191.035H138.892L135.551 182.905H161.817L165.158 191.035Z" fill="#407BFF"/>
<path opacity="0.3" d="M165.158 191.035H138.892L135.551 182.905H161.817L165.158 191.035Z" fill="black"/>
<path d="M160.947 191.035H143.663L147.004 182.905H157.606L160.947 191.035Z" fill="#407BFF"/>
<path opacity="0.2" d="M160.947 191.035H143.663L147.004 182.905H157.606L160.947 191.035Z" fill="#191919"/>
<path d="M187.213 191.035H160.946L157.605 182.905H183.872L187.213 191.035Z" fill="#407BFF"/>
<path opacity="0.3" d="M187.213 191.035H160.946L157.605 182.905H183.872L187.213 191.035Z" fill="black"/>
<path d="M183.008 191.035H165.725L169.066 182.905H179.667L183.008 191.035Z" fill="#407BFF"/>
<path opacity="0.2" d="M183.008 191.035H165.725L169.066 182.905H179.667L183.008 191.035Z" fill="#191919"/>
<path d="M208.683 189.618L205.927 182.905H179.667L183.008 191.035H207.961C208.215 190.564 208.449 190.094 208.683 189.618Z" fill="#407BFF"/>
<path opacity="0.3" d="M208.683 189.618L205.927 182.905H179.667L183.008 191.035H207.961C208.215 190.564 208.449 190.094 208.683 189.618Z" fill="black"/>
<path d="M205.063 191.035H187.779L191.12 182.905H201.722L205.063 191.035Z" fill="#407BFF"/>
<path opacity="0.2" d="M205.063 191.035H187.779L191.12 182.905H201.722L205.063 191.035Z" fill="#191919"/>
<path d="M207.961 191.035C209.32 188.399 210.519 185.684 211.549 182.905H201.721L205.062 191.035H207.961Z" fill="#407BFF"/>
<path opacity="0.3" d="M207.961 191.035C209.32 188.399 210.519 185.684 211.549 182.905H201.721L205.062 191.035H207.961Z" fill="black"/>
<path d="M108.999 182.905H126.816L123.501 174.769H101.121C103.519 177.689 106.153 180.411 108.999 182.905Z" fill="#407BFF"/>
<path opacity="0.3" d="M108.999 182.905H126.816L123.501 174.769H101.121C103.519 177.689 106.153 180.411 108.999 182.905Z" fill="black"/>
<path d="M108.999 182.905H122.61L119.269 174.769H108.667L106.334 180.444C107.196 181.29 108.085 182.11 108.999 182.905Z" fill="#407BFF"/>
<path opacity="0.2" d="M108.999 182.905H122.61L119.269 174.769H108.667L106.334 180.444C107.196 181.29 108.085 182.11 108.999 182.905Z" fill="#191919"/>
<path d="M148.877 182.905H122.611L119.27 174.769H145.536L148.877 182.905Z" fill="#407BFF"/>
<path opacity="0.3" d="M148.877 182.905H122.611L119.27 174.769H145.536L148.877 182.905Z" fill="black"/>
<path d="M144.664 182.905H127.381L130.722 174.769H141.33L144.664 182.905Z" fill="#407BFF"/>
<path opacity="0.2" d="M144.664 182.905H127.381L130.722 174.769H141.33L144.664 182.905Z" fill="#191919"/>
<path d="M170.931 182.905H144.665L141.33 174.769H167.59L170.931 182.905Z" fill="#407BFF"/>
<path opacity="0.3" d="M170.931 182.905H144.665L141.33 174.769H167.59L170.931 182.905Z" fill="black"/>
<path d="M166.725 182.905H149.441L152.782 174.769H163.384L166.725 182.905Z" fill="#407BFF"/>
<path opacity="0.2" d="M166.725 182.905H149.441L152.782 174.769H163.384L166.725 182.905Z" fill="#191919"/>
<path d="M192.986 182.905H166.726L163.385 174.769H189.645L192.986 182.905Z" fill="#407BFF"/>
<path opacity="0.3" d="M192.986 182.905H166.726L163.385 174.769H189.645L192.986 182.905Z" fill="black"/>
<path d="M188.78 182.905H171.496L174.837 174.769H185.439L188.78 182.905Z" fill="#407BFF"/>
<path opacity="0.2" d="M188.78 182.905H171.496L174.837 174.769H185.439L188.78 182.905Z" fill="#191919"/>
<path d="M213.201 178.402L211.712 174.769H185.439L188.78 182.905H211.53C212.135 181.372 212.674 179.858 213.201 178.402Z" fill="#407BFF"/>
<path opacity="0.3" d="M213.201 178.402L211.712 174.769H185.439L188.78 182.905H211.53C212.135 181.372 212.674 179.858 213.201 178.402Z" fill="black"/>
<path d="M210.841 182.905H193.551L196.892 174.769H207.5L210.841 182.905Z" fill="#407BFF"/>
<path opacity="0.2" d="M210.841 182.905H193.551L196.892 174.769H207.5L210.841 182.905Z" fill="#191919"/>
<path d="M211.549 182.905C212.622 180.09 213.558 177.339 214.468 174.904C214.48 174.858 214.495 174.813 214.513 174.769H207.5L210.841 182.905H211.549Z" fill="#407BFF"/>
<path opacity="0.3" d="M211.549 182.905C212.622 180.09 213.558 177.339 214.468 174.904C214.48 174.858 214.495 174.813 214.513 174.769H207.5L210.841 182.905H211.549Z" fill="black"/>
<path d="M101.121 174.769H107.289L103.948 166.639H95.3291C97.0672 169.479 99.0023 172.195 101.121 174.769Z" fill="#407BFF"/>
<path opacity="0.2" d="M101.121 174.769H107.289L103.948 166.639H95.3291C97.0672 169.479 99.0023 172.195 101.121 174.769Z" fill="#191919"/>
<path d="M133.557 174.769H107.29L103.949 166.639H130.216L133.557 174.769Z" fill="#407BFF"/>
<path opacity="0.3" d="M133.557 174.769H107.29L103.949 166.639H130.216L133.557 174.769Z" fill="black"/>
<path d="M129.35 174.769H112.06L115.401 166.639H126.009L129.35 174.769Z" fill="#407BFF"/>
<path opacity="0.2" d="M129.35 174.769H112.06L115.401 166.639H126.009L129.35 174.769Z" fill="#191919"/>
<path d="M155.611 174.769H129.351L126.01 166.639H152.27L155.611 174.769Z" fill="#407BFF"/>
<path opacity="0.3" d="M155.611 174.769H129.351L126.01 166.639H152.27L155.611 174.769Z" fill="black"/>
<path d="M151.405 174.769H134.121L137.462 166.639H148.064L151.405 174.769Z" fill="#407BFF"/>
<path opacity="0.2" d="M151.405 174.769H134.121L137.462 166.639H148.064L151.405 174.769Z" fill="#191919"/>
<path d="M177.665 174.769H151.405L148.064 166.639H174.324L177.665 174.769Z" fill="#407BFF"/>
<path opacity="0.3" d="M177.665 174.769H151.405L148.064 166.639H174.324L177.665 174.769Z" fill="black"/>
<path d="M173.459 174.769H156.176L159.517 166.639H170.118L173.459 174.769Z" fill="#407BFF"/>
<path opacity="0.2" d="M173.459 174.769H156.176L159.517 166.639H170.118L173.459 174.769Z" fill="#191919"/>
<path d="M199.726 174.769H173.459L170.118 166.639H196.385L199.726 174.769Z" fill="#407BFF"/>
<path opacity="0.3" d="M199.726 174.769H173.459L170.118 166.639H196.385L199.726 174.769Z" fill="black"/>
<path d="M195.52 174.769H178.23L181.571 166.639H192.179L195.52 174.769Z" fill="#407BFF"/>
<path opacity="0.2" d="M195.52 174.769H178.23L181.571 166.639H192.179L195.52 174.769Z" fill="#191919"/>
<path d="M214.501 174.769C215.502 172.081 216.427 169.371 217.276 166.639H192.18L195.521 174.769H214.501Z" fill="#407BFF"/>
<path opacity="0.3" d="M214.501 174.769C215.502 172.081 216.427 169.371 217.276 166.639H192.18L195.521 174.769H214.501Z" fill="black"/>
<path d="M215.93 170.775L214.234 166.639H203.632L200.291 174.769H214.5C215.007 173.449 215.475 172.115 215.93 170.775Z" fill="#407BFF"/>
<path opacity="0.2" d="M215.93 170.775L214.234 166.639H203.632L200.291 174.769H214.5C215.007 173.449 215.475 172.115 215.93 170.775Z" fill="#191919"/>
<path d="M217.288 166.639H214.233L215.93 170.775C216.407 169.405 216.859 168.027 217.288 166.639Z" fill="#407BFF"/>
<path opacity="0.3" d="M217.288 166.639H214.233L215.93 170.775C216.407 169.405 216.859 168.027 217.288 166.639Z" fill="black"/>
</g>
<path d="M167.167 36.9829C149.41 36.9829 132.051 42.2016 117.286 51.9791C102.521 61.7566 91.0129 75.6537 84.2173 91.9131C77.4217 108.172 75.6437 126.064 79.108 143.325C82.5724 160.586 91.1235 176.441 103.68 188.885C116.237 201.329 132.235 209.804 149.651 213.238C167.068 216.671 185.12 214.909 201.526 208.174C217.932 201.439 231.955 190.034 241.82 175.401C251.686 160.768 256.952 143.564 256.952 125.965C256.952 102.366 247.492 79.7326 230.655 63.0452C213.817 46.3578 190.98 36.9829 167.167 36.9829ZM167.05 198.746C152.512 198.745 138.301 194.471 126.213 186.465C114.125 178.459 104.705 167.081 99.142 153.769C93.5793 140.457 92.1245 125.809 94.9616 111.678C97.7987 97.5462 104.8 84.5659 115.081 74.3781C125.361 64.1902 138.459 57.2524 152.718 54.442C166.978 51.6315 181.757 53.0746 195.189 58.5887C208.62 64.1029 220.1 73.4405 228.177 85.4207C236.254 97.401 240.565 111.486 240.565 125.894C240.565 135.462 238.664 144.936 234.969 153.775C231.275 162.614 225.859 170.645 219.033 177.41C212.206 184.175 204.102 189.541 195.183 193.202C186.264 196.863 176.704 198.747 167.05 198.746Z" fill="#407BFF"/>
<path opacity="0.4" d="M167.168 210.367C214.124 210.367 252.318 172.501 252.318 125.978C252.318 79.4545 214.111 41.5889 167.168 41.5889C120.225 41.5889 82.0176 79.448 82.0176 125.978C82.0176 172.508 120.205 210.367 167.168 210.367ZM167.168 42.2331C189.569 42.262 211.045 51.0944 226.886 66.7934C242.726 82.4923 251.638 103.776 251.668 125.978C251.668 172.16 213.753 209.723 167.168 209.723C120.582 209.723 82.6676 172.147 82.6676 125.978C82.6676 79.8088 120.563 42.2073 167.168 42.2073V42.2331Z" fill="#191919"/>
<path d="M144.418 67.6402C148.097 68.5034 151.867 69.3666 155.592 70.1525C159.316 70.9384 163.06 71.6535 166.726 72.1431L168.085 72.2977L168.416 72.3299H168.364C168.364 72.3299 168.397 72.3299 168.468 72.3299C169.054 72.1819 169.61 71.9357 170.113 71.6019C171.572 70.6516 172.942 69.5736 174.208 68.381C176.912 65.9008 179.551 63.0922 182.092 60.2964L185.063 62.3385C183.117 65.8346 180.842 69.1411 178.27 72.2139C176.911 73.8647 175.374 75.3638 173.688 76.6846C172.637 77.5207 171.441 78.1583 170.158 78.5657C169.734 78.6932 169.299 78.7795 168.858 78.8233C168.598 78.8398 168.338 78.8398 168.078 78.8233H167.682L166.135 78.746C162.134 78.4523 158.154 77.934 154.214 77.1935C150.314 76.4849 146.492 75.6475 142.624 74.6168L144.418 67.6402Z" fill="#7F3E3B"/>
<path d="M138.84 74.1853C141.44 77.9087 157.04 79.3388 157.04 79.3388L157.996 69.4311C154.024 68.0521 149.937 67.0217 145.782 66.3519C134.765 64.7929 136.006 70.1011 138.84 74.1853Z" fill="#407BFF"/>
<path opacity="0.2" d="M138.84 74.1853C141.44 77.9087 157.04 79.3388 157.04 79.3388L157.996 69.4311C154.024 68.0521 149.937 67.0217 145.782 66.3519C134.765 64.7929 136.006 70.1011 138.84 74.1853Z" fill="#191919"/>
<path d="M181.48 61.533L182.722 56.9722L187.005 58.7952C187.005 58.7952 185.198 63.7104 183.567 63.4656L181.48 61.533Z" fill="#7F3E3B"/>
<path d="M186.258 54.1509L189.8 53.9319L187.005 58.7955L182.722 56.9725L186.258 54.1509Z" fill="#7F3E3B"/>
<path d="M149.318 67.4534C149.318 67.4534 155.506 81.8769 151.047 108.733H125.268C124.956 104.81 126.77 85.6841 122.311 67.2086C125.146 66.6615 128.014 66.3 130.897 66.1264C134.547 65.9201 138.206 65.9201 141.856 66.1264C144.374 66.3798 146.868 66.8234 149.318 67.4534Z" fill="#407BFF"/>
<path opacity="0.2" d="M149.318 67.4534C149.318 67.4534 155.506 81.8769 151.047 108.733H125.268C124.956 104.81 126.77 85.6841 122.311 67.2086C125.146 66.6615 128.014 66.3 130.897 66.1264C134.547 65.9201 138.206 65.9201 141.856 66.1264C144.374 66.3798 146.868 66.8234 149.318 67.4534Z" fill="#191919"/>
<path opacity="0.3" d="M123.117 70.9062C124.323 77.2286 125.036 83.6336 125.249 90.0645C126.194 86.2967 126.833 82.4601 127.16 78.5915C127.433 74.3076 125.756 71.5955 123.117 70.9062Z" fill="black"/>
<path d="M141.63 87.9128C139.342 85.4197 135.41 80.453 134.188 75.9888L140.324 72.7678L146.037 75.6667C145.978 79.461 143.938 84.6016 142.475 87.7324C142.286 88.1125 141.896 88.2091 141.63 87.9128Z" fill="#191919"/>
<path d="M131.561 53.8997C132.374 57.3976 133.284 63.7944 130.911 66.1393C130.911 66.1393 131.945 69.0317 138.497 69.0317C145.699 69.0317 141.87 66.1393 141.87 66.1393C137.905 65.2117 137.905 62.3192 138.497 59.6072L131.561 53.8997Z" fill="#7F3E3B"/>
<path opacity="0.2" d="M134.382 56.2251L138.484 59.5878C138.336 60.2228 138.245 60.8695 138.211 61.5204C136.703 61.3078 134.584 59.6715 134.369 58.1126C134.254 57.4882 134.259 56.8479 134.382 56.2251Z" fill="black"/>
<path d="M142.156 51.9024C143.222 51.0006 143.703 45.6087 141.603 43.0255C139.504 40.4423 137.703 46.7038 137.703 46.7038C137.703 46.7038 138.665 54.8657 142.156 51.9024Z" fill="#263238"/>
<path d="M130 50.2472C131.469 54.7565 132.093 57.4815 135.057 59.3303C136.013 59.9394 137.119 60.2777 138.256 60.3088C139.392 60.3399 140.515 60.0624 141.504 59.5066C142.492 58.9507 143.309 58.1375 143.865 57.1549C144.421 56.1724 144.695 55.0579 144.658 53.932C144.599 49.5966 142.207 42.9227 137.17 42.0917C136.084 41.8825 134.963 41.9599 133.917 42.316C132.871 42.6721 131.939 43.2945 131.212 44.1207C130.486 44.9469 129.992 45.9479 129.779 47.0232C129.566 48.0985 129.643 49.2103 130 50.2472Z" fill="#7F3E3B"/>
<path d="M142.273 40.9322C142.424 40.6582 142.498 40.3489 142.487 40.0367C142.484 39.6614 142.361 39.2967 142.136 38.9952C141.91 38.6937 141.594 38.4709 141.232 38.3592C140.87 38.2474 140.482 38.2523 140.124 38.3732C139.765 38.4941 139.455 38.7247 139.237 39.0318C138.868 38.6133 138.411 38.2808 137.897 38.0581C137.384 37.8353 136.827 37.7279 136.267 37.7434C135.677 37.763 135.1 37.9197 134.583 38.2008C134.249 37.9186 133.819 37.7714 133.381 37.7885C132.954 37.8037 132.547 37.969 132.233 38.2547C131.918 38.5404 131.717 38.9278 131.665 39.3475C131.482 39.3183 131.297 39.3054 131.112 39.3088C130.347 39.3357 129.624 39.662 129.101 40.2162C128.579 40.7705 128.299 41.5074 128.324 42.2656C128.324 42.2656 128.324 42.2656 128.324 42.3043C128.213 42.2977 128.102 42.2977 127.992 42.3043C127.684 42.3151 127.381 42.386 127.1 42.513C126.82 42.6399 126.567 42.8205 126.357 43.0442C126.147 43.268 125.984 43.5306 125.876 43.817C125.768 44.1035 125.719 44.4081 125.73 44.7136V44.7522C125.437 44.9102 125.194 45.1467 125.029 45.4349C124.865 45.7231 124.786 46.0513 124.801 46.382C124.814 46.7339 124.931 47.0741 125.138 47.3604C125.345 47.6468 125.632 47.8665 125.964 47.9925C126.009 48.5382 126.247 49.0504 126.638 49.4375C127.029 49.8246 127.546 50.0614 128.096 50.1055C128.35 52.3601 129.169 55.8516 131.827 54.0479C132.841 53.3586 133.777 49.1778 132.77 46.279C132.848 46.279 132.932 46.279 133.017 46.279C133.456 46.2629 133.885 46.147 134.271 45.9404C134.658 45.7338 134.991 45.4418 135.246 45.0872C135.802 45.2685 136.393 45.3203 136.972 45.2388C137.551 45.1572 138.104 44.9444 138.587 44.6169C138.796 44.6892 139.016 44.7241 139.237 44.72C139.54 44.7064 139.835 44.6178 140.095 44.4623C140.464 44.7112 140.903 44.8396 141.35 44.8295C141.814 44.8154 142.26 44.6495 142.62 44.3578C142.979 44.0661 143.231 43.6649 143.336 43.2165C143.441 42.7682 143.394 42.298 143.202 41.879C143.009 41.4601 142.683 41.1158 142.273 40.9V40.9322Z" fill="#263238"/>
<path d="M129.215 55.7482C130.087 56.5878 131.249 57.0649 132.465 57.0817C134.07 57.0817 134.415 55.5743 133.55 54.3116C132.783 53.1843 131.028 51.8186 129.611 52.4242C128.194 53.0297 128.149 54.711 129.215 55.7482Z" fill="#7F3E3B"/>
<path d="M137.424 49.9894C137.515 50.3631 137.794 50.6336 138.074 50.5692C138.353 50.5048 138.444 50.1634 138.347 49.7897C138.249 49.4161 137.97 49.1455 137.697 49.2164C137.424 49.2873 137.326 49.6029 137.424 49.9894Z" fill="#263238"/>
<path d="M141.7 49.0552C141.798 49.4289 142.077 49.6994 142.35 49.635C142.623 49.5706 142.721 49.2356 142.623 48.862C142.526 48.4884 142.246 48.2178 141.973 48.2822C141.7 48.3466 141.616 48.6816 141.7 49.0552Z" fill="#263238"/>
<path d="M140.401 49.5383C141.153 50.5829 142.041 51.525 143.04 52.3406C142.823 52.5796 142.556 52.7687 142.257 52.8944C141.959 53.0202 141.636 53.0796 141.311 53.0685L140.401 49.5383Z" fill="#630F0F"/>
<path d="M139.665 54.428C138.874 54.4358 138.106 54.1615 137.501 53.655C137.48 53.6344 137.469 53.6067 137.469 53.5777C137.469 53.5487 137.48 53.5209 137.501 53.5004C137.511 53.4892 137.524 53.4804 137.538 53.4743C137.552 53.4682 137.567 53.4651 137.582 53.4651C137.597 53.4651 137.613 53.4682 137.627 53.4743C137.641 53.4804 137.653 53.4892 137.663 53.5004C138.044 53.8069 138.49 54.024 138.967 54.1356C139.444 54.2471 139.941 54.2502 140.419 54.1446C140.449 54.1386 140.479 54.144 140.505 54.1596C140.53 54.1751 140.548 54.1997 140.556 54.2283C140.56 54.2432 140.56 54.2586 140.558 54.2737C140.555 54.2889 140.549 54.3032 140.541 54.316C140.532 54.3287 140.521 54.3396 140.508 54.3478C140.495 54.356 140.48 54.3614 140.465 54.3636C140.202 54.4154 139.934 54.437 139.665 54.428Z" fill="#263238"/>
<path d="M135.72 48.9135C135.69 48.9196 135.659 48.9196 135.629 48.9135C135.601 48.9023 135.576 48.8856 135.555 48.8644C135.534 48.8433 135.517 48.818 135.506 48.7903C135.495 48.7626 135.49 48.7329 135.491 48.7031C135.492 48.6734 135.499 48.6441 135.512 48.6172C135.651 48.2908 135.868 48.0028 136.144 47.7783C136.421 47.5538 136.748 47.3995 137.098 47.3288C137.158 47.3229 137.218 47.3395 137.266 47.3753C137.314 47.4111 137.347 47.4634 137.358 47.522C137.366 47.5817 137.35 47.6418 137.313 47.6899C137.277 47.738 137.223 47.7702 137.163 47.7797C136.888 47.8411 136.632 47.9675 136.417 48.1481C136.202 48.3287 136.035 48.5581 135.928 48.8169C135.905 48.8498 135.874 48.8761 135.837 48.8931C135.801 48.9101 135.76 48.9171 135.72 48.9135Z" fill="#263238"/>
<path d="M143.163 47.2064C143.129 47.2066 143.096 47.1992 143.066 47.1847C143.035 47.1702 143.008 47.1489 142.988 47.1226C142.805 46.8972 142.573 46.7154 142.31 46.5905C142.047 46.4656 141.758 46.4009 141.467 46.4011C141.406 46.4063 141.346 46.3874 141.3 46.3488C141.254 46.3101 141.225 46.2548 141.22 46.195C141.214 46.1352 141.233 46.0758 141.272 46.0299C141.311 45.984 141.367 45.9553 141.428 45.9502C141.793 45.9428 142.155 46.0186 142.486 46.1715C142.818 46.3245 143.109 46.5507 143.339 46.8327C143.377 46.88 143.394 46.9402 143.388 47.0003C143.382 47.0605 143.353 47.1159 143.306 47.1548C143.266 47.1878 143.215 47.206 143.163 47.2064Z" fill="#263238"/>
<path d="M127.4 74.0822L126.464 76.0856C126.152 76.7749 125.847 77.4706 125.548 78.1664C124.95 79.5578 124.384 80.9686 123.838 82.3729C123.292 83.7773 122.811 85.1945 122.35 86.6117C121.888 88.0289 121.531 89.4397 121.232 90.8441V90.9665V90.9278C121.234 90.8935 121.234 90.859 121.232 90.8247C121.223 90.7534 121.203 90.6839 121.173 90.6186C121.121 90.4962 121.063 90.4704 121.089 90.5413C121.325 90.8709 121.631 91.1456 121.986 91.3465C123.152 92.0516 124.395 92.6242 125.691 93.0536C128.592 94.0412 131.548 94.8629 134.544 95.5145L134.245 99.0897C130.892 99.1965 127.537 98.9373 124.241 98.3167C122.431 97.992 120.672 97.4332 119.009 96.6547C117.929 96.1451 116.958 95.4343 116.149 94.561C115.596 93.9372 115.18 93.2068 114.927 92.4159C114.789 91.9679 114.706 91.505 114.68 91.0373C114.667 90.8056 114.667 90.5733 114.68 90.3416L114.712 90.0066V89.8327C115.145 86.4787 115.918 83.1766 117.02 79.9765C117.548 78.4047 118.131 76.8565 118.768 75.3319C119.093 74.5718 119.418 73.8181 119.776 73.0644C120.133 72.3107 120.478 71.5892 120.9 70.7839L127.4 74.0822Z" fill="#7F3E3B"/>
<path d="M122.311 67.2087C117.761 67.8529 113.101 84.4151 113.101 84.4151L124.066 88.5508C124.066 88.5508 126.822 81.4325 128.707 75.9053C130.683 70.114 127.173 66.5001 122.311 67.2087Z" fill="#407BFF"/>
<path opacity="0.2" d="M122.311 67.2087C117.761 67.8529 113.101 84.4151 113.101 84.4151L124.066 88.5508C124.066 88.5508 126.822 81.4325 128.707 75.9053C130.683 70.114 127.173 66.5001 122.311 67.2087Z" fill="#191919"/>
<path d="M129.228 230.215H134.051L134.675 219.154H129.858L129.228 230.215Z" fill="#7F3E3B"/>
<path opacity="0.2" d="M129.85 219.154H134.673L134.348 224.855H129.525L129.85 219.154Z" fill="black"/>
<path d="M134.302 229.661H128.888C128.843 229.658 128.798 229.664 128.755 229.679C128.713 229.694 128.674 229.717 128.641 229.747C128.607 229.777 128.58 229.814 128.561 229.854C128.542 229.894 128.532 229.938 128.53 229.983L128.264 234.228C128.263 234.339 128.284 234.449 128.326 234.551C128.368 234.654 128.43 234.748 128.508 234.827C128.587 234.906 128.68 234.968 128.783 235.012C128.886 235.055 128.997 235.078 129.109 235.078C130.994 235.046 131.897 234.937 134.309 234.937C135.771 234.937 141.998 235.091 144.02 235.091C146.041 235.091 145.97 233.107 145.131 232.927C141.283 232.122 136.525 230.994 135.16 229.951C134.915 229.761 134.613 229.659 134.302 229.661Z" fill="#263238"/>
<path d="M136.007 230.486C136.329 230.516 136.651 230.427 136.91 230.234C136.986 230.156 137.038 230.059 137.062 229.954C137.086 229.848 137.081 229.738 137.047 229.635C137.035 229.567 137.005 229.502 136.961 229.448C136.917 229.394 136.859 229.352 136.793 229.326C136.202 229.094 134.843 230.015 134.687 230.125C134.671 230.137 134.657 230.154 134.649 230.173C134.641 230.193 134.639 230.214 134.642 230.234C134.648 230.254 134.658 230.272 134.673 230.287C134.688 230.302 134.706 230.312 134.726 230.318C135.146 230.418 135.575 230.474 136.007 230.486ZM136.566 229.5C136.615 229.49 136.666 229.49 136.715 229.5C136.747 229.514 136.775 229.535 136.797 229.562C136.819 229.589 136.833 229.621 136.839 229.655C136.862 229.723 136.867 229.797 136.853 229.868C136.839 229.939 136.808 230.005 136.761 230.06C136.533 230.28 135.89 230.305 135.025 230.138C135.486 229.818 136.012 229.6 136.566 229.5Z" fill="#407BFF"/>
<path d="M134.752 230.318H134.804C135.285 230.034 136 229.03 135.89 228.521C135.87 228.428 135.819 228.345 135.746 228.285C135.673 228.224 135.582 228.189 135.487 228.186C135.401 228.175 135.314 228.183 135.232 228.21C135.15 228.236 135.075 228.281 135.012 228.34C134.531 228.804 134.635 230.176 134.642 230.234C134.643 230.252 134.65 230.269 134.66 230.284C134.67 230.298 134.684 230.31 134.7 230.318C134.717 230.324 134.736 230.324 134.752 230.318ZM135.402 228.385H135.454C135.623 228.385 135.656 228.488 135.675 228.553C135.753 228.914 135.24 229.674 134.843 230.009C134.777 229.48 134.887 228.944 135.155 228.482C135.189 228.45 135.229 228.425 135.272 228.408C135.316 228.392 135.362 228.384 135.409 228.385H135.402Z" fill="#407BFF"/>
<path d="M172.049 218.413L176.794 217.595L175.501 206.592L170.756 207.41L172.049 218.413Z" fill="#7F3E3B"/>
<path opacity="0.2" d="M170.756 207.417L175.507 206.599L176.17 212.268L171.419 213.086L170.756 207.417Z" fill="black"/>
<path d="M176.801 217.022L171.452 216.21C171.362 216.193 171.269 216.212 171.194 216.263C171.118 216.314 171.066 216.392 171.049 216.481L170.139 220.636C170.105 220.857 170.16 221.082 170.293 221.263C170.425 221.444 170.625 221.566 170.847 221.602C172.713 221.853 173.623 221.879 175.976 222.246C177.425 222.465 183.555 223.535 185.557 223.844C187.559 224.153 187.799 222.182 186.98 221.873C183.301 220.507 178.764 218.697 177.575 217.447C177.375 217.22 177.101 217.07 176.801 217.022Z" fill="#263238"/>
<path d="M151.048 108.733C151.048 108.733 165.998 143.371 169.02 156.732C172.342 171.361 177.971 210.561 177.971 210.561L169.274 212.061C169.274 212.061 161.266 175.446 156.651 161.331C151.639 146.019 131.626 108.733 131.626 108.733H151.048Z" fill="#263238"/>
<path opacity="0.3" d="M138.723 116.386L138.372 121.623C140.628 126.029 143.228 131.17 145.769 136.388C146.9 131.221 144.014 118.808 138.723 116.386Z" fill="black"/>
<path d="M142.422 108.733C142.422 108.733 142.338 145.226 141.558 158.903C140.7 173.874 136.416 223.483 136.416 223.483H127.589C127.589 223.483 127.856 175.085 127.323 160.262C126.744 144.157 125.249 108.727 125.249 108.727L142.422 108.733Z" fill="#263238"/>
<path d="M127.238 223.56H136.773L137.3 220.243L126.776 220.758L127.238 223.56Z" fill="#407BFF"/>
<path opacity="0.3" d="M127.238 223.56H136.773L137.3 220.243L126.776 220.758L127.238 223.56Z" fill="black"/>
<path d="M168.922 212.12L178.315 210.503L178.263 207.14L167.986 209.44L168.922 212.12Z" fill="#407BFF"/>
<path opacity="0.3" d="M168.922 212.12L178.315 210.503L178.263 207.14L167.986 209.44L168.922 212.12Z" fill="black"/>
<path d="M178.387 218.091C178.7 218.17 179.031 218.131 179.316 217.982C179.401 217.913 179.466 217.825 179.507 217.725C179.548 217.624 179.563 217.516 179.55 217.408C179.547 217.338 179.527 217.269 179.491 217.208C179.454 217.148 179.403 217.097 179.342 217.06C178.796 216.745 177.308 217.453 177.139 217.537C177.121 217.546 177.105 217.56 177.095 217.577C177.085 217.594 177.079 217.614 177.08 217.634C177.079 217.655 177.085 217.675 177.096 217.693C177.108 217.71 177.125 217.723 177.145 217.73C177.544 217.897 177.96 218.018 178.387 218.091ZM179.089 217.202C179.139 217.205 179.188 217.221 179.232 217.247C179.264 217.263 179.291 217.288 179.308 217.319C179.325 217.35 179.333 217.386 179.329 217.421C179.342 217.492 179.337 217.565 179.313 217.632C179.289 217.7 179.247 217.761 179.193 217.808C178.933 217.995 178.296 217.924 177.464 217.621C177.968 217.366 178.523 217.223 179.089 217.202Z" fill="#407BFF"/>
<path d="M177.171 217.737C177.19 217.743 177.211 217.743 177.23 217.737C177.743 217.531 178.608 216.655 178.575 216.126C178.57 216.031 178.532 215.941 178.468 215.87C178.405 215.799 178.319 215.751 178.224 215.733C178.142 215.71 178.055 215.705 177.971 215.72C177.886 215.734 177.806 215.768 177.737 215.817C177.184 216.204 177.087 217.576 177.087 217.634C177.084 217.652 177.087 217.67 177.096 217.686C177.104 217.702 177.116 217.715 177.132 217.724C177.143 217.733 177.157 217.737 177.171 217.737ZM178.114 215.92H178.166C178.328 215.965 178.354 216.049 178.361 216.12C178.361 216.487 177.763 217.157 177.314 217.408C177.332 216.875 177.523 216.362 177.86 215.946C177.934 215.908 178.02 215.898 178.101 215.92H178.114Z" fill="#407BFF"/>
<path d="M133.823 95.4757L137.775 94.3999L138.321 99.3537C138.321 99.3537 134.421 100.513 133.452 98.4841L133.823 95.4757Z" fill="#7F3E3B"/>
<path d="M141.362 95.0828L141.122 99.547L138.32 99.3537L137.774 94.3999L141.362 95.0828Z" fill="#7F3E3B"/>
<path d="M207.272 212.061C186.511 208.963 170.742 170.504 170.742 125.965C170.742 81.4257 186.511 42.9674 207.272 39.8689L226.623 36.9829V214.947L207.272 212.061Z" fill="#407BFF"/>
<path opacity="0.3" d="M207.272 212.061C186.511 208.963 170.742 170.504 170.742 125.965C170.742 81.4257 186.511 42.9674 207.272 39.8689L226.623 36.9829V214.947L207.272 212.061Z" fill="black"/>
<path d="M226.623 214.947C245.352 214.947 260.534 175.109 260.534 125.965C260.534 76.8216 245.352 36.9829 226.623 36.9829C207.895 36.9829 192.713 76.8216 192.713 125.965C192.713 175.109 207.895 214.947 226.623 214.947Z" fill="#407BFF"/>
<path opacity="0.2" d="M232.902 81.812C222.502 81.812 214.123 101.582 214.123 125.971C214.123 150.36 222.528 170.124 232.902 170.124C243.276 170.124 251.68 150.36 251.68 125.971C251.68 101.582 243.276 81.812 232.902 81.812ZM247.852 125.971C247.852 132.987 246.708 139.364 244.836 144.15L239.415 125.617L244.732 107.47C246.682 112.282 247.878 118.789 247.878 125.965L247.852 125.971ZM236.418 99.1021C238.713 99.1021 240.838 100.687 242.626 103.412L237.77 120.103L232.167 101.035C233.28 99.8562 234.817 99.1596 236.444 99.0957L236.418 99.1021ZM224.998 125.971C224.998 116.888 226.915 108.868 229.847 104.004L236.191 125.617L229.756 147.726C226.889 142.856 225.024 134.926 225.024 125.965L224.998 125.971ZM236.418 152.841C235.586 152.795 234.771 152.586 234.021 152.226C233.271 151.865 232.601 151.36 232.05 150.741L237.796 131.112L242.808 148.273C240.988 151.166 238.804 152.834 236.444 152.834L236.418 152.841Z" fill="#191919"/>
<path opacity="0.4" d="M227.539 212.693C212.264 212.693 195.91 177.842 195.91 125.965C195.91 74.0883 212.264 39.2375 227.539 39.2375C242.814 39.2375 259.175 74.0883 259.175 125.965C259.175 177.842 242.821 212.693 227.539 212.693ZM227.539 39.8817C212.589 39.8817 196.56 74.4684 196.56 125.965C196.56 177.462 212.55 212.048 227.539 212.048C242.528 212.048 258.525 177.455 258.525 125.965C258.525 74.4748 242.502 39.8817 227.539 39.8817Z" fill="#191919"/>
</svg>
