<svg width="360" height="299" viewBox="0 0 360 299" fill="none" xmlns="http://www.w3.org/2000/svg">
    <path d="M360 262.757H0V262.957H360V262.757Z" fill="#EBEBEB"/>
    <path d="M61.6179 270.397H37.7715V270.598H61.6179V270.397Z" fill="#EBEBEB"/>
    <path d="M153.842 268.222H123.221V268.423H153.842V268.222Z" fill="#EBEBEB"/>
    <path d="M81.1151 273.214H67.2983V273.415H81.1151V273.214Z" fill="#EBEBEB"/>
    <path d="M323.928 276.504H312.962V276.705H323.928V276.504Z" fill="#EBEBEB"/>
    <path d="M306.547 276.504H281.858V276.705H306.547V276.504Z" fill="#EBEBEB"/>
    <path d="M238.918 270.726H221.76V270.927H238.918V270.726Z" fill="#EBEBEB"/>
    <path d="M170.64 226.963H31.6219C30.5316 226.963 29.4859 226.48 28.7149 225.62C27.9439 224.761 27.5107 223.595 27.5107 222.38V4.54246C27.5202 3.33405 27.9576 2.17874 28.7275 1.32799C29.4975 0.477249 30.5378 -4.63283e-05 31.6219 3.37278e-09H170.64C171.73 3.37279e-09 172.776 0.482807 173.547 1.34221C174.318 2.20161 174.751 3.36721 174.751 4.58259V222.38C174.751 223.595 174.318 224.761 173.547 225.62C172.776 226.48 171.73 226.963 170.64 226.963V226.963ZM31.6219 0.160512C30.5799 0.162633 29.5811 0.624982 28.8443 1.4463C28.1074 2.26761 27.6926 3.38095 27.6907 4.54246V222.38C27.6926 223.542 28.1074 224.655 28.8443 225.476C29.5811 226.298 30.5799 226.76 31.6219 226.762H170.64C171.682 226.76 172.68 226.298 173.417 225.476C174.154 224.655 174.569 223.542 174.571 222.38V4.54246C174.569 3.38095 174.154 2.26761 173.417 1.4463C172.68 0.624982 171.682 0.162633 170.64 0.160512H31.6219Z" fill="#EBEBEB"/>
    <path d="M326.383 226.963H187.351C186.261 226.961 185.217 226.477 184.446 225.618C183.675 224.759 183.242 223.595 183.24 222.38V4.54246C183.251 3.33471 183.689 2.1806 184.459 1.33031C185.228 0.480015 186.267 0.00204514 187.351 0H326.383C327.465 0.0041769 328.501 0.483338 329.268 1.33363C330.035 2.18392 330.47 3.33683 330.48 4.54246V222.38C330.48 223.593 330.049 224.756 329.281 225.615C328.513 226.474 327.471 226.958 326.383 226.963V226.963ZM187.351 0.160512C186.309 0.162633 185.31 0.624982 184.573 1.4463C183.836 2.26761 183.422 3.38095 183.42 4.54246V222.38C183.422 223.542 183.836 224.655 184.573 225.476C185.31 226.298 186.309 226.76 187.351 226.762H326.383C327.425 226.76 328.424 226.298 329.161 225.476C329.897 224.655 330.312 223.542 330.314 222.38V4.54246C330.312 3.38095 329.897 2.26761 329.161 1.4463C328.424 0.624982 327.425 0.162633 326.383 0.160512H187.351Z" fill="#EBEBEB"/>
    <path d="M221.4 113.457L299.066 113.457V26.6526L221.4 26.6526V113.457Z" fill="#F0F0F0"/>
    <path d="M221.4 26.6609H220.061V113.465H221.4V26.6609Z" fill="#E0E0E0"/>
    <path d="M228.262 107.976L292.212 107.976V32.1344L228.262 32.1344V107.976Z" fill="#FAFAFA"/>
    <path d="M253.44 91.4912H273.694C278.086 91.4912 281.023 87.5266 280.253 82.6631L276.314 57.519C275.877 55.0861 274.714 52.8898 273.014 51.287C271.315 49.6842 269.179 48.7693 266.954 48.6909H246.751C242.359 48.6909 239.422 52.6555 240.192 57.519L244.13 82.6631C244.565 85.0875 245.72 87.2778 247.409 88.8798C249.099 90.4818 251.223 91.4018 253.44 91.4912Z" fill="#F0F0F0"/>
    <path d="M75.5783 139.821H58.2983V258.639H75.5783V139.821Z" fill="#F0F0F0"/>
    <path d="M151.402 258.647H60.0625V262.749H151.402V258.647Z" fill="#F0F0F0"/>
    <path d="M75.5785 258.647H152.921V139.829H75.5785L75.5785 258.647Z" fill="#F5F5F5"/>
    <path d="M78.6885 222.91H149.81V201.69H78.6885V222.91Z" fill="#F0F0F0"/>
    <path d="M78.6885 250.678H149.81V229.459H78.6885V250.678Z" fill="#F0F0F0"/>
    <path d="M141.393 200.39H87.1055C86.6362 200.39 86.2559 200.814 86.2559 201.337V202.356C86.2559 202.879 86.6362 203.303 87.1055 203.303H141.393C141.863 203.303 142.243 202.879 142.243 202.356V201.337C142.243 200.814 141.863 200.39 141.393 200.39Z" fill="#F5F5F5"/>
    <path d="M141.393 228.166H87.1055C86.6362 228.166 86.2559 228.59 86.2559 229.113V230.133C86.2559 230.656 86.6362 231.08 87.1055 231.08H141.393C141.863 231.08 142.243 230.656 142.243 230.133V229.113C142.243 228.59 141.863 228.166 141.393 228.166Z" fill="#F5F5F5"/>
    <path d="M78.6885 167.59H149.81V146.37H78.6885V167.59Z" fill="#F0F0F0"/>
    <path d="M78.6885 195.149H149.81V173.93H78.6885V195.149Z" fill="#F0F0F0"/>
    <path d="M141.393 145.078H87.1055C86.6362 145.078 86.2559 145.502 86.2559 146.025V147.044C86.2559 147.567 86.6362 147.991 87.1055 147.991H141.393C141.863 147.991 142.243 147.567 142.243 147.044V146.025C142.243 145.502 141.863 145.078 141.393 145.078Z" fill="#F5F5F5"/>
    <path d="M141.393 172.622H87.1055C86.6362 172.622 86.2559 173.046 86.2559 173.569V174.588C86.2559 175.111 86.6362 175.535 87.1055 175.535H141.393C141.863 175.535 142.243 175.111 142.243 174.588V173.569C142.243 173.046 141.863 172.622 141.393 172.622Z" fill="#F5F5F5"/>
    <path d="M150.12 20.1121H53.1289V115.022H150.12V20.1121Z" fill="#E6E6E6"/>
    <path d="M160.517 16.4202H46.8502C46.7238 16.4202 46.5987 16.448 46.4821 16.5022C46.3654 16.5563 46.2595 16.6357 46.1705 16.7356C46.0815 16.8356 46.0111 16.9542 45.9634 17.0846C45.9157 17.2151 45.8917 17.3547 45.8926 17.4956C45.8926 17.7787 45.9935 18.0502 46.1731 18.2504C46.3527 18.4505 46.5962 18.563 46.8502 18.563H160.517C160.771 18.563 161.016 18.4508 161.196 18.2508C161.377 18.0509 161.48 17.7794 161.481 17.4956V17.4956C161.481 17.2104 161.38 16.9368 161.199 16.7352C161.018 16.5335 160.772 16.4202 160.517 16.4202Z" fill="#E6E6E6"/>
    <path d="M154.238 20.1121H55.0513V115.022H154.238V20.1121Z" fill="#F0F0F0"/>
    <path d="M150.12 115.022H53.1289V118.064H152.957L150.12 115.022Z" fill="#E6E6E6"/>
    <path d="M161.093 115.022H61.9126L64.7422 118.064H163.929L161.093 115.022Z" fill="#F0F0F0"/>
    <path d="M148.479 108.602V26.5325L60.8185 26.5325V108.602H148.479Z" fill="#FAFAFA"/>
    <path d="M80.7192 108.602L114.53 26.5325H130.5L96.6816 108.602H80.7192Z" fill="white"/>
    <path d="M100.108 108.602L133.927 26.5325H140.148L106.336 108.602H100.108Z" fill="white"/>
    <path d="M148.479 108.602V26.5325H147.744V108.602H148.479Z" fill="#E6E6E6"/>
    <g opacity="0.4">
        <path d="M60.8831 14.5022H50.9688V92.8236H60.8831V14.5022Z" fill="#F0F0F0"/>
        <path d="M64.7495 14.5022H57.0239V92.8236H64.7495V14.5022Z" fill="#E6E6E6"/>
        <path d="M70.7977 14.5022H60.8833V92.8236H70.7977V14.5022Z" fill="#F0F0F0"/>
        <path d="M74.6641 14.5022H66.9385V92.8236H74.6641V14.5022Z" fill="#E6E6E6"/>
        <path d="M80.7122 14.5022H70.7979V92.8236H80.7122V14.5022Z" fill="#F0F0F0"/>
    </g>
    <g opacity="0.4">
        <path d="M144.792 14.5022H139.075V92.8236H144.792V14.5022Z" fill="#F0F0F0"/>
        <path d="M147.01 14.5022H142.56V92.8236H147.01V14.5022Z" fill="#E6E6E6"/>
        <path d="M150.501 14.5022H144.785V92.8236H150.501V14.5022Z" fill="#F0F0F0"/>
        <path d="M152.726 14.5022H148.277V92.8236H152.726V14.5022Z" fill="#E6E6E6"/>
        <path d="M156.218 14.5022H150.501V92.8236H156.218V14.5022Z" fill="#F0F0F0"/>
    </g>
    <path d="M256.932 171.915C256.847 173.076 257.073 174.239 257.581 175.257C258.089 176.275 258.857 177.102 259.786 177.634C260.716 178.165 261.766 178.378 262.804 178.245C263.842 178.112 264.822 177.638 265.618 176.885C266.415 176.131 266.994 175.131 267.281 174.011C267.568 172.891 267.551 171.701 267.231 170.592C266.912 169.483 266.305 168.505 265.487 167.78C264.668 167.056 263.676 166.618 262.634 166.522C261.237 166.396 259.851 166.892 258.782 167.904C257.713 168.915 257.048 170.358 256.932 171.915V171.915Z" fill="#E0E0E0"/>
    <path d="M271.626 181.297C274.517 180.823 276.517 177.826 276.091 174.603C275.666 171.379 272.977 169.151 270.085 169.625C267.194 170.099 265.194 173.097 265.62 176.32C266.045 179.543 268.734 181.771 271.626 181.297Z" fill="#E0E0E0"/>
    <path d="M274.839 176.201C274.754 177.362 274.98 178.525 275.488 179.543C275.996 180.56 276.763 181.387 277.693 181.919C278.623 182.451 279.673 182.664 280.711 182.531C281.749 182.397 282.728 181.924 283.525 181.17C284.322 180.417 284.901 179.417 285.188 178.297C285.475 177.177 285.457 175.987 285.138 174.878C284.819 173.769 284.211 172.79 283.393 172.066C282.575 171.341 281.583 170.904 280.541 170.808C279.849 170.743 279.152 170.831 278.49 171.067C277.828 171.304 277.215 171.683 276.685 172.184C276.155 172.685 275.719 173.298 275.403 173.987C275.086 174.677 274.894 175.429 274.839 176.201V176.201Z" fill="#E0E0E0"/>
    <path d="M247.104 175.005C247.019 176.166 247.245 177.329 247.753 178.347C248.261 179.365 249.028 180.192 249.958 180.724C250.888 181.255 251.938 181.468 252.976 181.335C254.014 181.201 254.994 180.728 255.79 179.974C256.587 179.221 257.166 178.221 257.453 177.101C257.74 175.981 257.723 174.791 257.403 173.682C257.084 172.573 256.477 171.595 255.658 170.87C254.84 170.146 253.848 169.708 252.806 169.612C251.409 169.485 250.023 169.982 248.954 170.993C247.885 172.005 247.219 173.447 247.104 175.005Z" fill="#E0E0E0"/>
    <path d="M288.518 181.293C291.409 180.819 293.408 177.821 292.983 174.598C292.557 171.375 289.868 169.147 286.977 169.621C284.085 170.095 282.086 173.093 282.512 176.316C282.937 179.539 285.626 181.767 288.518 181.293Z" fill="#E0E0E0"/>
    <path d="M248.684 174.983C250.905 172.865 251.166 169.142 249.266 166.666C247.367 164.19 244.026 163.899 241.805 166.017C239.583 168.134 239.323 171.858 241.223 174.334C243.122 176.81 246.463 177.101 248.684 174.983Z" fill="#E0E0E0"/>
    <path d="M232.503 173.665C232.418 174.826 232.644 175.989 233.152 177.007C233.66 178.024 234.427 178.852 235.357 179.383C236.287 179.915 237.337 180.128 238.375 179.995C239.413 179.861 240.393 179.388 241.189 178.634C241.986 177.881 242.565 176.881 242.852 175.761C243.139 174.641 243.121 173.451 242.802 172.342C242.483 171.233 241.876 170.255 241.057 169.53C240.239 168.806 239.247 168.368 238.205 168.272C236.808 168.145 235.422 168.642 234.353 169.653C233.284 170.665 232.618 172.107 232.503 173.665V173.665Z" fill="#E0E0E0"/>
    <path d="M226.461 175.254C226.461 175.254 227.369 199.387 262.159 199.387C296.949 199.387 297.857 175.254 297.857 175.254H226.461Z" fill="#F0F0F0"/>
    <path d="M317.707 199.387H311.09V262.748H317.707V199.387Z" fill="#E6E6E6"/>
    <path d="M319.471 199.387H315.576V262.748H319.471V199.387Z" fill="#F0F0F0"/>
    <path d="M289.555 199.387H282.938V262.748H289.555V199.387Z" fill="#E6E6E6"/>
    <path d="M290.794 199.387H286.898V262.748H290.794V199.387Z" fill="#F0F0F0"/>
    <path d="M226.749 207.075H320.681V199.395H226.749V207.075Z" fill="#F0F0F0"/>
    <path d="M198.044 199.387H191.427V262.748H198.044V199.387Z" fill="#E6E6E6"/>
    <path d="M199.282 199.387H195.387V262.748H199.282V199.387Z" fill="#F0F0F0"/>
    <path d="M190.246 207.075H223.92V199.395H190.246V207.075Z" fill="#E6E6E6"/>
    <path d="M226.188 199.387H219.571V262.748H226.188V199.387Z" fill="#E6E6E6"/>
    <path d="M227.959 199.387H224.064V262.748H227.959V199.387Z" fill="#F0F0F0"/>
    <path d="M180 299C257.1 299 319.601 294.932 319.601 289.915C319.601 284.898 257.1 280.83 180 280.83C102.901 280.83 40.3994 284.898 40.3994 289.915C40.3994 294.932 102.901 299 180 299Z" fill="#F5F5F5"/>
    <path d="M255.946 281.946C255.947 283.549 255.437 285.102 254.507 286.326C253.578 287.55 252.289 288.367 250.87 288.631C233.401 291.916 215.562 291.916 198.094 288.631C196.681 288.36 195.399 287.54 194.477 286.316C193.554 285.092 193.05 283.544 193.054 281.946V216.939H255.975L255.946 281.946Z" fill="#407BFF"/>
    <path opacity="0.3" d="M193.018 218.111V227.236C196.805 228.801 209.239 229.948 224.482 229.948C239.724 229.948 252.18 228.801 255.946 227.236V218.111H193.018Z" fill="black"/>
    <path d="M257.126 225.069C257.126 227.131 242.842 228.801 224.482 228.801C206.122 228.801 191.837 227.131 191.837 225.069L191.239 216.963H257.76L257.126 225.069Z" fill="#407BFF"/>
    <path d="M224.482 220.687C242.841 220.687 257.724 219.019 257.724 216.963C257.724 214.906 242.841 213.239 224.482 213.239C206.122 213.239 191.239 214.906 191.239 216.963C191.239 219.019 206.122 220.687 224.482 220.687Z" fill="#407BFF"/>
    <path opacity="0.3" d="M224.482 220.687C242.841 220.687 257.724 219.019 257.724 216.963C257.724 214.906 242.841 213.239 224.482 213.239C206.122 213.239 191.239 214.906 191.239 216.963C191.239 219.019 206.122 220.687 224.482 220.687Z" fill="black"/>
    <path opacity="0.2" d="M201.456 277.371C200.809 277.369 200.189 277.082 199.732 276.572C199.275 276.062 199.017 275.371 199.015 274.651V237.38C199.017 236.659 199.275 235.968 199.732 235.458C200.189 234.949 200.809 234.661 201.456 234.659V234.659C202.102 234.663 202.721 234.951 203.178 235.461C203.635 235.97 203.893 236.66 203.897 237.38V274.651C203.893 275.371 203.635 276.06 203.178 276.57C202.721 277.079 202.102 277.367 201.456 277.371V277.371Z" fill="black"/>
    <path opacity="0.2" d="M247.515 277.371C246.868 277.369 246.248 277.082 245.791 276.572C245.333 276.062 245.076 275.371 245.074 274.651V237.38C245.076 236.659 245.333 235.968 245.791 235.458C246.248 234.949 246.868 234.661 247.515 234.659C248.161 234.663 248.779 234.951 249.236 235.461C249.693 235.97 249.952 236.66 249.955 237.38V274.651C249.952 275.371 249.693 276.06 249.236 276.57C248.779 277.079 248.161 277.367 247.515 277.371V277.371Z" fill="black"/>
    <path opacity="0.2" d="M232.157 277.371C231.51 277.367 230.892 277.079 230.435 276.57C229.978 276.06 229.72 275.371 229.716 274.651V237.38C229.72 236.66 229.978 235.97 230.435 235.461C230.892 234.951 231.51 234.663 232.157 234.659C232.803 234.661 233.423 234.949 233.88 235.458C234.338 235.968 234.596 236.659 234.597 237.38V274.651C234.596 275.371 234.338 276.062 233.88 276.572C233.423 277.082 232.803 277.369 232.157 277.371V277.371Z" fill="black"/>
    <path opacity="0.2" d="M216.807 277.371C216.16 277.367 215.542 277.079 215.085 276.57C214.628 276.06 214.37 275.371 214.366 274.651V237.38C214.37 236.66 214.628 235.97 215.085 235.461C215.542 234.951 216.16 234.663 216.807 234.659C217.453 234.661 218.073 234.949 218.53 235.458C218.988 235.968 219.245 236.659 219.247 237.38V274.651C219.245 275.371 218.988 276.062 218.53 276.572C218.073 277.082 217.453 277.369 216.807 277.371Z" fill="black"/>
    <path d="M138.874 67.5429C138.874 68.2795 138.678 68.9994 138.311 69.6118C137.944 70.2242 137.422 70.7015 136.812 70.9833C136.201 71.2652 135.529 71.3389 134.881 71.1953C134.233 71.0516 133.638 70.6969 133.171 70.1761C132.704 69.6553 132.385 68.9918 132.257 68.2694C132.128 67.5471 132.194 66.7983 132.447 66.1179C132.7 65.4374 133.128 64.8559 133.677 64.4467C134.227 64.0375 134.872 63.8191 135.533 63.8191C136.419 63.8191 137.269 64.2114 137.895 64.9098C138.522 65.6081 138.874 66.5553 138.874 67.5429V67.5429Z" fill="#263238"/>
    <path d="M132.847 68.0808C132.814 68.0818 132.782 68.0726 132.754 68.0541C132.726 68.0357 132.704 68.0087 132.689 67.9765C132.468 67.5244 132.329 67.0282 132.28 66.5163C132.232 66.0044 132.274 65.4868 132.405 64.9931C132.535 64.4994 132.752 64.0392 133.042 63.6388C133.332 63.2384 133.691 62.9057 134.096 62.6596C134.502 62.4135 134.947 62.2589 135.406 62.2045C135.865 62.1502 136.33 62.1972 136.773 62.3429C137.216 62.4886 137.629 62.7301 137.988 63.0536C138.347 63.3772 138.645 63.7764 138.866 64.2286C138.887 64.2758 138.892 64.3302 138.878 64.3808C138.865 64.4314 138.835 64.4745 138.794 64.5014C138.773 64.5141 138.751 64.5222 138.727 64.525C138.703 64.5278 138.68 64.5255 138.657 64.518C138.634 64.5106 138.613 64.4982 138.594 64.4815C138.576 64.4649 138.561 64.4444 138.549 64.4212C138.149 63.6017 137.474 62.9929 136.671 62.7288C135.868 62.4646 135.004 62.5668 134.269 63.0127C133.534 63.4586 132.988 64.2118 132.751 65.1066C132.514 66.0013 132.605 66.9644 133.005 67.7839C133.017 67.8071 133.024 67.8325 133.027 67.8588C133.029 67.8851 133.027 67.9116 133.02 67.937C133.014 67.9624 133.002 67.986 132.988 68.0065C132.973 68.0271 132.954 68.0442 132.933 68.0568C132.907 68.0721 132.877 68.0804 132.847 68.0808V68.0808Z" fill="#263238"/>
    <path d="M129.6 84.5572C128.949 84.5542 128.312 84.3503 127.759 83.968C127.206 83.5856 126.759 83.0399 126.467 82.3914C126.175 81.7429 126.051 81.017 126.107 80.2942C126.163 79.5715 126.398 78.8802 126.785 78.2973C127.061 77.8851 127.407 77.5376 127.804 77.2746C128.2 77.0116 128.64 76.8382 129.096 76.7644C129.12 76.7598 129.143 76.7606 129.166 76.7668C129.189 76.7729 129.211 76.7842 129.23 76.8C129.249 76.8158 129.264 76.8357 129.276 76.8586C129.288 76.8815 129.295 76.9067 129.298 76.9329C129.304 76.985 129.292 77.0377 129.263 77.0797C129.235 77.1217 129.193 77.1497 129.147 77.1576C128.319 77.2928 127.573 77.789 127.074 78.537C126.574 79.285 126.361 80.2236 126.483 81.1463C126.604 82.069 127.049 82.9003 127.72 83.4571C128.391 84.014 129.233 84.2509 130.061 84.1158C130.109 84.1073 130.158 84.1202 130.197 84.1518C130.236 84.1834 130.262 84.2311 130.27 84.2843C130.277 84.3375 130.266 84.3919 130.238 84.4356C130.209 84.4792 130.166 84.5085 130.119 84.5171C129.947 84.5424 129.774 84.5558 129.6 84.5572V84.5572Z" fill="#263238"/>
    <path d="M147.751 90.6245C147.076 90.6234 146.416 90.403 145.851 89.9904C145.81 89.9609 145.782 89.9152 145.771 89.8629C145.761 89.8105 145.768 89.7556 145.793 89.7096C145.821 89.6661 145.862 89.6361 145.909 89.6257C145.956 89.6152 146.004 89.6251 146.045 89.6534C146.747 90.161 147.601 90.3371 148.419 90.143C149.237 89.9488 149.953 89.4003 150.408 88.6181C150.864 87.8358 151.022 86.884 150.847 85.9719C150.673 85.0598 150.181 84.2622 149.479 83.7546C149.439 83.725 149.411 83.6793 149.4 83.627C149.389 83.5747 149.397 83.5198 149.422 83.4737C149.449 83.4303 149.491 83.4002 149.538 83.3898C149.585 83.3794 149.633 83.3893 149.674 83.4175C150.454 83.984 151.002 84.8721 151.196 85.8875C151.39 86.9028 151.216 87.9626 150.711 88.8348C150.461 89.2687 150.137 89.6428 149.756 89.9349C149.375 90.2271 148.946 90.4315 148.493 90.5362C148.249 90.5933 148.001 90.6229 147.751 90.6245V90.6245Z" fill="#263238"/>
    <path d="M133.661 79.156C136.269 79.156 138.384 76.7989 138.384 73.8912C138.384 70.9836 136.269 68.6265 133.661 68.6265C131.052 68.6265 128.938 70.9836 128.938 73.8912C128.938 76.7989 131.052 79.156 133.661 79.156Z" fill="#263238"/>
    <path d="M138.094 85.9155C140.54 83.1887 140.54 78.7678 138.094 76.0411C135.647 73.3144 131.681 73.3144 129.235 76.0411C126.789 78.7678 126.789 83.1887 129.235 85.9155C131.681 88.6422 135.647 88.6422 138.094 85.9155Z" fill="#263238"/>
    <path d="M134.323 97.5747C138.149 97.5747 141.25 94.1181 141.25 89.8541C141.25 85.5902 138.149 82.1335 134.323 82.1335C130.498 82.1335 127.397 85.5902 127.397 89.8541C127.397 94.1181 130.498 97.5747 134.323 97.5747Z" fill="#263238"/>
    <path d="M147.994 92.1513C148.873 88.0013 146.567 83.8431 142.844 82.8637C139.121 81.8842 135.39 84.4543 134.511 88.6043C133.633 92.7542 135.939 96.9124 139.662 97.8919C143.385 98.8714 147.115 96.3012 147.994 92.1513Z" fill="#263238"/>
    <path d="M164.225 106.306C164.225 106.932 164.225 107.727 164.275 108.449C164.325 109.172 164.325 109.942 164.369 110.688C164.462 112.181 164.556 113.69 164.7 115.191C164.959 118.203 165.321 121.202 165.787 124.187C165.909 124.926 166.017 125.68 166.154 126.418L166.471 128.24C166.55 128.529 166.471 128.473 166.37 128.465C166.269 128.457 166.37 128.609 166.795 128.609C167.882 128.488 168.941 128.148 169.92 127.606C170.496 127.317 171.086 127.004 171.677 126.667C172.267 126.33 172.865 125.945 173.405 125.608L175.507 128.312C175.005 128.953 174.472 129.561 173.909 130.134C173.354 130.723 172.767 131.272 172.152 131.779C171.507 132.321 170.825 132.806 170.114 133.232C169.305 133.725 168.437 134.087 167.537 134.308C166.981 134.442 166.412 134.496 165.845 134.468C165.152 134.423 164.472 134.233 163.843 133.906C163.174 133.556 162.577 133.053 162.093 132.43C161.678 131.888 161.338 131.279 161.085 130.624C160.89 130.123 160.731 129.605 160.61 129.075L160.329 127.903C160.128 127.101 159.962 126.338 159.789 125.552C159.116 122.397 158.597 119.203 158.234 115.985C158.054 114.38 157.91 112.775 157.824 111.13C157.781 110.327 157.745 109.525 157.723 108.674C157.701 107.823 157.723 107.069 157.723 106.114L164.225 106.306Z" fill="#FFB573"/>
    <path d="M160.733 97.6549C166.874 102.896 166.63 112.775 166.63 112.775L155.642 115.704C155.642 115.704 152.273 105.769 153.641 102.133C155.066 98.3451 157.277 94.7015 160.733 97.6549Z" fill="#407BFF"/>
    <path opacity="0.7" d="M160.733 97.6549C166.874 102.896 166.63 112.775 166.63 112.775L155.642 115.704C155.642 115.704 152.273 105.769 153.641 102.133C155.066 98.3451 157.277 94.7015 160.733 97.6549Z" fill="white"/>
    <path d="M172.994 126.531L174.809 123.128L179.359 128.553C179.359 128.553 176.097 130.881 172.713 129.219L172.994 126.531Z" fill="#FFB573"/>
    <path d="M177.048 121.499L182.887 125.335L179.359 128.553L174.809 123.128L177.048 121.499Z" fill="#FFB573"/>
    <path d="M126.353 283.992L132.631 284.666L136.534 268.27L130.248 267.596L126.353 283.992Z" fill="#FFB573"/>
    <path d="M94.1689 270.212L99.8065 273.503L106.51 258.687L100.872 255.397L94.1689 270.212Z" fill="#FFB573"/>
    <path d="M101.311 270.622L96.2714 264.916C96.1876 264.816 96.0736 264.754 95.9512 264.742C95.8289 264.73 95.707 264.769 95.609 264.851L90.9794 268.648C90.8671 268.748 90.775 268.874 90.7092 269.017C90.6433 269.16 90.605 269.316 90.5969 269.477C90.5887 269.637 90.6109 269.798 90.6619 269.948C90.7129 270.098 90.7916 270.235 90.893 270.349C92.6786 272.307 93.629 273.15 95.8466 275.662C97.2146 277.203 100.023 280.838 101.909 282.973C103.795 285.108 105.783 283.142 105.171 282.066C102.42 277.251 101.959 274.225 101.787 271.778C101.755 271.342 101.587 270.933 101.311 270.622V270.622Z" fill="#263238"/>
    <path d="M133.61 282.54H126C125.864 282.541 125.732 282.592 125.624 282.685C125.516 282.777 125.438 282.907 125.402 283.053L123.775 289.722C123.734 289.881 123.728 290.048 123.756 290.21C123.784 290.372 123.845 290.524 123.936 290.654C124.026 290.785 124.143 290.89 124.276 290.961C124.41 291.032 124.556 291.067 124.704 291.063C127.375 291.063 128.642 291.063 131.976 291.063H142.178C144.95 291.063 145.534 287.941 144.382 287.652C139.241 286.384 136.274 284.634 134.69 282.965C134.39 282.679 134.005 282.527 133.61 282.54V282.54Z" fill="#263238"/>
    <path opacity="0.2" d="M136.527 268.278L134.518 276.729H128.074L130.241 267.604L136.527 268.278Z" fill="black"/>
    <path opacity="0.2" d="M100.865 255.397L106.509 258.695L103.053 266.328L97.4087 263.029L100.865 255.397Z" fill="black"/>
    <path d="M158.875 96.6436C158.875 96.6436 161.655 97.9999 152.338 139.091L126.461 136.595C127.807 124.902 128.376 117.662 125.215 93.0802C128.904 92.5987 132.619 92.4136 136.332 92.5264C140.268 92.5928 144.195 92.971 148.083 93.658C151.723 94.4493 155.325 95.4458 158.875 96.6436V96.6436Z" fill="#407BFF"/>
    <path opacity="0.7" d="M158.875 96.6436C158.875 96.6436 161.655 97.9999 152.338 139.091L126.461 136.595C127.807 124.902 128.376 117.662 125.215 93.0802C128.904 92.5987 132.619 92.4136 136.332 92.5264C140.268 92.5928 144.195 92.971 148.083 93.658C151.723 94.4493 155.325 95.4458 158.875 96.6436V96.6436Z" fill="white"/>
    <path d="M136.332 92.2937C136.332 92.2937 134.892 92.2937 133.128 92.2937C132.084 94.0834 136.49 99.308 142.092 104.444C143.446 99.7655 145.577 99.7815 145.577 99.7815L136.332 92.2937Z" fill="white"/>
    <path d="M148.075 93.5537C148.075 93.5537 148.73 93.658 150.3 94.0593C151.337 95.849 151.92 100.327 148.86 104.228C147.658 99.4124 145.584 99.8457 145.584 99.8457L148.075 93.5537Z" fill="white"/>
    <path d="M138.636 77.8879C139.054 82.1736 139.19 89.9263 136.332 92.5265C136.332 92.5265 139.385 96.0096 145.577 99.8459C150.07 96.3788 148.082 93.6581 148.082 93.6581C143.95 92.1333 144.331 88.6582 145.318 85.448L138.636 77.8879Z" fill="#FFB573"/>
    <path opacity="0.2" d="M141.365 80.9778L145.318 85.448C145.075 86.191 144.892 86.9564 144.77 87.7353C143.186 87.326 140.882 85.4801 140.854 83.5861C140.881 82.6894 141.054 81.8056 141.365 80.9778V80.9778Z" fill="black"/>
    <path d="M153.483 63.9075C156.132 66.5238 156.91 72.8961 154.39 77.2219C153.633 72.8368 153.329 68.3696 153.483 63.9075V63.9075Z" fill="#263238"/>
    <path d="M137.83 68.8911C137.369 75.9456 137.045 78.9231 139.781 82.992C143.899 89.1155 151.776 88.1926 154.116 81.4351C156.226 75.3437 156.622 64.8302 150.811 61.1224C149.535 60.2917 148.088 59.84 146.61 59.8106C145.132 59.7812 143.671 60.1751 142.369 60.9546C141.066 61.7341 139.965 62.8732 139.17 64.2627C138.376 65.6523 137.914 67.2459 137.83 68.8911Z" fill="#FFB573"/>
    <path d="M136.987 74.5732C141.667 74.3726 144.259 67.5509 143.085 64.6697C148.392 67.7515 156.427 70.1752 155.534 66.2106C154.332 60.8576 148.521 56.9331 141.372 59.7902C137.232 61.7966 133.689 66.2106 136.987 74.5732Z" fill="#263238"/>
    <path d="M135.561 74.5654C135.761 75.9143 136.428 77.1218 137.419 77.9281C138.744 78.9794 139.953 77.8077 140.047 76.0982C140.133 74.5493 139.55 72.1416 137.995 71.7725C137.654 71.6971 137.302 71.7179 136.971 71.833C136.639 71.9481 136.339 72.1538 136.097 72.4314C135.855 72.7091 135.679 73.0498 135.586 73.4225C135.492 73.7952 135.484 74.1881 135.561 74.5654V74.5654Z" fill="#FFB573"/>
    <path d="M152.338 139.091C152.338 139.091 158.191 181.666 154.93 209.018C152.46 229.683 136.527 274.273 136.527 274.273L126.18 273.96C126.18 273.96 136.865 230.743 139.075 213.769C142.855 184.7 133.387 137.293 133.387 137.293L152.338 139.091Z" fill="#263238"/>
    <path opacity="0.2" d="M142.243 147.814L136.721 157.517C138.384 169.022 139.439 180.625 139.882 192.268C147.643 176.779 144 156.009 142.243 147.814Z" fill="black"/>
    <path d="M138.139 274.915L125.136 274.522L125.928 269.859L139.363 269.947L138.139 274.915Z" fill="#407BFF"/>
    <path d="M146.678 138.633C146.678 138.633 142.358 185.775 132.487 211.425C124.502 232.131 105.466 265.252 105.466 265.252L97.8623 260.293C97.8623 260.293 110.102 223.463 116.143 209.659C130.882 175.816 117.173 148.665 126.461 136.627L146.678 138.633Z" fill="#263238"/>
    <path d="M106.294 265.975L96.5952 260.044L98.172 255.421L108.504 261.922L106.294 265.975Z" fill="#407BFF"/>
    <path d="M126.201 134.869L124.833 137.341C124.733 137.526 124.927 137.758 125.229 137.783L152.366 140.399C152.597 140.399 152.805 140.311 152.827 140.15L153.266 137.59C153.266 137.413 153.101 137.245 152.849 137.221L126.641 134.693C126.56 134.679 126.478 134.688 126.401 134.719C126.324 134.75 126.256 134.801 126.201 134.869Z" fill="#407BFF"/>
    <path d="M129.47 138.473L128.75 138.409C128.614 138.409 128.513 138.304 128.527 138.208L129.118 134.885C129.118 134.781 129.269 134.717 129.406 134.733L130.126 134.797C130.27 134.797 130.37 134.901 130.349 134.998L129.766 138.32C129.737 138.417 129.6 138.489 129.47 138.473Z" fill="#263238"/>
    <path d="M150.372 140.487L149.652 140.423C149.508 140.423 149.408 140.319 149.429 140.222L150.02 136.9C150.02 136.804 150.164 136.731 150.3 136.747L151.02 136.812C151.157 136.812 151.258 136.916 151.244 137.012L150.653 140.335C150.639 140.447 150.48 140.503 150.372 140.487Z" fill="#263238"/>
    <path d="M139.918 139.484L139.198 139.412C139.061 139.412 138.96 139.307 138.975 139.211L139.565 135.889C139.565 135.792 139.709 135.72 139.853 135.736L140.573 135.808C140.71 135.808 140.811 135.913 140.796 136.009L140.206 139.332C140.191 139.428 140.062 139.492 139.918 139.484Z" fill="#263238"/>
    <path d="M147.744 72.3986C147.672 72.9684 147.888 73.474 148.219 73.5222C148.55 73.5703 148.881 73.153 148.939 72.5832C148.997 72.0134 148.788 71.5077 148.457 71.4596C148.125 71.4114 147.809 71.8288 147.744 72.3986Z" fill="#263238"/>
    <path d="M153.518 73.2653C153.454 73.8351 153.67 74.3407 154.001 74.3889C154.332 74.437 154.663 74.0197 154.721 73.4499C154.778 72.8801 154.577 72.3744 154.246 72.3263C153.914 72.2781 153.59 72.6955 153.518 73.2653Z" fill="#263238"/>
    <path d="M154.08 72.3342L155.362 72.1255C155.362 72.1255 154.613 73.0966 154.08 72.3342Z" fill="#263238"/>
    <path d="M151.25 73.8911C151.551 75.2576 152.016 76.5724 152.633 77.7996C152.348 77.9683 152.034 78.0658 151.712 78.0852C151.39 78.1046 151.068 78.0455 150.768 77.9119L151.25 73.8911Z" fill="#ED893E"/>
    <path d="M147.773 79.6133C146.76 79.2455 145.911 78.4622 145.397 77.4223C145.384 77.3891 145.383 77.3517 145.393 77.3175C145.404 77.2834 145.426 77.2549 145.454 77.2378C145.485 77.221 145.52 77.2183 145.553 77.2303C145.585 77.2423 145.612 77.2681 145.627 77.302C145.947 77.9272 146.395 78.4595 146.934 78.8556C147.473 79.2516 148.089 79.5002 148.73 79.5812C148.763 79.5812 148.794 79.5956 148.817 79.6212C148.84 79.6468 148.853 79.6815 148.853 79.7177C148.853 79.7538 148.84 79.7885 148.817 79.8141C148.794 79.8397 148.763 79.8541 148.73 79.8541C148.404 79.814 148.083 79.7332 147.773 79.6133V79.6133Z" fill="#263238"/>
    <path d="M145.116 69.0999C145.074 69.0806 145.037 69.0503 145.008 69.0116C144.984 68.9861 144.966 68.9556 144.953 68.9218C144.94 68.888 144.933 68.8517 144.933 68.815C144.933 68.7782 144.94 68.7419 144.953 68.7081C144.966 68.6743 144.984 68.6438 145.008 68.6183C145.361 68.2667 145.785 68.0157 146.244 67.8871C146.703 67.7585 147.183 67.7561 147.643 67.88C147.675 67.8901 147.704 67.9071 147.73 67.93C147.755 67.953 147.776 67.9813 147.792 68.0135C147.807 68.0457 147.817 68.081 147.82 68.1173C147.822 68.1537 147.819 68.1903 147.809 68.2251C147.791 68.2962 147.748 68.3563 147.69 68.3923C147.632 68.4284 147.563 68.4375 147.499 68.4177C147.121 68.3237 146.727 68.3315 146.352 68.4403C145.976 68.5492 145.629 68.756 145.339 69.0437C145.308 69.0705 145.272 69.0893 145.233 69.099C145.195 69.1087 145.155 69.109 145.116 69.0999V69.0999Z" fill="#263238"/>
    <path d="M155.945 70.8094C155.908 70.793 155.873 70.7685 155.844 70.7371C155.592 70.407 155.273 70.1477 154.914 69.9804C154.555 69.813 154.166 69.7424 153.778 69.7741C153.745 69.7822 153.711 69.7825 153.678 69.7749C153.645 69.7673 153.614 69.7519 153.587 69.7299C153.56 69.7079 153.537 69.6798 153.52 69.6473C153.504 69.6147 153.493 69.5786 153.49 69.5413C153.48 69.4679 153.496 69.3929 153.535 69.3327C153.574 69.2726 153.633 69.2321 153.699 69.2203C154.169 69.1732 154.642 69.252 155.079 69.4502C155.516 69.6485 155.905 69.9604 156.211 70.3599C156.246 70.4063 156.267 70.464 156.27 70.5245C156.273 70.585 156.259 70.645 156.229 70.6955C156.199 70.7461 156.155 70.7845 156.104 70.805C156.053 70.8255 155.997 70.827 155.945 70.8094V70.8094Z" fill="#263238"/>
    <path d="M161.64 131.362C162.106 129.743 162.854 128.243 163.84 126.946C164.827 125.649 166.033 124.582 167.389 123.804C168.746 123.027 170.226 122.555 171.746 122.416C173.267 122.276 174.797 122.472 176.249 122.991C177.701 123.511 179.047 124.344 180.211 125.444C181.374 126.543 182.332 127.888 183.029 129.4C183.727 130.912 184.15 132.562 184.275 134.257C184.4 135.951 184.225 137.656 183.758 139.275L179.28 154.893L157.162 146.972L161.64 131.362Z" fill="#407BFF"/>
    <path opacity="0.3" d="M161.64 131.362C162.106 129.743 162.854 128.243 163.84 126.946C164.827 125.649 166.033 124.582 167.389 123.804C168.746 123.027 170.226 122.555 171.746 122.416C173.267 122.276 174.797 122.472 176.249 122.991C177.701 123.511 179.047 124.344 180.211 125.444C181.374 126.543 182.332 127.888 183.029 129.4C183.727 130.912 184.15 132.562 184.275 134.257C184.4 135.951 184.225 137.656 183.758 139.275L179.28 154.893L157.162 146.972L161.64 131.362Z" fill="black"/>
    <path d="M139.817 123.545L135.771 137.59C135.711 137.792 135.689 138.005 135.704 138.216C135.719 138.428 135.771 138.634 135.858 138.823C135.945 139.012 136.065 139.18 136.211 139.317C136.356 139.453 136.525 139.557 136.707 139.621L157.155 146.94L161.648 131.354C162.59 128.088 164.658 125.372 167.396 123.804C170.133 122.236 173.318 121.944 176.249 122.992L154.426 115.175C151.493 114.129 148.307 114.424 145.569 115.993C142.83 117.562 140.762 120.278 139.817 123.545V123.545Z" fill="#407BFF"/>
    <path d="M150.789 134.195L156.427 114.637C156.446 114.567 156.452 114.493 156.444 114.42C156.435 114.347 156.413 114.277 156.378 114.215C156.343 114.152 156.297 114.099 156.242 114.058C156.187 114.018 156.125 113.99 156.06 113.979L150.3 113.032L149.58 115.568L153.777 117.069L149.025 133.553L150.789 134.195Z" fill="#263238"/>
    <path d="M147.794 133.12C147.664 133.573 147.657 134.059 147.775 134.517C147.892 134.974 148.129 135.382 148.455 135.69C148.78 135.998 149.18 136.191 149.605 136.246C150.029 136.3 150.458 136.213 150.838 135.996C151.218 135.778 151.531 135.441 151.739 135.025C151.946 134.609 152.039 134.134 152.004 133.659C151.97 133.185 151.81 132.733 151.545 132.36C151.28 131.986 150.922 131.709 150.516 131.563C150.245 131.465 149.96 131.428 149.677 131.454C149.394 131.479 149.118 131.567 148.865 131.712C148.612 131.856 148.388 132.055 148.204 132.297C148.02 132.538 147.881 132.818 147.794 133.12V133.12Z" fill="#263238"/>
    <path d="M158.22 149.275L186.588 159.428C186.691 159.465 186.799 159.479 186.907 159.47C187.015 159.46 187.121 159.427 187.217 159.371C187.313 159.316 187.399 159.24 187.469 159.148C187.539 159.056 187.592 158.949 187.624 158.834V158.834C187.659 158.719 187.673 158.597 187.664 158.477C187.656 158.356 187.626 158.238 187.577 158.131C187.527 158.023 187.459 157.927 187.375 157.85C187.292 157.772 187.196 157.713 187.092 157.678L157.154 146.964C157.02 147.428 157.058 147.932 157.257 148.365C157.457 148.799 157.803 149.126 158.22 149.275V149.275Z" fill="#407BFF"/>
    <path opacity="0.2" d="M158.22 149.275L169.812 153.424C169.915 153.462 170.024 153.476 170.133 153.467C170.241 153.457 170.347 153.424 170.444 153.369C170.541 153.314 170.627 153.238 170.698 153.145C170.769 153.053 170.822 152.946 170.856 152.831C170.921 152.599 170.902 152.347 170.803 152.13C170.703 151.914 170.53 151.75 170.323 151.675L157.154 146.964C157.02 147.428 157.058 147.932 157.257 148.365C157.457 148.799 157.803 149.126 158.22 149.275V149.275Z" fill="black"/>
    <path d="M128.261 104.412L127.865 104.902L127.418 105.472C127.116 105.857 126.814 106.274 126.526 106.668C125.935 107.47 125.374 108.329 124.848 109.196C122.672 112.628 120.96 116.397 119.765 120.383C119.477 121.378 119.21 122.374 119.002 123.393C118.93 123.69 118.922 123.81 118.886 123.947C118.881 124.064 118.881 124.182 118.886 124.3C118.875 124.425 118.875 124.552 118.886 124.677C118.886 124.821 119.131 125.159 119.722 125.48C120.431 125.835 121.179 126.089 121.946 126.234C123.798 126.562 125.673 126.699 127.548 126.643C129.506 126.643 131.494 126.451 133.481 126.218C135.468 125.985 137.484 125.696 139.435 125.367L140.22 128.842C136.201 130.3 132.066 131.324 127.872 131.9C125.664 132.22 123.431 132.274 121.212 132.061C119.943 131.928 118.698 131.598 117.511 131.081C116.799 130.763 116.131 130.336 115.524 129.813C114.81 129.189 114.221 128.404 113.796 127.51C113.065 125.833 112.869 123.927 113.242 122.109C113.414 120.881 113.666 119.701 113.962 118.465C114.527 116.093 115.278 113.78 116.208 111.555C117.14 109.325 118.226 107.178 119.455 105.135C120.074 104.116 120.737 103.128 121.428 102.157C121.781 101.676 122.148 101.202 122.508 100.729L123.091 100.031C123.3 99.7817 123.466 99.5811 123.754 99.2761L128.261 104.412Z" fill="#FFB573"/>
    <path d="M137.866 126.105L142.906 123.128L143.129 129.163C143.129 129.163 139.529 130.824 137.47 128.995L137.866 126.105Z" fill="#FFB573"/>
    <path d="M147.06 122.67L146.304 128.232L143.136 129.163L142.913 123.128L147.06 122.67Z" fill="#FFB573"/>
    <path d="M125.215 93.0963C122.04 93.7223 117.598 103.867 117.598 103.867L125.597 111.892C125.597 111.892 131.954 104.155 131.616 99.5488C131.328 95.6564 129.254 92.2937 125.215 93.0963Z" fill="#407BFF"/>
    <path opacity="0.7" d="M125.215 93.0963C122.04 93.7223 117.598 103.867 117.598 103.867L125.597 111.892C125.597 111.892 131.954 104.155 131.616 99.5488C131.328 95.6564 129.254 92.2937 125.215 93.0963Z" fill="white"/>
    <path d="M103.788 273.72C103.704 273.732 103.619 273.732 103.536 273.72C102.736 273.671 101.887 272.307 101.448 271.505C101.434 271.482 101.427 271.455 101.427 271.428C101.427 271.401 101.434 271.375 101.448 271.352C101.461 271.328 101.481 271.31 101.504 271.3C101.527 271.29 101.553 271.288 101.577 271.296C101.836 271.352 104.076 271.914 104.356 272.757C104.386 272.848 104.393 272.946 104.378 273.042C104.363 273.138 104.326 273.227 104.27 273.302C104.155 273.497 103.985 273.643 103.788 273.72ZM101.822 271.681C102.463 272.781 103.096 273.439 103.55 273.471C103.653 273.473 103.755 273.445 103.846 273.391C103.937 273.336 104.014 273.256 104.068 273.158C104.1 273.123 104.121 273.078 104.13 273.03C104.139 272.981 104.135 272.931 104.119 272.885C103.946 272.371 102.6 271.89 101.822 271.681V271.681Z" fill="#407BFF"/>
    <path d="M103.557 271.504C102.893 271.708 102.197 271.741 101.52 271.601C101.498 271.593 101.479 271.58 101.464 271.561C101.449 271.543 101.438 271.521 101.433 271.496C101.423 271.475 101.418 271.452 101.418 271.428C101.418 271.404 101.423 271.381 101.433 271.36C101.491 271.304 102.801 269.875 103.716 269.947C103.829 269.949 103.94 269.981 104.04 270.039C104.14 270.098 104.226 270.182 104.292 270.285C104.37 270.378 104.419 270.499 104.429 270.627C104.44 270.755 104.411 270.883 104.349 270.991C104.143 271.254 103.864 271.434 103.557 271.504ZM101.822 271.376C102.542 271.488 103.889 271.288 104.169 270.83C104.213 270.758 104.249 270.646 104.119 270.461C104.075 270.391 104.017 270.333 103.95 270.292C103.882 270.252 103.807 270.23 103.73 270.228C103.104 270.18 102.197 270.999 101.822 271.376V271.376Z" fill="#407BFF"/>
    <path d="M136.296 283.615C135.6 283.596 134.907 283.497 134.229 283.318C134.206 283.309 134.185 283.291 134.171 283.268C134.156 283.245 134.148 283.218 134.148 283.19C134.148 283.162 134.156 283.134 134.171 283.111C134.185 283.088 134.206 283.071 134.229 283.061C134.539 282.893 137.297 281.456 137.988 282.002C138.05 282.049 138.1 282.115 138.132 282.191C138.163 282.267 138.176 282.352 138.168 282.435C138.165 282.592 138.129 282.746 138.064 282.885C137.999 283.024 137.907 283.145 137.793 283.238C137.342 283.535 136.818 283.667 136.296 283.615ZM134.661 283.134C135.475 283.302 136.987 283.527 137.613 283.005C137.694 282.935 137.76 282.846 137.807 282.745C137.854 282.644 137.881 282.533 137.887 282.419C137.893 282.384 137.89 282.347 137.877 282.314C137.864 282.281 137.843 282.254 137.815 282.235C137.426 281.938 135.799 282.572 134.64 283.134H134.661Z" fill="#407BFF"/>
    <path d="M134.251 283.302C134.226 283.31 134.198 283.31 134.172 283.302C134.155 283.284 134.142 283.261 134.134 283.236C134.127 283.211 134.125 283.184 134.129 283.158C134.129 283.029 134.784 280.003 136.289 280.196C136.663 280.252 136.764 280.453 136.786 280.621C136.879 281.424 135.144 282.941 134.316 283.326L134.251 283.302ZM136.138 280.437C135.187 280.437 134.633 282.202 134.446 282.909C135.346 282.379 136.606 281.119 136.527 280.629C136.527 280.589 136.527 280.477 136.246 280.445L136.138 280.437Z" fill="#407BFF"/>
    <path d="M148.32 71.4677L149.594 71.259C149.594 71.259 148.838 72.2301 148.32 71.4677Z" fill="#263238"/>
    <path d="M192.622 138.609L164.743 145.03C164.266 145.13 163.774 145.018 163.37 144.718C162.966 144.418 162.684 143.954 162.583 143.425L161.28 136.683L160.812 134.195L161.633 131.354C161.747 130.946 161.884 130.547 162.043 130.158C162.061 130.097 162.085 130.038 162.115 129.982C162.575 128.813 163.194 127.73 163.951 126.772L165.391 126.435L189.295 120.905C189.772 120.805 190.265 120.917 190.668 121.217C191.072 121.517 191.354 121.981 191.455 122.51L193.997 136.154C194.101 136.682 194.015 137.235 193.758 137.694C193.501 138.153 193.093 138.481 192.622 138.609Z" fill="#407BFF"/>
    <path opacity="0.3" d="M191.239 121.788L177.79 137.036L174.91 135.736L163.707 130.672L162.13 129.958C162.59 128.789 163.209 127.706 163.966 126.748L165.406 126.41L189.31 120.881C189.676 120.799 190.056 120.842 190.4 121.004C190.744 121.166 191.036 121.439 191.239 121.788Z" fill="black"/>
    <path d="M191.239 121.788L174.91 135.76L173.844 136.675L163.584 131.001L162.058 130.199C162.076 130.137 162.1 130.078 162.13 130.022C162.59 128.853 163.209 127.77 163.966 126.812L165.406 126.475L189.31 120.945C189.67 120.857 190.046 120.89 190.389 121.04C190.733 121.19 191.028 121.45 191.239 121.788V121.788Z" fill="#407BFF"/>
    <path opacity="0.2" d="M191.239 121.788L174.91 135.76L173.844 136.675L163.584 131.001L162.058 130.199C162.076 130.137 162.1 130.078 162.13 130.022C162.59 128.853 163.209 127.77 163.966 126.812L165.406 126.475L189.31 120.945C189.67 120.857 190.046 120.89 190.389 121.04C190.733 121.19 191.028 121.45 191.239 121.788V121.788Z" fill="white"/>
    <path d="M226.656 166.755L218.16 176.963C217.824 177.361 217.362 177.596 216.872 177.615C216.383 177.635 215.906 177.438 215.546 177.068L194.709 155.439C194.351 155.066 194.139 154.55 194.122 154.004C194.104 153.458 194.282 152.926 194.616 152.526L203.141 142.317C203.306 142.117 203.505 141.955 203.726 141.842C203.948 141.728 204.188 141.664 204.431 141.655C204.675 141.645 204.918 141.689 205.147 141.785C205.375 141.881 205.584 142.026 205.761 142.213L226.591 163.842C226.861 164.122 227.05 164.485 227.133 164.885C227.217 165.286 227.191 165.705 227.059 166.089C226.969 166.34 226.831 166.567 226.656 166.755Z" fill="#407BFF"/>
    <path opacity="0.3" d="M227.03 166.129L208.08 162.686L203.681 141.82C204.016 141.647 204.391 141.589 204.756 141.654C205.121 141.718 205.461 141.901 205.733 142.181L226.562 163.81C226.845 164.095 227.042 164.471 227.126 164.887C227.21 165.302 227.176 165.736 227.03 166.129Z" fill="black"/>
    <path d="M227.03 166.129L208.577 159.997L203.681 141.892C204.016 141.719 204.391 141.662 204.756 141.726C205.121 141.79 205.461 141.974 205.733 142.253L226.562 163.882C226.832 164.162 227.021 164.525 227.104 164.926C227.188 165.326 227.162 165.745 227.03 166.129Z" fill="#407BFF"/>
    <path opacity="0.2" d="M227.03 166.129L208.577 159.997L203.681 141.892C204.016 141.719 204.391 141.662 204.756 141.726C205.121 141.79 205.461 141.974 205.733 142.253L226.562 163.882C226.832 164.162 227.021 164.525 227.104 164.926C227.188 165.326 227.162 165.745 227.03 166.129Z" fill="white"/>
    <path d="M234.065 183.569L243.425 195.751C243.604 195.984 243.738 196.256 243.82 196.549C243.901 196.841 243.928 197.15 243.899 197.455C243.87 197.76 243.786 198.055 243.651 198.322C243.516 198.59 243.334 198.824 243.115 199.01L222.782 216.666C222.441 216.895 222.035 216.975 221.643 216.889C221.252 216.803 220.904 216.557 220.666 216.2L213.343 206.891C213.206 206.712 213.092 206.512 213.005 206.297C212.869 206.002 212.812 205.669 212.842 205.339C212.871 205.008 212.985 204.695 213.17 204.435L231.17 183.48C231.451 183.141 231.823 182.911 232.23 182.824C232.637 182.738 233.058 182.799 233.431 182.999C233.673 183.142 233.888 183.336 234.065 183.569V183.569Z" fill="#407BFF"/>
    <path opacity="0.3" d="M233.431 183.023L228.96 205.189L213.034 206.321C212.898 206.026 212.841 205.693 212.87 205.363C212.9 205.033 213.014 204.719 213.199 204.459L231.199 183.504C231.478 183.172 231.844 182.947 232.245 182.86C232.646 182.774 233.061 182.831 233.431 183.023V183.023Z" fill="black"/>
    <path d="M233.431 183.023L225.936 206.546L213.019 206.321C212.883 206.026 212.826 205.693 212.856 205.363C212.885 205.032 212.999 204.719 213.185 204.459L231.185 183.504C231.465 183.168 231.833 182.941 232.237 182.854C232.641 182.768 233.059 182.827 233.431 183.023V183.023Z" fill="#407BFF"/>
    <path opacity="0.2" d="M233.431 183.023L225.936 206.546L213.019 206.321C212.883 206.026 212.826 205.693 212.856 205.363C212.885 205.032 212.999 204.719 213.185 204.459L231.185 183.504C231.465 183.168 231.833 182.941 232.237 182.854C232.641 182.768 233.059 182.827 233.431 183.023V183.023Z" fill="white"/>
</svg>
