<svg width="290" height="301" viewBox="0 0 290 301" fill="none" xmlns="http://www.w3.org/2000/svg">
    <path d="M228.263 191.108C217.822 181.523 216.837 165.821 218.702 152.025C219.012 149.721 219.026 147.25 220.275 145.343C221.525 143.436 224.111 142.322 225.975 143.519C227.523 144.515 228.032 146.589 228.773 148.35C229.771 150.691 231.375 152.688 233.401 154.113C234.724 155.032 236.404 155.7 237.865 155.053C239.849 154.169 240.384 151.433 240.603 149.136C241.017 144.849 241.431 140.559 241.846 136.267C242.064 133.97 242.302 131.617 243.201 129.515C244.101 127.413 245.813 125.555 247.956 125.172C250.098 124.789 252.539 126.348 252.744 128.652C252.729 129.612 252.651 130.571 252.512 131.52C252.479 132.48 252.79 133.608 253.623 133.949C254.456 134.29 255.408 133.768 256.136 133.169C258.629 131.081 260.461 128.297 262.2 125.471C263.939 122.645 265.632 119.771 267.939 117.474C270.247 115.177 273.276 113.485 276.424 113.652C279.571 113.82 282.699 116.235 283.155 119.555C283.611 122.875 281.489 125.972 279.26 128.374C275.963 131.943 272.192 134.99 268.065 137.422C267.275 137.775 266.61 138.381 266.167 139.155C265.539 140.631 266.762 142.315 268.151 142.977C269.718 143.735 271.504 143.756 273.183 144.16C274.863 144.564 276.635 145.552 277.105 147.334C277.766 149.784 275.637 152.039 273.633 153.445C269.62 156.258 265.178 158.325 260.5 159.556C258.834 159.988 257.081 160.343 255.666 161.38C254.251 162.417 253.253 164.401 253.874 166.113C254.496 167.825 256.447 168.57 258.166 168.431C259.885 168.291 261.472 167.498 263.152 167.039C266.28 166.189 270.135 166.844 271.748 169.823C272.833 171.758 272.687 174.27 271.828 176.338C270.88 178.364 269.556 180.17 267.933 181.648C262.559 187.125 255.9 191.001 248.637 192.882C241.416 194.63 234.889 194.588 228.244 191.142" fill="#F5F5F5"/>
    <path d="M232.548 182.804C235.505 175.508 238.857 168.397 242.586 161.505L245.495 156.062C246.454 154.28 247.4 152.512 248.431 150.842C250.423 147.626 252.584 144.531 254.905 141.57C257.087 138.738 259.256 136.134 261.306 133.712C263.356 131.29 265.307 129.084 267.172 127.142C270.096 124.068 273.247 121.242 276.595 118.692C277.779 117.787 278.718 117.119 279.359 116.673L280.093 116.172C280.175 116.113 280.262 116.059 280.351 116.012C280.283 116.088 280.205 116.153 280.119 116.207L279.405 116.743C278.777 117.209 277.858 117.905 276.687 118.831C273.383 121.426 270.269 124.279 267.37 127.364C265.525 129.313 263.594 131.541 261.551 133.956C259.508 136.371 257.365 138.995 255.19 141.828C252.901 144.778 250.766 147.857 248.795 151.051C247.77 152.707 246.811 154.461 245.872 156.25L242.976 161.693C239.25 168.57 235.894 175.662 232.925 182.936" fill="#E0E0E0"/>
    <path d="M248.544 150.835C248.472 150.506 248.435 150.17 248.431 149.832C248.385 149.185 248.339 148.238 248.305 147.048C248.233 144.723 248.233 141.515 248.246 138C248.259 134.485 248.246 131.248 248.114 128.951C248.061 127.789 248.008 126.863 247.968 126.209C247.934 125.871 247.934 125.53 247.968 125.193C248.057 125.517 248.115 125.851 248.14 126.188C248.233 126.835 248.325 127.768 248.418 128.93C248.596 131.248 248.682 134.499 248.669 138.021C248.656 141.543 248.63 144.675 248.61 147.069V149.853C248.626 150.182 248.604 150.512 248.544 150.835Z" fill="#E0E0E0"/>
    <path d="M277.203 148.531C276.825 148.568 276.444 148.568 276.066 148.531C275.338 148.531 274.287 148.489 272.984 148.531C270.379 148.531 266.788 148.663 262.827 148.99C258.866 149.317 255.295 149.798 252.717 150.208C251.427 150.41 250.389 150.598 249.675 150.723C249.303 150.814 248.925 150.868 248.544 150.884C248.901 150.745 249.268 150.638 249.642 150.563C250.356 150.382 251.387 150.146 252.677 149.909C255.243 149.415 258.827 148.9 262.794 148.566C266.185 148.268 269.589 148.154 272.991 148.225C274.314 148.225 275.345 148.329 276.072 148.392C276.453 148.402 276.831 148.448 277.203 148.531Z" fill="#E0E0E0"/>
    <path d="M232.944 182.303C232.875 182.184 232.824 182.055 232.792 181.92C232.693 181.613 232.567 181.224 232.421 180.792C232.104 179.818 231.681 178.391 231.172 176.616C230.166 173.073 228.917 168.138 227.614 162.695C226.311 157.252 225.108 152.255 224.169 148.726C223.706 146.993 223.329 145.573 223.051 144.515C222.926 144.055 222.833 143.679 222.747 143.366C222.661 143.053 222.654 142.963 222.674 142.956C222.74 143.076 222.791 143.205 222.826 143.338C222.926 143.645 223.051 144.034 223.197 144.466C223.514 145.44 223.944 146.867 224.447 148.642C225.452 152.178 226.701 157.12 228.004 162.563C229.307 168.006 230.51 173.004 231.449 176.532C231.912 178.266 232.289 179.685 232.567 180.709C232.693 181.168 232.785 181.551 232.871 181.857C232.957 182.163 232.964 182.296 232.944 182.303Z" fill="#E0E0E0"/>
    <path d="M271.57 173.874C271.447 173.93 271.318 173.97 271.186 173.992L270.062 174.249L265.923 175.161C262.431 175.934 257.617 177.054 252.301 178.3C246.984 179.546 242.157 180.618 238.652 181.314C236.893 181.662 235.471 181.927 234.486 182.087L233.349 182.268C233.215 182.285 233.079 182.285 232.945 182.268C233.07 182.211 233.201 182.171 233.335 182.149L234.46 181.892L238.593 180.98C242.084 180.208 246.898 179.087 252.215 177.841C257.531 176.595 262.358 175.523 265.87 174.827C267.622 174.479 269.044 174.215 270.029 174.055L271.167 173.874C271.301 173.857 271.436 173.857 271.57 173.874Z" fill="#E0E0E0"/>
    <path d="M10.6064 72.0987C10.6064 72.0987 6.48668 73.8527 11.2346 83.0613C15.9825 92.2699 19.2425 96.808 19.2425 96.808C19.2425 96.808 20.0956 98.9588 18.3696 99.3416C16.6437 99.7244 12.815 99.1885 12.1008 101.43C11.3867 103.671 13.0068 105.905 16.2933 107.729C19.5798 109.552 26.6355 113.84 27.2769 114.23C27.9183 114.62 28.5399 115.622 27.4092 116.067C26.2784 116.513 17.715 117.703 18.4887 121.942C19.2624 126.181 29.2078 129.738 30.2923 130.113C31.3768 130.489 31.6148 130.99 31.5685 131.61C31.5222 132.229 28.5796 132.341 26.1594 132.779C23.7391 133.218 21.0015 134.171 21.6429 136.58C22.2843 138.988 28.2556 143.923 42.4662 145.002L49.0789 145.043L52.5571 139.064C59.1698 125.798 58.3829 117.863 56.776 116.019C55.1692 114.174 52.9605 116.109 51.3206 118.037C49.6806 119.965 48.0605 122.513 47.5183 122.248C46.9761 121.984 46.7446 121.496 46.9893 120.32C47.234 119.144 49.6343 108.397 46.6586 105.46C43.6829 102.522 38.168 109.552 37.1959 110.332C36.2239 111.112 35.7676 110.005 35.7874 109.246C35.8073 108.488 36.0916 99.8984 36.3561 96.0215C36.6206 92.1446 35.7676 89.5136 33.4928 88.9428C31.2181 88.3721 29.7038 92.1028 28.4804 93.4392C27.2571 94.7756 25.9808 92.8754 25.9808 92.8754C25.9808 92.8754 24.0433 87.5786 19.1301 78.4605C14.2169 69.3424 10.5336 72.1961 10.5336 72.1961" fill="#EBEBEB"/>
    <path d="M49.4623 146.672C45.8782 139.962 39.702 127.921 34.3523 117.612C29.0027 107.304 24.1225 97.9772 20.5914 91.2465L16.3791 83.2838C15.8898 82.3442 15.4996 81.6203 15.2351 81.1122C15.1095 80.8755 15.0103 80.6876 14.9441 80.5484C14.9098 80.4853 14.8789 80.4203 14.8516 80.3535L14.964 80.5414L15.2748 81.0913L16.4518 83.2421C17.4702 85.1074 18.9316 87.815 20.717 91.1769C24.3011 97.8867 29.1746 107.186 34.5309 117.508C39.8871 127.83 46.0435 139.865 49.5879 146.595" fill="#E0E0E0"/>
    <path d="M17.4297 102.418C17.5882 102.44 17.7436 102.482 17.8926 102.543C18.1901 102.634 18.6134 102.78 19.1358 102.961C20.1739 103.33 21.6023 103.88 23.1629 104.52L27.1305 106.163L28.3406 106.657C28.4945 106.705 28.6431 106.77 28.7836 106.852C28.6233 106.832 28.4658 106.792 28.3141 106.734C28.0232 106.643 27.6 106.497 27.0776 106.309C26.0394 105.926 24.6177 105.355 23.0571 104.722L19.0498 103.107L17.8331 102.62C17.6925 102.567 17.5574 102.5 17.4297 102.418Z" fill="#E0E0E0"/>
    <path d="M29.2541 106.4C29.2012 106.4 30.1534 103.233 31.3767 99.3696C32.6001 95.5065 33.6316 92.4092 33.6845 92.4092C33.7374 92.4092 32.7918 95.5692 31.5685 99.4322C30.3451 103.295 29.3136 106.413 29.2541 106.4Z" fill="#E0E0E0"/>
    <path d="M36.7988 122.617C36.8657 122.459 36.9524 122.312 37.0567 122.179L37.8106 121.03C38.4718 120.056 39.3249 118.712 40.2374 117.188C41.15 115.664 41.9369 114.265 42.4923 113.242L43.1536 112.03C43.223 111.875 43.312 111.73 43.4181 111.599C43.3645 111.762 43.2982 111.92 43.2197 112.072C43.0875 112.371 42.8759 112.768 42.6114 113.318C42.089 114.362 41.2888 115.782 40.4027 117.306C39.5166 118.831 38.5909 120.167 37.923 121.121C37.5924 121.594 37.3146 121.97 37.1162 122.227C37.0233 122.368 36.9169 122.499 36.7988 122.617Z" fill="#E0E0E0"/>
    <path d="M25.3535 121.497C25.503 121.48 25.6537 121.48 25.8032 121.497L27.0265 121.566C28.0647 121.636 29.493 121.74 31.0669 121.873C32.6407 122.005 34.069 122.144 35.1006 122.249L36.3239 122.388C36.4739 122.396 36.6225 122.421 36.767 122.464C36.6175 122.481 36.4668 122.481 36.3173 122.464L35.094 122.395C34.0558 122.325 32.6275 122.221 31.0536 122.081C29.4798 121.942 28.0515 121.817 27.0199 121.713L25.7966 121.573C25.6464 121.568 25.4975 121.542 25.3535 121.497Z" fill="#E0E0E0"/>
    <path d="M30.2793 136.698C30.4729 136.68 30.6676 136.68 30.8612 136.698L32.4284 136.782C33.7509 136.858 35.5893 136.984 37.6128 137.13C39.6362 137.276 41.4613 137.429 42.7839 137.547L44.3511 137.701C44.5447 137.712 44.7371 137.74 44.9264 137.784C44.735 137.802 44.5424 137.802 44.3511 137.784L42.7772 137.701C41.4547 137.624 39.6164 137.499 37.5929 137.346C35.5694 137.192 33.7443 137.053 32.4218 136.935L30.8546 136.782C30.661 136.771 30.4686 136.743 30.2793 136.698Z" fill="#E0E0E0"/>
    <path d="M44.582 137.659C44.6693 137.461 44.7734 137.273 44.8928 137.095L45.8054 135.605C46.5724 134.345 47.6172 132.598 48.7282 130.629C49.8391 128.659 50.7979 126.863 51.4857 125.555C51.8163 124.928 52.094 124.406 52.299 124.002C52.3931 123.808 52.5014 123.622 52.623 123.446C52.5543 123.652 52.4703 123.852 52.3718 124.044C52.1998 124.42 51.9419 124.963 51.6179 125.631C50.9566 126.961 50.0176 128.777 48.9067 130.74C47.7958 132.703 46.7245 134.45 45.9244 135.689C45.5276 136.308 45.197 136.809 44.959 137.144C44.8484 137.327 44.7223 137.499 44.582 137.659Z" fill="#E0E0E0"/>
    <path d="M234.227 218.581L226.974 257.896L282.391 269.224L289.644 229.909L234.227 218.581Z" fill="#EBEBEB"/>
    <path d="M289.74 230.427C289.547 230.584 289.341 230.724 289.125 230.844L287.307 231.951L280.615 235.939L258.39 248.962L258.205 249.067L258.072 248.9L257.742 248.496L241.091 227.782L236.092 221.462L234.769 219.729C234.603 219.533 234.455 219.321 234.326 219.095C234.515 219.268 234.689 219.456 234.849 219.659L236.257 221.323L241.388 227.531C245.707 232.842 251.618 240.116 258.152 248.141L258.482 248.552L258.165 248.489L280.463 235.612L287.234 231.77C288.001 231.345 288.616 231.004 289.086 230.754C289.295 230.625 289.514 230.516 289.74 230.427Z" fill="#E0E0E0"/>
    <path d="M227.066 258.414C226.98 258.303 232.137 253.765 238.591 248.28C245.045 242.795 250.355 238.452 250.448 238.57C250.541 238.689 245.376 243.22 238.915 248.705C232.455 254.189 227.132 258.505 227.066 258.414Z" fill="#E0E0E0"/>
    <path d="M268.958 241.842C269.084 241.772 272.218 247.967 275.948 255.672C279.677 263.377 282.613 269.676 282.488 269.746C282.362 269.816 279.227 263.621 275.491 255.916C271.755 248.211 268.832 241.911 268.958 241.842Z" fill="#E0E0E0"/>
    <path d="M265.54 47.3547C265.227 47.4077 264.911 47.431 264.594 47.4243L261.883 47.48L251.898 47.5844L218.973 47.6819H216.328V47.3547C216.361 34.4084 216.394 22.7985 216.421 14.3416C216.46 10.1654 216.493 6.8314 216.52 4.42311C216.52 3.30945 216.56 2.41156 216.573 1.7364C216.562 1.42389 216.584 1.11109 216.639 0.803711C216.684 1.11221 216.704 1.42428 216.698 1.7364L216.751 4.42311C216.751 6.8314 216.811 10.2002 216.851 14.3416C216.851 22.7985 216.91 34.4084 216.943 47.3547L216.639 47.0276H218.986L251.911 47.125L261.896 47.2294L264.607 47.2921C264.919 47.2867 265.231 47.3076 265.54 47.3547Z" fill="#E0E0E0"/>
    <path d="M260.102 12.1074C259.655 12.6346 259.168 13.1234 258.647 13.5691L254.514 17.3903C251.009 20.5921 246.143 24.9772 240.74 29.7868L239.92 30.4828L239.708 30.6707L239.51 30.4759L233.38 24.483H233.744L224.764 32.3343L222.152 34.5268C221.856 34.8112 221.53 35.0588 221.18 35.2646C221.438 34.9407 221.726 34.6446 222.039 34.3806C222.692 33.7681 223.527 32.9909 224.546 32.0489L233.4 24.0514L233.592 23.8774L233.777 24.0653L239.933 30.0234H239.523L240.343 29.3274C245.746 24.5108 250.659 20.1815 254.23 17.0702L258.488 13.409C258.991 12.9293 259.531 12.4939 260.102 12.1074Z" fill="#E0E0E0"/>
    <path d="M260.103 22.8822C259.933 21.8225 259.862 20.7477 259.892 19.6734C259.832 17.6828 259.799 14.9195 259.793 11.843L260.103 12.1701H259.574C256.533 12.1701 253.782 12.1353 251.785 12.0727C250.704 12.1077 249.624 12.0307 248.558 11.843C249.624 11.6596 250.704 11.5827 251.785 11.6133C253.768 11.5576 256.533 11.5159 259.574 11.5159H260.414V11.843C260.414 14.9195 260.374 17.6828 260.322 19.6734C260.351 20.748 260.278 21.823 260.103 22.8822Z" fill="#E0E0E0"/>
    <path d="M8.56971 218.956C9.50212 218.353 10.5075 217.884 11.5586 217.564L12.1736 214.452L17.1662 214.355L17.887 217.445C18.9446 217.72 19.963 218.142 20.9156 218.698L23.4416 216.958L27.0323 220.612L25.4452 223.355C26.0172 224.332 26.462 225.385 26.7678 226.487L29.7236 227.134L29.8096 232.389L26.8802 233.148C26.6202 234.262 26.2198 235.334 25.6899 236.336L27.3431 238.995L23.8714 242.781L21.2925 241.132C20.3601 241.735 19.3547 242.203 18.3036 242.524L17.6886 245.635L12.696 245.732L11.9752 242.642C10.9172 242.368 9.89863 241.947 8.94664 241.389L6.4206 243.129L2.8233 239.475L4.39051 236.76C3.81746 235.779 3.37261 234.721 3.06797 233.614L0.112108 232.967L0.0195312 227.712L2.96217 226.939C3.22342 225.826 3.62366 224.754 4.15245 223.751L2.49928 221.093L5.97093 217.306L8.54988 218.956H8.56971ZM11.2148 225.958C10.4878 226.765 10.004 227.781 9.82405 228.877C9.64413 229.973 9.77623 231.1 10.2037 232.117C10.6312 233.134 11.3349 233.996 12.2264 234.593C13.1179 235.19 14.1572 235.496 15.2137 235.473C16.2701 235.45 17.2965 235.099 18.1635 234.463C19.0306 233.827 19.6996 232.936 20.0865 231.901C20.4734 230.866 20.5607 229.733 20.3376 228.646C20.1145 227.559 19.5908 226.566 18.8326 225.791C18.3244 225.274 17.7242 224.869 17.0666 224.598C16.4089 224.327 15.7068 224.195 15.0006 224.21C14.2944 224.226 13.5981 224.388 12.9518 224.688C12.3055 224.988 11.7219 225.42 11.2346 225.958H11.2148Z" fill="#E0E0E0"/>
    <path d="M11.2351 225.958C11.5139 225.597 11.8467 225.287 12.2204 225.039C13.2524 224.33 14.4873 224.022 15.7119 224.169C16.624 224.272 17.4965 224.617 18.248 225.171C18.9996 225.724 19.6058 226.469 20.0101 227.336C20.4915 228.364 20.6732 229.519 20.5325 230.656C20.3797 231.881 19.857 233.022 19.0415 233.911C18.2259 234.799 17.1606 235.388 16.0028 235.591C15.4576 235.685 14.9015 235.685 14.3563 235.591C13.8303 235.519 13.3176 235.364 12.8353 235.132C11.9978 234.738 11.2686 234.128 10.7159 233.357C10.1631 232.587 9.80486 231.681 9.67449 230.726C9.49169 229.44 9.742 228.128 10.382 227.016C10.6019 226.607 10.8859 226.24 11.2219 225.93C11.2219 225.93 10.8978 226.306 10.4812 227.079C9.90782 228.18 9.70066 229.451 9.89271 230.691C10.0185 231.538 10.3335 232.342 10.8119 233.037C11.3558 233.835 12.0935 234.465 12.9478 234.86C13.4077 235.077 13.8958 235.22 14.3959 235.285C14.9146 235.36 15.4413 235.348 15.9565 235.25C17.048 235.054 18.0513 234.496 18.8198 233.657C19.5884 232.818 20.0819 231.742 20.2283 230.587C20.3144 230.043 20.3144 229.488 20.2283 228.944C20.1529 228.421 20.0012 227.914 19.7786 227.441C19.372 226.554 18.7461 225.799 17.9668 225.255C17.2865 224.783 16.5087 224.49 15.6986 224.399C14.5162 224.236 13.3161 224.498 12.2931 225.144C11.5591 225.61 11.2615 225.993 11.2351 225.958Z" fill="#E0E0E0"/>
    <path d="M8.57002 218.956L8.4047 218.865L7.90875 218.566L5.96463 217.355H6.02414L2.57233 221.155V221.058L4.28501 223.703V223.751V223.8C3.7648 224.8 3.3713 225.867 3.11457 226.974V227.037H3.05505L0.12564 227.802L0.211605 227.691C0.244669 229.341 0.277733 231.102 0.310796 232.946L0.211605 232.821L3.17408 233.461H3.24682V233.538C3.54411 234.63 3.97771 235.676 4.53629 236.649L4.57597 236.719L4.53629 236.788L2.96248 239.538V239.357C4.09324 240.505 5.30997 241.744 6.55977 243.004H6.38123L8.90065 241.257L8.98001 241.208L9.05275 241.25C9.9813 241.801 10.9753 242.22 12.0086 242.496H12.0946V242.586C12.3194 243.554 12.5641 244.605 12.8154 245.67L12.6633 245.551L17.6624 245.454L17.5104 245.586C17.7087 244.598 17.9137 243.54 18.1253 242.475V242.377H18.2179C19.252 242.069 20.2418 241.614 21.1605 241.027L21.2399 240.978L21.3193 241.027L23.8982 242.677H23.7064L27.1781 238.89V239.092L25.5249 236.433L25.472 236.35L25.5183 236.266C26.0686 235.284 26.4891 234.228 26.7681 233.127V233.03H26.8607L29.7901 232.278L29.6777 232.431C29.6512 230.635 29.6248 228.881 29.5983 227.169L29.7107 227.315L26.7681 226.64H26.6887V226.556C26.3985 225.464 25.9692 224.417 25.4125 223.445L25.3662 223.369L25.4125 223.299L26.9797 220.584V220.751L23.3956 217.09H23.5411L20.9754 218.83L20.9225 218.872L20.863 218.837C19.9198 218.281 18.9102 217.859 17.8608 217.584H17.8013V217.522L17.0938 214.431L17.1797 214.501L12.1872 214.571L12.2533 214.515C12.002 215.754 11.7904 216.77 11.592 217.619C10.8032 217.851 10.0371 218.161 9.30403 218.545L8.7684 218.837L8.58986 218.935L8.75517 218.816C8.86759 218.74 9.04613 218.629 9.28419 218.496C10.0104 218.089 10.775 217.762 11.5656 217.522L11.5259 217.557C11.6912 216.708 11.8896 215.684 12.1276 214.445V214.39H12.1872L17.1797 214.278H17.2525V214.348C17.4839 215.301 17.722 216.311 17.9865 217.431L17.9071 217.355C18.9767 217.628 20.0065 218.052 20.9688 218.615H20.8564L23.3758 216.868L23.4551 216.812L23.5213 216.882L27.1252 220.529L27.1979 220.605L27.145 220.696L25.5844 223.417V223.271C26.1556 224.263 26.6003 225.331 26.907 226.445L26.8012 226.348L29.7636 226.988H29.8694V227.183C29.8959 228.89 29.9267 230.642 29.962 232.438V232.563H29.8496L26.9136 233.322L27.026 233.204C26.7613 234.331 26.3566 235.417 25.8225 236.433V236.273C26.3647 237.15 26.9202 238.034 27.4756 238.925L27.5418 239.036L27.4558 239.127L23.9908 242.913L23.9048 243.004L23.799 242.934L21.2201 241.292H21.3722C20.4292 241.897 19.4126 242.365 18.3502 242.684L18.4626 242.558C18.251 243.623 18.0394 244.688 17.8476 245.67V245.795H17.722L12.7294 245.885H12.6104V245.76L11.8962 242.67L12.0086 242.788C10.9366 242.509 9.90477 242.08 8.94033 241.514H9.09242L6.56638 243.254L6.46719 243.324L6.38784 243.24L2.79716 239.579L2.71781 239.503L2.77732 239.405C3.31956 238.459 3.85519 237.526 4.34452 236.691V236.83C3.77168 235.836 3.32694 234.766 3.02199 233.649L3.12118 233.746L0.165317 233.092H0.0727398V232.988C0.0462891 231.132 0.0220422 229.38 0 227.733V227.642H0.0793513L2.96248 226.835L2.88974 226.911C3.15608 225.791 3.56069 224.712 4.09324 223.703V223.8L2.44669 221.134V221.086L2.48636 221.037L5.97786 217.271L7.8823 218.517L8.37164 218.844L8.57002 218.956Z" fill="#E0E0E0"/>
    <path d="M44.5366 204.214C45.0942 203.859 45.6947 203.585 46.322 203.399L46.6923 201.534L49.6813 201.478L50.1111 203.33C50.7468 203.492 51.3586 203.745 51.9296 204.081L53.4373 203.037L55.5864 205.223L54.654 206.852C54.9912 207.439 55.2515 208.071 55.4277 208.731L57.1867 209.086L57.2396 212.232L55.4806 212.684C55.3271 213.352 55.0868 213.994 54.7664 214.592L55.7583 216.186L53.6819 218.448L52.1346 217.466C51.5756 217.818 50.9754 218.092 50.3492 218.281L49.9788 220.146L46.9899 220.202L46.5601 218.35C45.9261 218.189 45.3164 217.936 44.7482 217.599L43.2339 218.643L41.0848 216.457L42.0172 214.828C41.6827 214.24 41.4226 213.608 41.2435 212.949L39.4845 212.566L39.4316 209.42L41.1906 208.968C41.3452 208.298 41.5854 207.655 41.9048 207.054L40.9129 205.467L42.9893 203.204L44.5366 204.214ZM46.1303 208.39C45.6899 208.87 45.3946 209.477 45.282 210.134C45.1693 210.791 45.2442 211.469 45.4972 212.081C45.7502 212.693 46.1699 213.212 46.7034 213.573C47.2368 213.935 47.86 214.121 48.4942 214.109C49.1283 214.098 49.7449 213.888 50.266 213.508C50.7872 213.127 51.1894 212.593 51.4219 211.972C51.6544 211.351 51.7068 210.671 51.5723 210.018C51.4379 209.366 51.1227 208.77 50.6666 208.306C50.3636 207.998 50.0058 207.756 49.6138 207.593C49.2218 207.431 48.8032 207.351 48.382 207.359C47.9607 207.367 47.545 207.462 47.1587 207.639C46.7723 207.815 46.4229 208.071 46.1303 208.39Z" fill="#F5F5F5"/>
    <path d="M46.1302 208.39C46.2977 208.171 46.4988 207.982 46.7254 207.833C47.3471 207.413 48.0874 207.231 48.8216 207.318C49.3289 207.372 49.8164 207.553 50.2433 207.847C50.7378 208.195 51.135 208.675 51.3939 209.239C51.535 209.538 51.6331 209.857 51.6849 210.186C51.7378 210.529 51.7378 210.879 51.6849 211.223C51.5899 211.955 51.2759 212.636 50.7885 213.168C50.301 213.7 49.6654 214.055 48.9737 214.181C48.6474 214.236 48.3147 214.236 47.9884 214.181C47.6723 214.142 47.3642 214.051 47.0758 213.909C46.5451 213.652 46.0888 213.251 45.7533 212.747C45.4607 212.308 45.2704 211.802 45.1978 211.271C45.0907 210.502 45.2403 209.717 45.621 209.051C45.7517 208.806 45.9217 208.587 46.1236 208.404C46.1236 208.404 45.9318 208.619 45.6806 209.1C45.3388 209.76 45.2155 210.522 45.3301 211.264C45.4108 211.809 45.6212 212.323 45.9414 212.758C46.2617 213.194 46.6815 213.537 47.1618 213.756C47.4338 213.889 47.7238 213.976 48.0214 214.014C48.3325 214.066 48.6494 214.066 48.9604 214.014C49.6127 213.896 50.2123 213.563 50.6725 213.062C51.1326 212.562 51.4293 211.92 51.5195 211.23C51.5693 210.905 51.5693 210.573 51.5195 210.248C51.4714 209.934 51.3801 209.63 51.2484 209.343C51.0013 208.815 50.6274 208.364 50.1639 208.035C49.663 207.686 49.0786 207.494 48.4783 207.481C47.878 207.467 47.2863 207.633 46.7716 207.958C46.5494 208.088 46.3352 208.232 46.1302 208.39Z" fill="#F5F5F5"/>
    <path d="M44.5359 204.214L44.4367 204.158L44.1391 203.977C43.868 203.81 43.4779 203.574 42.9753 203.281L40.9122 205.557V205.495C41.2163 205.975 41.5734 206.511 41.9107 207.082C41.5993 207.68 41.3636 208.319 41.2097 208.982V209.017L39.4574 209.476L39.5037 209.406C39.5037 210.395 39.5433 211.446 39.5632 212.552L39.5103 212.476L41.2759 212.866H41.3155V212.914C41.4945 213.567 41.7547 214.192 42.0892 214.773V214.815V214.856C41.7983 215.364 41.4808 215.921 41.1502 216.485V216.381C41.8115 217.077 42.5587 217.773 43.3059 218.566H43.2001L44.7078 217.522H44.7541H44.8004C45.3649 217.849 45.9673 218.097 46.5924 218.26H46.6453V218.316C46.7842 218.893 46.9297 219.527 47.0752 220.16L46.9892 220.09L49.9781 220.035L49.8922 220.111C50.0046 219.52 50.1302 218.886 50.2559 218.246V218.19H50.3088C50.9293 218.007 51.5233 217.735 52.0743 217.383H52.1272H52.1735L53.7143 218.364H53.6019L55.6782 216.095V216.214L54.6863 214.627V214.578V214.529C55.0033 213.938 55.2414 213.303 55.3939 212.643V212.587H55.4468L57.2058 212.135L57.1396 212.225C57.1396 211.153 57.1396 210.102 57.0867 209.079L57.1529 209.163L55.3873 208.773H55.3344V208.717C55.1608 208.064 54.9027 207.438 54.5673 206.859V206.817V206.768L55.5129 205.147V205.244L53.3704 203.058H53.4564L51.9421 204.096C51.3771 203.763 50.7721 203.513 50.1434 203.351V203.316C49.9914 202.62 49.8525 202.035 49.7202 201.465L49.7731 201.506L46.7842 201.548L46.8239 201.513C46.6718 202.258 46.5462 202.905 46.447 203.379C45.9765 203.516 45.5202 203.703 45.0847 203.935L44.7607 204.109L44.6549 204.165L44.7541 204.096C44.8202 204.054 44.926 203.984 45.0715 203.908C45.5054 203.662 45.9618 203.464 46.4337 203.316C46.5329 202.808 46.6453 202.195 46.7908 201.451V201.416L49.7797 201.346H49.8194V201.388C49.9517 201.959 50.0972 202.564 50.2559 203.232L50.2096 203.191C50.8491 203.355 51.465 203.608 52.0413 203.942H51.8958L53.4035 202.898H53.4498L53.4895 202.94C54.1507 203.636 54.8913 204.332 55.6452 205.126L55.6915 205.167V205.223C55.3873 205.752 55.0831 206.295 54.7591 206.852V206.761C55.1011 207.357 55.3658 207.999 55.546 208.669L55.4865 208.606L57.2587 208.989H57.3248V209.058C57.3248 210.088 57.3248 211.146 57.3777 212.211V212.281H57.3116L55.5592 212.733L55.6187 212.664C55.4631 213.34 55.2207 213.991 54.898 214.599V214.501L55.8899 216.088L55.9295 216.151L55.8766 216.207L53.8002 218.476L53.7473 218.531L53.6878 218.49L52.1405 217.501H52.233C51.67 217.861 51.0625 218.137 50.4278 218.323L50.4939 218.253C50.3617 218.893 50.236 219.527 50.1236 220.111V220.188H50.0509L47.0553 220.244H46.9826V220.174C46.8371 219.534 46.685 218.9 46.5528 218.323L46.6189 218.392C45.9778 218.223 45.3599 217.968 44.7806 217.633H44.8731L43.2993 218.747L43.2464 218.782L43.1935 218.733L41.0444 216.548L40.9981 216.499V216.436C41.3287 215.872 41.6594 215.316 41.9371 214.815V214.898C41.5974 214.304 41.3349 213.665 41.1568 212.998L41.2163 213.054L39.4441 212.664H39.3912V212.566C39.3912 211.467 39.3912 210.409 39.3516 209.42V209.365H39.4045L41.1634 208.919L41.1171 208.968C41.2775 208.296 41.5221 207.65 41.8445 207.047V207.102L40.8593 205.508V205.474L42.9489 203.225L44.0928 203.97L44.3838 204.165L44.5359 204.214Z" fill="#F5F5F5"/>
    <path d="M54.1451 286.631L52.7829 280.785C50.7786 280.27 48.8499 279.472 47.0497 278.411L42.2555 281.717L35.4246 274.757L38.3871 269.613C37.3205 267.756 36.4954 265.757 35.9338 263.669L30.3196 262.437L30.1543 252.449L35.7089 251.015C36.2141 248.895 36.9881 246.856 38.0101 244.953L34.8691 239.906L41.4818 232.716L46.3686 235.842C48.1363 234.72 50.0374 233.849 52.0224 233.252L53.1862 227.35L62.6754 227.169L64.031 233.016C66.0355 233.536 67.9656 234.334 69.7708 235.389L74.5584 232.083L81.3827 239.043L78.4202 244.187C79.4868 246.047 80.3119 248.048 80.8735 250.138L86.4876 251.37L86.653 261.351L81.0983 262.785C80.6025 264.892 79.8442 266.922 78.8434 268.82L81.9844 273.859L75.3717 281.042L70.4651 277.994C68.6985 279.116 66.797 279.985 64.8113 280.576L63.6475 286.485L54.1451 286.631ZM47.0431 278.356C48.8468 279.415 50.7772 280.216 52.7829 280.736L54.1451 286.576L63.5946 286.402L64.7584 280.506C66.7466 279.913 68.6503 279.042 70.4188 277.917L75.3056 281.035L81.8654 273.88L78.731 268.841C79.7368 266.939 80.4974 264.905 80.9925 262.792L86.5471 261.4L86.3818 251.454L80.8404 250.152C80.2762 248.06 79.4489 246.056 78.3805 244.194L81.343 239.05L74.5385 232.146L69.751 235.445C67.9458 234.39 66.0157 233.592 64.0112 233.071L62.6291 227.183L53.1796 227.357L52.0158 233.252C50.0241 233.841 48.1177 234.712 46.3487 235.842L41.4421 232.751L34.8824 239.906L38.0101 244.953C37.0043 246.854 36.2437 248.888 35.7486 251.001L30.194 252.435L30.3593 262.381L35.9668 263.607C36.5335 265.698 37.3607 267.701 38.4267 269.565L35.4709 274.701L42.2687 281.613L47.0431 278.356ZM58.6946 267.296C56.6957 267.295 54.7413 266.675 53.0749 265.513C51.4085 264.351 50.1037 262.699 49.3232 260.762C48.5427 258.825 48.321 256.689 48.6858 254.621C49.0505 252.552 49.9856 250.642 51.3744 249.129C52.303 248.116 53.4123 247.305 54.6389 246.744C55.8655 246.182 57.1853 245.881 58.5226 245.858H58.7078C61.3659 245.901 63.9024 247.037 65.7755 249.023C67.6486 251.009 68.7097 253.687 68.7321 256.485C68.7546 259.283 67.7366 261.979 65.8956 263.998C64.0547 266.017 61.5368 267.198 58.8797 267.289L58.6946 267.296ZM51.4206 249.143C50.041 250.65 49.1124 252.551 48.75 254.609C48.3877 256.667 48.6075 258.791 49.3823 260.719C50.157 262.646 51.4526 264.292 53.1081 265.451C54.7636 266.61 56.7062 267.232 58.6946 267.24H58.8797C61.5281 267.149 64.0377 265.972 65.8726 263.96C67.7074 261.947 68.7219 259.26 68.6995 256.471C68.677 253.682 67.6194 251.013 65.7524 249.033C63.8854 247.054 61.3572 245.922 58.7078 245.878H58.5094C57.1765 245.898 55.8604 246.195 54.6378 246.755C53.4152 247.314 52.3104 248.123 51.3876 249.136L51.4206 249.143Z" fill="#E0E0E0"/>
    <path d="M51.3875 249.143C51.9221 248.455 52.5611 247.865 53.2787 247.396C55.2361 246.06 57.5724 245.477 59.8914 245.747C61.6218 245.941 63.2771 246.595 64.7029 247.645C66.1287 248.695 67.2784 250.109 68.0448 251.753C68.4947 252.701 68.8068 253.715 68.9706 254.76C69.1536 255.848 69.1714 256.959 69.0235 258.052C68.736 260.377 67.7446 262.542 66.1961 264.227C64.6477 265.912 62.6248 267.027 60.427 267.407C58.3889 267.772 56.2938 267.488 54.4095 266.593C52.8232 265.845 51.4422 264.687 50.3948 263.226C49.3475 261.766 48.6676 260.051 48.4184 258.24C48.0751 255.804 48.5423 253.318 49.741 251.203C50.1614 250.431 50.6998 249.738 51.3346 249.15C50.8347 249.849 50.369 250.573 49.9393 251.322C48.846 253.408 48.4501 255.82 48.8152 258.171C49.076 259.895 49.7436 261.523 50.7567 262.906C51.7699 264.288 53.0962 265.381 54.6145 266.085C56.4029 266.921 58.3871 267.177 60.3146 266.823C62.3866 266.452 64.2917 265.393 65.7514 263.801C67.2112 262.21 68.1492 260.169 68.4284 257.976C68.6935 255.938 68.3806 253.863 67.529 252.011C66.8083 250.438 65.7242 249.08 64.376 248.063C63.0278 247.045 61.4586 246.399 59.8121 246.185C57.5691 245.875 55.2921 246.365 53.3449 247.577C52.6682 248.065 52.0149 248.587 51.3875 249.143Z" fill="#E0E0E0"/>
    <path d="M46.3351 235.863L46.0177 235.682L45.0787 235.111L41.3888 232.821H41.5079L34.9613 240.039V239.844L38.1222 244.876L38.1751 244.967L38.1288 245.057C37.1366 246.949 36.3872 248.971 35.9003 251.071V251.189H35.7879L30.2266 252.644L30.3854 252.428C30.4449 255.567 30.511 258.901 30.5771 262.395L30.392 262.166L36.026 263.377H36.1714L36.2111 263.53C36.777 265.6 37.5997 267.582 38.6578 269.425L38.7372 269.558L38.6578 269.697L35.6953 274.855L35.6557 274.513L42.4469 281.474H42.1096L46.8906 278.161L47.0361 278.063L47.1815 278.154C48.9679 279.197 50.878 279.986 52.8618 280.499L53.0271 280.541L53.0668 280.715C53.4966 282.553 53.9661 284.55 54.4356 286.569L54.1513 286.339L63.6272 286.165L63.3495 286.409C63.7198 284.543 64.1166 282.532 64.5133 280.506L64.553 280.318L64.7183 280.27C66.682 279.682 68.5631 278.823 70.3127 277.715L70.4647 277.625L70.6168 277.722L75.5102 280.84L75.1531 280.889L81.7658 273.72L81.7327 274.096C80.6813 272.398 79.6299 270.72 78.5983 269.057L78.5058 268.903L78.5851 268.743C79.581 266.864 80.3349 264.853 80.8268 262.764L80.8665 262.59L81.0318 262.549L86.5931 261.122L86.3814 261.407C86.3285 258.006 86.2778 254.681 86.2294 251.433L86.441 251.704L80.8334 250.472L80.6813 250.438L80.635 250.277C80.0789 248.205 79.2627 246.22 78.2082 244.375L78.1288 244.236L78.2082 244.097C79.2331 242.336 80.192 240.616 81.1839 238.953L81.2236 239.266L74.4191 232.306H74.6969L69.9027 235.598L69.7969 235.668L69.6844 235.605C67.8962 234.547 65.9813 233.747 63.9909 233.225H63.8785V233.106L62.556 227.246L62.7279 227.385L53.252 227.517L53.3776 227.406C52.8949 229.758 52.4981 231.693 52.1741 233.301V233.364H52.1212C50.6252 233.794 49.1742 234.382 47.7899 235.118L46.7649 235.675C46.6584 235.748 46.5455 235.811 46.4277 235.863C46.5253 235.774 46.6317 235.697 46.7451 235.633C46.9633 235.494 47.2873 235.285 47.7436 235.027C49.1195 234.252 50.569 233.632 52.0683 233.176L52.0022 233.245C52.313 231.638 52.6634 229.696 53.1329 227.336V227.232H53.2387L62.7147 227.016H62.8469V227.155C63.2768 228.965 63.7264 230.879 64.229 233.002L64.0901 232.856C66.118 233.375 68.0707 234.178 69.8961 235.243H69.6778L74.4588 231.923L74.6109 231.825L74.7365 231.951L81.5674 238.869L81.7063 239.009L81.6071 239.183C80.6483 240.86 79.663 242.572 78.6446 244.34V244.069C79.7276 245.949 80.5661 247.974 81.1376 250.09L80.9392 249.895L86.5468 251.12L86.7584 251.161V251.391C86.8113 254.639 86.8686 257.964 86.9303 261.365V261.595L86.7121 261.651L81.1508 263.091L81.3558 262.876C80.8597 265.016 80.0923 267.076 79.0744 269.001V268.688L82.2155 273.727L82.3411 273.929L82.1824 274.103L75.6028 281.286L75.4441 281.46L75.2457 281.335L70.3457 278.209H70.6433C68.8518 279.349 66.9237 280.231 64.9101 280.833L65.1151 280.597C64.7183 282.629 64.315 284.641 63.9513 286.499L63.8984 286.743H63.6669L54.1976 286.917H53.9661L53.9132 286.687C53.4437 284.669 52.9808 282.664 52.551 280.833L52.7626 281.049C50.7302 280.518 48.7735 279.706 46.9435 278.634H47.2278L42.4402 281.933L42.2551 282.059L42.103 281.905L35.292 274.945L35.1399 274.792L35.2523 274.604L38.228 269.46V269.732C37.1486 267.846 36.3146 265.816 35.7482 263.697L35.9268 263.878L30.2928 262.681L30.1142 262.639V262.451C30.0613 258.971 30.015 255.616 29.9688 252.477V252.24L30.1275 252.199L35.6953 250.806L35.5565 250.953C36.0641 248.825 36.8356 246.778 37.8511 244.862V245.05L34.7365 239.997L34.6704 239.893L34.7497 239.802L41.3624 232.668L41.4087 232.612L41.4748 232.654L45.0787 235.013L46.0111 235.633C46.1265 235.697 46.2351 235.774 46.3351 235.863Z" fill="#E0E0E0"/>
    <path d="M235.671 17.8522L37.4023 33.2876L56.1194 299.658L254.388 284.222L235.671 17.8522Z" fill="white"/>
    <path d="M55.8638 300.023V299.675L37.0508 32.9886H37.3814L235.98 17.46V17.808L254.74 284.523H254.409L55.8638 300.023ZM37.7583 33.6011L56.4457 299.279L254.052 283.882L235.365 18.2047L37.7583 33.6011Z" fill="#263238"/>
    <path d="M218.176 29.4757L164.759 33.6343L165.012 37.2438L218.429 33.0853L218.176 29.4757Z" fill="#005FFF"/>
    <path d="M217.538 57.1826L217.214 57.2453L216.268 57.3497L212.803 57.6838L201.343 58.6861C196.866 59.0689 192.819 59.3821 189.883 59.577L186.405 59.7928L185.46 59.8345C185.35 59.8468 185.239 59.8468 185.129 59.8345C185.233 59.7968 185.343 59.7757 185.453 59.7719L186.399 59.6605L189.864 59.3334L201.343 58.3241C205.813 57.9344 209.86 57.6281 212.796 57.4262L216.275 57.2105L217.22 57.1687C217.326 57.1551 217.433 57.1598 217.538 57.1826Z" fill="#005FFF"/>
    <path d="M220.738 70.79C220.738 70.8944 209.099 71.8828 194.73 73.0034C180.361 74.124 168.696 74.9454 168.689 74.8479C168.683 74.7505 180.328 73.7621 194.704 72.6415C209.08 71.5209 220.731 70.6926 220.738 70.79Z" fill="#263238"/>
    <path d="M221.617 88.1426C221.617 88.247 209.979 89.2353 195.609 90.3559C181.24 91.4766 169.602 92.3049 169.602 92.2005C169.602 92.096 181.24 91.1146 195.616 89.994C209.992 88.8734 221.61 88.0451 221.617 88.1426Z" fill="#263238"/>
    <path d="M221.617 79.4698C221.617 79.5672 209.979 80.5556 195.609 81.6762C181.24 82.7968 169.602 83.6251 169.602 83.5277C169.602 83.4302 181.24 82.4349 195.616 81.3143C209.992 80.1936 221.61 79.3723 221.617 79.4698Z" fill="#263238"/>
    <path d="M112.37 200.97C112.37 201.067 106.339 201.624 98.8866 202.202C91.4342 202.78 85.3836 203.176 85.377 203.072C85.3703 202.968 91.4077 202.425 98.8602 201.84C106.313 201.255 112.363 200.873 112.37 200.97Z" fill="#005FFF"/>
    <path d="M101.088 217.647C101.088 217.751 93.0073 218.461 83.0222 219.241C73.0371 220.02 64.9431 220.563 64.9365 220.466C64.9299 220.368 73.0106 219.658 83.0023 218.879C92.9941 218.099 101.081 217.549 101.088 217.647Z" fill="#005FFF"/>
    <path d="M166.957 219.06C166.957 219.157 144.236 221.009 116.198 223.194C88.1605 225.38 65.4129 227.071 65.4063 226.974C65.3996 226.876 88.1208 225.018 116.172 222.832C144.223 220.647 166.957 218.962 166.957 219.06Z" fill="#263238"/>
    <path d="M102.227 233.83C102.227 233.928 94.146 234.638 84.1675 235.417C74.1889 236.197 66.0818 236.747 66.0752 236.642C66.0686 236.538 74.1559 235.835 84.141 235.055C94.1261 234.276 102.22 233.726 102.227 233.83Z" fill="#005FFF"/>
    <path d="M168.081 235.236C168.081 235.341 145.36 237.192 117.322 239.378C89.2845 241.563 66.5369 243.248 66.5303 243.15C66.5237 243.053 89.2448 241.201 117.296 239.016C145.347 236.83 168.074 235.139 168.081 235.236Z" fill="#263238"/>
    <path d="M103.363 250.006C103.363 250.103 95.2827 250.813 85.3042 251.593C75.3257 252.372 67.2185 252.922 67.2119 252.825C67.2053 252.727 75.2926 252.01 85.2777 251.231C95.2629 250.451 103.357 249.901 103.363 250.006Z" fill="#005FFF"/>
    <path d="M169.219 251.412C169.219 251.516 146.498 253.368 118.46 255.553C90.4222 257.739 67.6746 259.43 67.668 259.326C67.6614 259.222 90.3825 257.377 118.433 255.191C146.484 253.006 169.212 251.315 169.219 251.412Z" fill="#263238"/>
    <path d="M105.875 266.384C105.875 266.481 97.7877 267.191 87.8092 267.971C77.8307 268.75 69.75 269.3 69.75 269.196C69.75 269.091 77.8307 268.388 87.8158 267.609C97.801 266.829 105.862 266.279 105.875 266.384Z" fill="#005FFF"/>
    <path d="M171.731 267.79C171.731 267.894 149.003 269.745 120.966 271.966C92.928 274.186 70.1804 275.843 70.1738 275.738C70.1672 275.634 92.895 273.789 120.939 271.604C148.984 269.418 171.718 267.692 171.731 267.79Z" fill="#263238"/>
    <path d="M78.5933 197.752L66.1953 198.718L66.7777 207.006L79.1756 206.04L78.5933 197.752Z" fill="#005FFF"/>
    <path d="M75.4614 206.334L70.4824 206.722L70.6648 209.318L75.6438 208.93L75.4614 206.334Z" fill="#005FFF"/>
    <path d="M77.5603 208.682C76.1934 208.995 74.8045 209.188 73.4075 209.26C72.0203 209.453 70.62 209.523 69.2217 209.469C70.5891 209.161 71.9778 208.97 73.3744 208.898C74.762 208.709 76.1618 208.637 77.5603 208.682Z" fill="#005FFF"/>
    <path d="M178.774 188.33L186.524 183.855L194.155 186.903L187.007 191.636L178.774 188.33Z" fill="#005FFF"/>
    <path d="M180.632 190.202L180.943 195.283L192.885 194.177L192.475 189.277L186.96 192.785L180.632 190.202Z" fill="#005FFF"/>
    <path d="M227.794 189.319C227.794 189.423 221.763 189.973 214.31 190.551C206.858 191.128 200.807 191.525 200.801 191.428C200.794 191.33 206.832 190.773 214.284 190.189C221.737 189.604 227.794 189.221 227.794 189.319Z" fill="#005FFF"/>
    <path d="M200.106 206.789C200.106 206.886 195.96 207.29 190.848 207.687C185.737 208.084 181.557 208.334 181.551 208.23C181.544 208.125 185.697 207.729 190.809 207.325C195.92 206.921 200.099 206.685 200.106 206.789Z" fill="#263238"/>
    <path d="M234.169 211.174C234.169 211.279 222.511 212.267 208.121 213.388C193.732 214.508 182.048 215.336 182.041 215.239C182.034 215.142 193.699 214.146 208.095 213.026C222.491 211.905 234.162 211.105 234.169 211.174Z" fill="#263238"/>
    <path d="M201.494 224.858C201.494 224.962 197.355 225.366 192.236 225.763C187.118 226.16 182.979 226.41 182.946 226.306C182.912 226.201 187.085 225.805 192.203 225.401C197.321 224.997 201.487 224.761 201.494 224.858Z" fill="#263238"/>
    <path d="M235.556 229.271C235.556 229.375 223.898 230.364 209.509 231.484C195.12 232.605 183.442 233.433 183.429 233.336C183.415 233.238 195.087 232.243 209.483 231.122C223.878 230.002 235.55 229.18 235.556 229.271Z" fill="#263238"/>
    <path d="M202.552 242.719C202.552 242.823 198.406 243.227 193.295 243.623C188.183 244.02 184.037 244.264 183.997 244.166C183.958 244.069 188.143 243.665 193.255 243.262C198.367 242.858 202.546 242.621 202.552 242.719Z" fill="#263238"/>
    <path d="M236.615 247.138C236.615 247.243 224.957 248.231 210.568 249.352C196.179 250.472 184.494 251.3 184.487 251.203C184.481 251.106 196.145 250.11 210.541 248.99C224.937 247.869 236.608 247.041 236.615 247.138Z" fill="#263238"/>
    <path d="M204.444 261.609C204.444 261.707 200.305 262.11 195.186 262.514C190.068 262.918 185.929 263.154 185.896 263.057C185.863 262.959 190.035 262.549 195.153 262.152C200.272 261.755 204.438 261.512 204.444 261.609Z" fill="#263238"/>
    <path d="M238.506 266.029C238.506 266.126 226.848 267.115 212.459 268.242C198.069 269.37 186.391 270.191 186.385 270.087C186.378 269.982 198.036 269.001 212.432 267.88C226.828 266.76 238.499 265.924 238.506 266.029Z" fill="#263238"/>
    <path d="M174.515 56.6537C175.035 56.361 175.463 55.9143 175.745 55.3689C176.027 54.8234 176.151 54.203 176.102 53.5842C176.101 53.175 176.021 52.7704 175.866 52.3953C175.71 52.0202 175.484 51.6827 175.199 51.4038C174.915 51.1248 174.579 50.9103 174.213 50.7736C173.846 50.6369 173.457 50.581 173.069 50.6092C172.682 50.6374 172.304 50.7491 171.959 50.9375C171.613 51.126 171.309 51.387 171.064 51.7045C170.819 52.022 170.638 52.3891 170.533 52.7831C170.428 53.1771 170.402 53.5895 170.455 53.9948C170.492 54.6119 170.699 55.204 171.052 55.6986C171.404 56.1932 171.886 56.5687 172.438 56.779C168.147 57.8022 168.696 62.758 168.696 62.758L178.965 62.0062C178.965 62.0062 178.859 57.0087 174.515 56.6537Z" fill="#005FFF"/>
    <path d="M191.246 126.828C191.246 126.933 187.073 127.336 181.908 127.74C176.744 128.144 172.552 128.387 172.545 128.29C172.538 128.193 176.718 127.782 181.882 127.378C187.047 126.974 191.239 126.731 191.246 126.828Z" fill="#263238"/>
    <path d="M191.954 135.522C191.954 135.619 187.781 136.03 182.616 136.434C177.452 136.837 173.26 137.081 173.253 136.977C173.246 136.872 177.426 136.468 182.59 136.072C187.755 135.675 191.947 135.424 191.954 135.522Z" fill="#263238"/>
    <path d="M228.229 124.97L197.811 127.344C197.539 127.365 197.269 127.271 197.062 127.083C196.855 126.895 196.727 126.628 196.707 126.341C196.687 126.054 196.776 125.771 196.954 125.553C197.133 125.335 197.386 125.2 197.659 125.179L228.077 122.805C228.213 122.794 228.349 122.811 228.478 122.855C228.606 122.9 228.726 122.971 228.828 123.064C228.931 123.157 229.015 123.271 229.076 123.399C229.137 123.526 229.173 123.665 229.182 123.808C229.193 123.95 229.176 124.093 229.134 124.229C229.092 124.365 229.025 124.49 228.936 124.598C228.848 124.706 228.74 124.795 228.618 124.859C228.497 124.923 228.365 124.96 228.229 124.97Z" fill="#E0E0E0"/>
    <path d="M223.786 125.318L197.792 127.343C197.519 127.365 197.25 127.271 197.042 127.083C196.835 126.895 196.708 126.628 196.687 126.341C196.667 126.054 196.756 125.77 196.935 125.553C197.113 125.335 197.367 125.2 197.64 125.179L223.634 123.153C223.907 123.132 224.176 123.226 224.383 123.414C224.59 123.602 224.718 123.869 224.738 124.156C224.757 124.442 224.667 124.725 224.489 124.942C224.31 125.16 224.058 125.295 223.786 125.318Z" fill="#005FFF"/>
    <path d="M228.805 133.148L198.387 135.515C198.114 135.536 197.845 135.442 197.638 135.254C197.431 135.066 197.303 134.8 197.283 134.513C197.264 134.226 197.354 133.943 197.532 133.726C197.71 133.508 197.963 133.373 198.235 133.35L228.653 130.984C228.788 130.972 228.924 130.989 229.053 131.034C229.182 131.078 229.301 131.149 229.404 131.242C229.507 131.335 229.591 131.449 229.652 131.577C229.712 131.704 229.748 131.844 229.757 131.986C229.777 132.273 229.688 132.557 229.51 132.775C229.331 132.993 229.078 133.127 228.805 133.148Z" fill="#E0E0E0"/>
    <path d="M219.726 133.851L198.367 135.515C198.095 135.536 197.825 135.442 197.618 135.254C197.411 135.066 197.283 134.799 197.263 134.512C197.245 134.226 197.334 133.943 197.513 133.726C197.691 133.508 197.943 133.373 198.215 133.35L219.574 131.687C219.847 131.665 220.116 131.759 220.323 131.947C220.531 132.135 220.658 132.402 220.679 132.689C220.699 132.976 220.61 133.259 220.431 133.477C220.252 133.695 219.999 133.83 219.726 133.851Z" fill="#005FFF"/>
    <path d="M192.852 144.396C192.852 144.494 188.679 144.904 183.515 145.301C178.35 145.698 174.158 145.948 174.151 145.851C174.145 145.754 178.324 145.343 183.488 144.939C188.653 144.535 192.845 144.292 192.852 144.396Z" fill="#263238"/>
    <path d="M193.56 153.083C193.56 153.187 189.387 153.591 184.223 153.995C179.058 154.398 174.866 154.642 174.859 154.544C174.853 154.447 179.032 154.036 184.196 153.633C189.361 153.229 193.553 152.985 193.56 153.083Z" fill="#263238"/>
    <path d="M229.836 142.531L199.418 144.904C199.145 144.925 198.875 144.832 198.668 144.644C198.461 144.456 198.334 144.189 198.313 143.902C198.293 143.615 198.382 143.331 198.561 143.113C198.739 142.895 198.993 142.761 199.266 142.74L229.684 140.366C229.956 140.345 230.226 140.439 230.433 140.627C230.64 140.815 230.768 141.081 230.788 141.368C230.799 141.511 230.783 141.654 230.741 141.79C230.699 141.925 230.631 142.051 230.543 142.159C230.454 142.267 230.346 142.356 230.225 142.42C230.103 142.483 229.971 142.521 229.836 142.531Z" fill="#E0E0E0"/>
    <path d="M225.386 142.879L199.398 144.904C199.125 144.925 198.856 144.832 198.649 144.644C198.442 144.456 198.314 144.189 198.294 143.902C198.274 143.615 198.363 143.331 198.541 143.113C198.72 142.895 198.973 142.761 199.246 142.74L225.234 140.714C225.506 140.693 225.776 140.787 225.983 140.975C226.19 141.163 226.318 141.429 226.338 141.716C226.349 141.859 226.333 142.002 226.291 142.138C226.249 142.273 226.181 142.399 226.093 142.507C226.004 142.615 225.896 142.704 225.775 142.767C225.653 142.831 225.521 142.869 225.386 142.879Z" fill="#005FFF"/>
    <path d="M230.437 150.709L200.019 153.083C199.747 153.104 199.477 153.01 199.27 152.822C199.063 152.634 198.935 152.368 198.915 152.081C198.895 151.794 198.984 151.51 199.162 151.292C199.341 151.074 199.594 150.94 199.867 150.918L230.285 148.545C230.558 148.524 230.828 148.617 231.035 148.805C231.242 148.993 231.369 149.26 231.39 149.547C231.41 149.834 231.321 150.118 231.142 150.336C230.964 150.554 230.71 150.688 230.437 150.709Z" fill="#E0E0E0"/>
    <path d="M221.333 151.419L199.974 153.083C199.702 153.104 199.432 153.01 199.225 152.822C199.018 152.634 198.89 152.368 198.87 152.081C198.85 151.794 198.939 151.51 199.118 151.292C199.296 151.074 199.55 150.94 199.822 150.918L221.181 149.227C221.454 149.206 221.723 149.299 221.93 149.487C222.137 149.675 222.265 149.942 222.285 150.229C222.299 150.373 222.285 150.519 222.244 150.658C222.203 150.796 222.137 150.925 222.048 151.036C221.959 151.147 221.85 151.238 221.727 151.304C221.605 151.37 221.471 151.409 221.333 151.419Z" fill="#005FFF"/>
    <path d="M194.623 162.347C194.623 162.452 190.444 162.855 185.28 163.259C180.115 163.663 175.923 163.906 175.916 163.809C175.909 163.711 180.089 163.301 185.253 162.897C190.418 162.493 194.617 162.25 194.623 162.347Z" fill="#263238"/>
    <path d="M231.609 160.489L201.19 162.855C200.918 162.876 200.648 162.783 200.441 162.595C200.234 162.407 200.106 162.14 200.086 161.853C200.069 161.567 200.16 161.285 200.338 161.068C200.515 160.851 200.767 160.715 201.038 160.691L231.456 158.324C231.73 158.303 232 158.396 232.208 158.584C232.416 158.772 232.545 159.039 232.567 159.326C232.586 159.614 232.495 159.898 232.315 160.115C232.136 160.333 231.882 160.467 231.609 160.489Z" fill="#E0E0E0"/>
    <path d="M218.054 161.54L201.165 162.855C200.892 162.877 200.623 162.783 200.416 162.595C200.209 162.407 200.081 162.14 200.061 161.853C200.044 161.567 200.134 161.285 200.312 161.068C200.49 160.851 200.741 160.716 201.013 160.691L217.875 159.375C218.147 159.356 218.416 159.45 218.623 159.638C218.829 159.826 218.957 160.091 218.979 160.378C219 160.66 218.914 160.94 218.741 161.157C218.568 161.374 218.322 161.512 218.054 161.54Z" fill="#005FFF"/>
    <path d="M181.122 117.975L180.05 115.991C180.727 114.863 180.978 113.51 180.754 112.197C180.531 110.884 179.848 109.707 178.841 108.897C177.834 108.087 176.575 107.704 175.313 107.822C174.05 107.941 172.876 108.552 172.02 109.536C171.165 110.52 170.691 111.806 170.69 113.14C170.69 114.473 171.165 115.759 172.02 116.743C172.875 117.728 174.05 118.339 175.312 118.457C176.574 118.576 177.833 118.193 178.84 117.383L181.122 117.975Z" fill="#005FFF"/>
    <path d="M220.209 110.423C220.209 110.527 213.166 111.16 204.458 111.815C195.749 112.469 188.686 112.963 188.68 112.866C188.673 112.768 195.722 112.135 204.431 111.474C213.14 110.812 220.202 110.325 220.209 110.423Z" fill="#005FFF"/>
    <path d="M41.376 33.2533L54.0062 190.523L165.45 181.795L153.414 24.2466L41.376 33.2533Z" fill="#EBEBEB"/>
    <path d="M156.268 19.6841L45.8164 27.8223L56.3202 185.767L166.772 177.629L156.268 19.6841Z" fill="#FAFAFA"/>
    <path d="M56.5257 185.289V184.941L45.4297 27.0792H45.7537L156.232 18.4414V18.7894L167.334 176.651H167.004L56.5257 185.289ZM46.1372 27.7196L57.187 184.544L166.673 176.01L155.623 19.1931L46.1372 27.7196Z" fill="#263238"/>
    <path d="M133.768 42.6636C133.745 42.5769 133.73 42.4884 133.721 42.3991C133.721 42.2042 133.662 41.9467 133.615 41.6195C133.529 40.9235 133.404 39.9003 133.252 38.6127C133.1 37.325 132.908 35.6963 132.69 33.8448C132.602 32.8576 132.458 31.8768 132.26 30.9075C132.145 30.388 131.941 29.895 131.658 29.4528C131.366 28.9938 130.938 28.6488 130.441 28.4714C129.897 28.3128 129.323 28.3065 128.775 28.453C128.228 28.5995 127.726 28.8937 127.32 29.3066C126.448 30.2578 125.888 31.477 125.72 32.7868C125.31 35.6813 125.391 38.6293 125.958 41.4943C126.216 43.0186 126.494 44.5916 126.824 46.1786C127.123 47.7948 127.67 49.3488 128.444 50.7794C129.257 52.2433 130.532 53.3595 132.048 53.9324C132.814 54.2176 133.639 54.2802 134.435 54.1134C135.241 53.9376 135.983 53.5277 136.578 52.9302C137.765 51.7067 138.507 50.0834 138.674 48.3433C138.825 46.6411 138.782 44.9261 138.548 43.2344C138.191 39.8655 137.848 36.622 137.517 33.4898C137.352 31.9446 137.193 30.4342 137.041 28.9725C136.889 27.5109 136.75 26.084 136.499 24.7337C136.288 23.4274 135.908 22.1579 135.368 20.9611C134.87 19.8642 134.144 18.8986 133.245 18.1352C131.647 16.8577 129.666 16.2277 127.664 16.3603C126.15 16.4112 124.693 16.9833 123.518 17.9891C122.796 18.6474 122.249 19.4916 121.931 20.4391C121.719 21.0934 121.673 21.4553 121.646 21.4553C121.683 21.1022 121.756 20.7544 121.865 20.4182C122.161 19.4424 122.7 18.5677 123.425 17.8847C124.614 16.8344 126.1 16.2275 127.651 16.1585C129.705 16.0001 131.744 16.6307 133.391 17.9334C134.328 18.7119 135.086 19.7043 135.606 20.8359C136.163 22.0539 136.559 23.3467 136.783 24.678C137.034 26.0701 137.18 27.4621 137.345 28.9377C137.51 30.4133 137.662 31.9098 137.834 33.455C138.165 36.5454 138.496 39.7959 138.879 43.1578C139.122 44.879 139.167 46.6248 139.011 48.3572C138.836 50.1826 138.056 51.885 136.809 53.1668C136.166 53.8059 135.367 54.2445 134.502 54.4336C133.648 54.6093 132.765 54.5444 131.942 54.2457C130.352 53.6387 129.012 52.4671 128.153 50.9325C127.368 49.465 126.812 47.8739 126.507 46.2204C126.176 44.6195 125.905 43.0534 125.647 41.5151C125.072 38.6041 124.994 35.6085 125.416 32.6685C125.61 31.3077 126.207 30.0461 127.122 29.063C127.563 28.6192 128.108 28.3052 128.701 28.1525C129.294 27.9998 129.915 28.0137 130.501 28.193C131.042 28.3943 131.506 28.7754 131.823 29.2788C132.117 29.7453 132.328 30.2642 132.445 30.8101C132.638 31.7936 132.775 32.7884 132.855 33.7891C133.047 35.6406 133.219 37.2693 133.358 38.557C133.496 39.8446 133.589 40.8609 133.662 41.5708C133.662 41.9049 133.715 42.1625 133.728 42.3573C133.75 42.4578 133.764 42.5604 133.768 42.6636Z" fill="#263238"/>
    <path d="M88.413 37.0744L79.6711 33.2532C77.3103 34.8332 73.4552 39.1834 72.3971 44.0418C71.7882 46.7034 71.5652 49.4466 71.7359 52.1784C71.8813 55.1227 71.6301 58.2409 70.0827 60.6979C68.9784 62.445 67.1996 63.9693 67.1665 66.0714C67.1334 68.4866 69.5074 70.5678 69.0247 72.9343C68.6345 74.8275 66.6309 75.7811 65.5861 77.375C64.0652 79.6859 64.7992 82.8459 65.7911 85.456C68.1849 91.7551 63.0931 100.818 67.5765 105.69C72.0004 101.869 85.0802 94.7829 89.5041 90.9617C90.5448 90.1907 91.4061 89.1817 92.0235 88.0105C92.7906 86.2356 92.374 84.1823 91.9773 82.2821C88.87 67.4491 87.6712 52.2437 88.413 37.0744Z" fill="#263238"/>
    <path d="M140.691 145.705L136.38 141.111L90.2893 154.795C90.2893 154.795 87.7566 176.122 88.0145 177.486C88.2724 178.85 88.0145 182.748 88.0145 182.748L151.622 177.528C151.622 177.528 152.343 159.368 140.691 145.705Z" fill="#263238"/>
    <path d="M102.754 164.248C102.693 164.442 102.604 164.625 102.489 164.79C102.297 165.118 102.02 165.598 101.623 166.183C101.164 166.846 100.636 167.453 100.049 167.992C99.3036 168.635 98.4453 169.118 97.5231 169.412C95.8713 169.967 94.1452 170.237 92.4115 170.213C91.89 170.211 91.369 170.178 90.8509 170.115C90.6566 170.114 90.4641 170.076 90.2822 170.004C90.2822 169.948 91.1022 170.004 92.4115 169.955C94.1111 169.902 95.7956 169.602 97.4173 169.064C98.2995 168.763 99.1204 168.291 99.8375 167.672C100.419 167.155 100.95 166.579 101.425 165.953C102.251 164.93 102.707 164.213 102.754 164.248Z" fill="#455A64"/>
    <path d="M117.917 180.34C117.831 180.129 117.771 179.906 117.739 179.679C117.646 179.254 117.521 178.628 117.388 177.848C117.111 176.296 116.787 174.145 116.535 171.751C116.284 169.356 116.152 167.171 116.099 165.598C116.099 164.811 116.059 164.206 116.066 163.725C116.044 163.493 116.057 163.258 116.105 163.029C116.232 163.87 116.312 164.719 116.344 165.57C116.463 167.136 116.628 169.308 116.879 171.695C117.13 174.082 117.415 176.233 117.626 177.792C117.778 178.634 117.875 179.485 117.917 180.34Z" fill="#455A64"/>
    <path d="M122.321 179.226C122.222 179.226 121.832 175.621 121.448 171.159C121.065 166.697 120.787 163.071 120.912 163.057C121.038 163.043 121.402 166.663 121.785 171.124C122.169 175.586 122.413 179.219 122.321 179.226Z" fill="#455A64"/>
    <path d="M144.672 154.336C144.55 154.537 144.406 154.721 144.242 154.886C143.951 155.227 143.521 155.707 142.92 156.278C142.26 156.948 141.54 157.55 140.771 158.074C139.813 158.724 138.744 159.168 137.623 159.382C136.49 159.573 135.329 159.436 134.264 158.986C133.41 158.618 132.607 158.131 131.876 157.538C131.386 157.145 130.918 156.722 130.475 156.271C130.3 156.118 130.145 155.943 130.012 155.749C130.051 155.7 130.766 156.389 131.996 157.329C132.723 157.88 133.514 158.332 134.35 158.672C135.366 159.083 136.468 159.203 137.544 159.02C138.619 158.818 139.647 158.4 140.572 157.788C141.338 157.286 142.062 156.716 142.734 156.083C143.945 155.004 144.632 154.294 144.672 154.336Z" fill="#455A64"/>
    <path d="M148.197 167.839C148.01 167.991 147.806 168.117 147.589 168.215L145.889 169.147C144.455 169.941 142.491 171.075 140.394 172.44C138.298 173.804 136.427 175.154 135.104 176.15L133.55 177.333C133.37 177.495 133.17 177.631 132.955 177.737C133.107 177.547 133.278 177.374 133.464 177.221C133.808 176.908 134.317 176.47 134.959 175.941C138.328 173.208 141.961 170.854 145.797 168.918C146.531 168.549 147.119 168.263 147.556 168.082C147.758 167.97 147.974 167.888 148.197 167.839Z" fill="#455A64"/>
    <path d="M106.154 162.152C106.107 162.152 105.949 161.818 105.737 161.227C105.466 160.449 105.271 159.645 105.155 158.825C105.043 157.994 105.088 157.147 105.287 156.334C105.351 155.99 105.489 155.666 105.691 155.387C105.463 156.5 105.398 157.643 105.499 158.777C105.611 159.577 105.768 160.369 105.969 161.15C106.084 161.471 106.147 161.81 106.154 162.152Z" fill="#455A64"/>
    <path d="M108.931 162.327C108.773 162.015 108.663 161.679 108.607 161.331C108.393 160.511 108.249 159.673 108.177 158.825C108.15 158.36 108.172 157.893 108.243 157.433C108.315 157.048 108.437 156.676 108.607 156.327C108.898 155.735 109.196 155.464 109.222 155.491C109.112 155.814 108.979 156.129 108.825 156.431C108.558 157.198 108.454 158.018 108.521 158.832C108.581 159.793 108.759 160.663 108.852 161.303C108.932 161.637 108.959 161.983 108.931 162.327Z" fill="#455A64"/>
    <path d="M125.958 160.642C125.95 158.906 125.608 157.189 124.952 155.595C124.297 154.002 123.341 152.565 122.143 151.371C122.579 151.617 122.969 151.945 123.293 152.339C124.127 153.241 124.799 154.295 125.277 155.45C125.753 156.604 126.024 157.84 126.077 159.097C126.125 159.616 126.084 160.139 125.958 160.642Z" fill="#455A64"/>
    <path d="M129.02 159.514C128.722 157.949 128.315 156.409 127.804 154.906C127.178 153.461 126.453 152.065 125.635 150.73C125.988 151.028 126.292 151.386 126.534 151.788C127.826 153.655 128.662 155.828 128.968 158.115C129.054 158.576 129.072 159.048 129.02 159.514Z" fill="#455A64"/>
    <path d="M117.309 157.113C117.309 157.113 117.428 156.925 117.772 156.758C118.264 156.533 118.819 156.51 119.326 156.696C119.684 156.819 120.004 157.043 120.251 157.343C120.532 157.698 120.692 158.141 120.708 158.603C120.726 159.108 120.599 159.608 120.344 160.037C120.206 160.271 120.024 160.474 119.811 160.634C119.598 160.794 119.356 160.908 119.101 160.969C118.609 161.076 118.097 161.007 117.645 160.774C117.194 160.541 116.829 160.157 116.608 159.682C116.44 159.259 116.399 158.793 116.489 158.345C116.54 157.95 116.693 157.576 116.932 157.266C117.305 156.861 117.806 156.614 118.34 156.57C118.438 156.553 118.537 156.557 118.633 156.582C118.728 156.607 118.818 156.653 118.896 156.717C118.715 156.701 118.534 156.701 118.354 156.717C117.874 156.807 117.437 157.067 117.117 157.454C116.925 157.732 116.806 158.059 116.773 158.401C116.703 158.79 116.745 159.192 116.892 159.556C117.092 159.953 117.407 160.271 117.792 160.464C118.176 160.657 118.61 160.715 119.028 160.628C119.436 160.506 119.793 160.242 120.04 159.88C120.288 159.517 120.411 159.077 120.39 158.631C120.386 158.238 120.26 157.857 120.033 157.545C119.821 157.282 119.551 157.079 119.246 156.953C118.79 156.765 118.285 156.748 117.818 156.904C117.487 157.009 117.362 157.141 117.309 157.113Z" fill="#455A64"/>
    <path d="M76.1123 89.5417C75.7486 90.0081 65.1419 97.1216 63.5482 101.702C61.9546 106.281 64.5203 124.963 64.9633 128.193C65.4064 131.422 71.4239 143.617 71.4239 143.617C71.4239 143.617 70.1609 148.879 71.8141 152.123C72.8884 154.129 74.4976 155.76 76.4429 156.814L87.1026 150.668L80.4899 119.165L76.1123 89.5417Z" fill="#005FFF"/>
    <path d="M77.2706 122.631C77.5747 122.179 77.9847 121.887 78.236 121.546C78.4873 121.204 79.0295 121.051 79.2874 121.378C79.5453 121.706 79.2874 122.311 78.9502 122.673C80.0214 122.715 80.8348 121.17 81.873 121.476C82.0316 121.551 82.1746 121.659 82.2938 121.792C82.4129 121.925 82.5058 122.082 82.5673 122.254C82.6287 122.425 82.6574 122.607 82.6517 122.791C82.6461 122.974 82.6061 123.154 82.5343 123.32C82.201 123.981 81.6747 124.51 81.0332 124.831C80.3913 125.144 79.8139 125.586 79.3337 126.132C79.1089 126.439 78.9634 126.905 79.2081 127.197C79.6247 127.699 80.5901 127.107 80.9604 127.643C81.2051 128.005 80.9075 128.492 80.6232 128.826C79.5784 130.014 78.538 131.209 77.502 132.411C77.2521 132.754 76.9216 133.022 76.5432 133.19C76.3521 133.265 76.1414 133.261 75.9529 133.18C75.7643 133.099 75.6115 132.946 75.5248 132.752C75.4952 132.543 75.5292 132.329 75.6218 132.142C75.7145 131.954 75.861 131.802 76.0406 131.708C76.4077 131.537 76.7595 131.332 77.092 131.095C77.2545 130.973 77.3654 130.789 77.4012 130.583C77.437 130.376 77.3949 130.163 77.2838 129.988C76.9333 129.613 76.3382 129.926 75.9613 130.253L72.3243 133.26C72.0749 133.507 71.7663 133.678 71.4316 133.754C71.2646 133.783 71.0934 133.744 70.9532 133.644C70.813 133.544 70.7144 133.392 70.6777 133.218C70.6817 133.032 70.7368 132.85 70.8364 132.696C71.4951 131.482 72.3978 130.435 73.4815 129.627C73.9206 129.361 74.3159 129.023 74.652 128.624C74.8153 128.422 74.9141 128.17 74.9342 127.906C74.9544 127.641 74.895 127.376 74.7644 127.149C74.0498 127.857 73.2599 128.476 72.4103 128.993C72.1127 129.181 71.6763 129.334 71.4514 129.049C71.2266 128.763 71.4514 128.353 71.6961 128.04L75.4587 123.39C75.5941 123.173 75.769 122.986 75.9733 122.84C76.1775 122.695 76.4072 122.593 76.649 122.541L77.2706 122.631Z" fill="white"/>
    <path d="M82.5126 79.3519L81.653 84.8575L73.8236 91.456C73.8236 91.456 71.972 103.887 73.7376 116.513C73.7376 116.513 85.2106 149.227 85.4883 150.619C86.0107 153.271 90.6396 155.491 90.6396 155.491C90.6396 155.491 108.117 155.665 114.121 154.754C120.126 153.842 134.62 144.202 136.009 142.921C137.398 141.64 138.965 135.487 138.965 135.487L128.279 103.985L127.677 81.8228L111.708 77.5074L106.285 73.0945L82.5126 79.3519Z" fill="#005FFF"/>
    <path d="M129.609 102.335C129.913 101.883 130.323 101.59 130.568 101.249C130.812 100.908 131.368 100.755 131.626 101.082C131.884 101.409 131.626 102.015 131.282 102.377C132.36 102.418 133.173 100.873 134.211 101.18C134.37 101.255 134.513 101.362 134.632 101.496C134.751 101.629 134.844 101.786 134.905 101.957C134.967 102.129 134.996 102.311 134.99 102.494C134.984 102.677 134.944 102.857 134.872 103.024C134.539 103.684 134.013 104.214 133.371 104.534C132.729 104.847 132.152 105.289 131.672 105.836C131.447 106.149 131.302 106.609 131.546 106.901C131.956 107.402 132.928 106.81 133.299 107.346C133.543 107.708 133.246 108.196 132.961 108.53C131.917 109.722 130.876 110.917 129.84 112.114C129.59 112.457 129.26 112.726 128.881 112.894C128.69 112.97 128.479 112.967 128.29 112.886C128.101 112.804 127.949 112.651 127.863 112.455C127.833 112.247 127.867 112.034 127.959 111.848C128.052 111.661 128.199 111.511 128.379 111.418C128.745 111.242 129.096 111.035 129.43 110.799C129.591 110.676 129.701 110.492 129.737 110.286C129.773 110.08 129.731 109.867 129.622 109.692C129.272 109.316 128.676 109.629 128.299 109.957L124.636 112.963C124.39 113.211 124.083 113.383 123.75 113.458C123.583 113.487 123.412 113.447 123.272 113.348C123.131 113.248 123.033 113.096 122.996 112.922C123 112.735 123.055 112.554 123.155 112.4C123.813 111.186 124.716 110.138 125.8 109.33C126.239 109.065 126.634 108.726 126.97 108.328C127.134 108.125 127.232 107.874 127.253 107.609C127.273 107.344 127.213 107.08 127.083 106.852C126.368 107.56 125.578 108.179 124.729 108.697C124.424 108.885 123.995 109.038 123.77 108.752C123.545 108.467 123.77 108.056 124.014 107.743C125.271 106.189 126.525 104.639 127.777 103.094C127.912 102.876 128.087 102.69 128.292 102.544C128.496 102.398 128.726 102.296 128.967 102.244L129.609 102.335Z" fill="white"/>
    <path d="M127.421 81.927C127.421 81.927 136.262 85.1914 138.576 90.7597C140.891 96.328 149.752 122.777 149.196 127.65C148.641 132.522 147.166 138.09 143.159 138.341C139.152 138.591 134.562 134.297 134.562 134.297L130.965 128.137L131.157 121.685L127.07 104.506L127.421 81.927Z" fill="#005FFF"/>
    <path d="M82.8516 82.0454C82.8516 82.0872 101.116 105.599 101.116 105.599L103.596 83.8133L107.054 73.0874L83.2483 79.2752L82.8516 82.0454Z" fill="#967262"/>
    <g opacity="0.3">
        <path d="M120.543 80.3539C119.466 79.7832 118.169 80.2356 117.078 80.7715C110.902 83.841 104.19 87.5649 102.378 94.4904L102.306 98.6667C102.874 101.186 105.347 102.843 107.801 103.066C110.254 103.288 112.668 102.328 114.863 101.158C116.835 100.115 118.716 98.8894 120.484 97.4973C121.463 96.7247 122.468 95.7781 122.659 94.5044C122.904 92.7643 121.515 91.2469 121.205 89.5207C120.907 87.9129 121.562 86.2981 121.866 84.6902C122.17 83.0824 121.939 81.0847 120.543 80.3539Z" fill="black"/>
    </g>
    <path d="M73.7188 116.548C73.7946 116.673 73.8547 116.809 73.8973 116.951L74.347 118.135C74.7239 119.172 75.2661 120.668 75.9142 122.527C77.2367 126.243 78.8832 131.429 80.7546 137.143C81.7002 139.997 82.6194 142.712 83.4658 145.169C83.889 146.401 84.2792 147.577 84.6892 148.649C85.0681 149.644 85.5352 150.6 86.0844 151.503C86.8912 152.803 87.9532 153.907 89.199 154.739C90.0917 155.317 90.6406 155.54 90.6207 155.574C90.4836 155.539 90.3506 155.487 90.224 155.421C89.8471 155.263 89.4823 155.075 89.1329 154.858C87.8328 154.059 86.7225 152.959 85.8861 151.642C85.3107 150.736 84.8212 149.773 84.4247 148.767C83.9948 147.681 83.5981 146.512 83.1616 145.287C82.302 142.83 81.3696 140.122 80.4306 137.262C78.5791 131.568 76.9061 126.41 75.6827 122.645C75.0743 120.8 74.5784 119.304 74.2213 118.211L73.8312 117C73.7795 116.854 73.7419 116.702 73.7188 116.548Z" fill="#263238"/>
    <path d="M101.03 106.344C100.965 106.282 100.907 106.212 100.858 106.135L100.388 105.502C99.9783 104.952 99.3832 104.11 98.6029 103.135C96.4764 100.395 94.1719 97.8135 91.7059 95.4092L91.9704 95.2909C91.8976 98.4787 91.8183 102.056 91.7323 105.829C91.7323 106.163 91.7323 106.525 91.7323 106.803V107.548L91.4281 106.852C88.6177 100.79 86.0983 95.3396 84.26 91.3583C83.3739 89.4094 82.6597 87.8224 82.1373 86.6809C81.9059 86.1519 81.7207 85.7273 81.5819 85.4002C81.5115 85.2544 81.4518 85.1031 81.4033 84.9478C81.4979 85.0792 81.5777 85.2217 81.6414 85.3723C81.8001 85.6856 82.0051 86.0684 82.2564 86.6183L84.4782 91.2469C86.343 95.2143 88.8955 100.643 91.7522 106.692L91.4281 106.769C91.4281 106.455 91.4281 106.128 91.4281 105.794C91.5273 102.022 91.6133 98.4439 91.6926 95.2561V94.8872L91.9439 95.1377C94.4046 97.5684 96.688 100.191 98.7748 102.982C99.5353 104.005 100.097 104.841 100.494 105.411L100.924 106.073C100.97 106.158 101.006 106.249 101.03 106.344Z" fill="#263238"/>
    <path d="M127.03 123.348C127.103 123.418 121.74 129.425 115.127 136.761C108.515 144.097 103.039 149.986 102.973 149.923C102.907 149.86 108.23 143.854 114.876 136.51C121.522 129.167 126.964 123.279 127.03 123.348Z" fill="#263238"/>
    <path d="M117.117 153.619C116.899 152.906 116.726 152.178 116.601 151.44C116.304 150.09 115.854 148.238 115.239 146.234C114.624 144.229 113.95 142.447 113.434 141.174C113.128 140.495 112.861 139.797 112.634 139.085C113.034 139.709 113.378 140.37 113.659 141.062C114.397 142.701 115.033 144.389 115.563 146.115C116.098 147.838 116.524 149.596 116.839 151.377C117.004 152.113 117.097 152.864 117.117 153.619Z" fill="#263238"/>
    <path d="M72.3492 115.392C70.81 114.512 69.3278 113.527 67.9121 112.441C66.4284 111.46 65.008 110.376 63.6602 109.198C65.2018 110.074 66.6864 111.058 68.1039 112.142C69.5855 113.126 71.0037 114.211 72.3492 115.392Z" fill="#263238"/>
    <path d="M143.151 138.299C143.151 138.299 143.071 138.299 142.919 138.299H142.258C141.895 138.302 141.532 138.272 141.173 138.209C140.685 138.14 140.203 138.028 139.732 137.875C138.469 137.434 137.308 136.723 136.32 135.786C135.059 134.581 134.062 133.101 133.397 131.45C132.775 128.805 132.074 125.882 131.36 122.778C130.038 116.889 128.788 111.564 127.895 107.653L126.877 103.059L126.619 101.806C126.582 101.663 126.56 101.516 126.553 101.367C126.616 101.502 126.663 101.645 126.692 101.792C126.771 102.112 126.877 102.523 127.009 103.024C127.287 104.152 127.67 105.697 128.127 107.59C129.052 111.495 130.309 116.813 131.697 122.694C132.412 125.784 133.093 128.729 133.681 131.374C134.324 132.983 135.281 134.433 136.492 135.626C137.447 136.552 138.572 137.263 139.798 137.715C140.888 138.055 142.014 138.251 143.151 138.299Z" fill="#263238"/>
    <path d="M78.5655 138.731C78.1305 138.859 77.6889 138.961 77.243 139.037C75.1598 139.582 73.3303 140.893 72.0851 142.733C71.8552 143.136 71.6058 143.526 71.3379 143.902C71.4322 143.432 71.6167 142.987 71.8801 142.594C72.463 141.604 73.2382 140.755 74.1549 140.102C75.0653 139.44 76.1005 138.991 77.1901 138.787C77.6393 138.663 78.1087 138.644 78.5655 138.731Z" fill="#263238"/>
    <path d="M78.685 137.937C77.7259 138.533 76.677 138.952 75.5837 139.176C74.5139 139.521 73.3949 139.667 72.2773 139.607C72.2773 139.503 73.7255 139.287 75.4845 138.828C77.2435 138.369 78.6453 137.84 78.685 137.937Z" fill="#263238"/>
    <path d="M76.6155 99.2721C76.9263 98.8197 77.3363 98.5273 77.581 98.1863C77.8256 97.8452 78.3745 97.6851 78.639 98.0192C78.9035 98.3533 78.639 98.9449 78.2951 99.3069C79.373 99.3556 80.1864 97.8104 81.2246 98.1167C81.3832 98.1919 81.5262 98.2993 81.6453 98.4327C81.7645 98.5662 81.8574 98.7231 81.9188 98.8945C81.9803 99.0658 82.009 99.2482 82.0033 99.4313C81.9976 99.6143 81.9577 99.7944 81.8858 99.9612C81.5526 100.621 81.0262 101.151 80.3847 101.472C79.7459 101.786 79.171 102.228 78.6919 102.773C78.4671 103.079 78.3216 103.546 78.5663 103.838C78.9762 104.339 79.9483 103.748 80.312 104.284C80.5633 104.645 80.2657 105.133 79.9748 105.46L76.8602 109.051C76.6102 109.394 76.2798 109.663 75.9014 109.831C75.7103 109.905 75.4996 109.902 75.311 109.82C75.1225 109.739 74.9697 109.587 74.883 109.392C74.8534 109.183 74.8874 108.97 74.98 108.782C75.0726 108.595 75.2192 108.443 75.3988 108.348C75.7638 108.173 76.1153 107.968 76.4502 107.736C76.6116 107.613 76.7211 107.429 76.7557 107.222C76.7903 107.015 76.7471 106.803 76.6354 106.629C76.2915 106.246 75.6964 106.567 75.3128 106.887L71.6692 109.901C71.4231 110.149 71.1163 110.32 70.7831 110.395C70.6162 110.424 70.445 110.385 70.3048 110.285C70.1645 110.185 70.0659 110.033 70.0293 109.859C70.0321 109.672 70.0874 109.491 70.188 109.337C70.8544 108.118 71.769 107.07 72.8661 106.267C73.3018 106 73.6945 105.661 74.03 105.265C74.1944 105.063 74.2943 104.812 74.3157 104.547C74.337 104.283 74.2787 104.017 74.149 103.789C73.4314 104.494 72.6419 105.112 71.7949 105.634C71.4907 105.822 71.0609 105.968 70.836 105.69C70.6112 105.411 70.836 104.994 71.0741 104.673L74.8433 100.031C75.1171 99.5912 75.545 99.2834 76.0336 99.1746L76.6155 99.2721Z" fill="white"/>
    <path d="M104.401 108.724C104.706 108.272 105.116 107.98 105.367 107.639C105.618 107.298 106.16 107.138 106.418 107.472C106.676 107.806 106.418 108.397 106.074 108.759C107.152 108.808 107.966 107.263 109.004 107.569C109.162 107.644 109.305 107.752 109.425 107.885C109.544 108.019 109.637 108.176 109.698 108.347C109.76 108.518 109.788 108.701 109.783 108.884C109.777 109.067 109.737 109.247 109.665 109.414C109.331 110.071 108.805 110.598 108.164 110.917C107.523 111.235 106.946 111.679 106.465 112.226C106.24 112.532 106.094 112.998 106.339 113.29C106.756 113.785 107.721 113.2 108.091 113.736C108.336 114.098 108.038 114.585 107.754 114.912L104.633 118.504C104.385 118.852 104.054 119.125 103.674 119.297C103.482 119.371 103.271 119.366 103.082 119.284C102.893 119.201 102.741 119.047 102.656 118.852C102.627 118.644 102.661 118.431 102.753 118.245C102.846 118.059 102.992 117.908 103.171 117.815C103.536 117.638 103.887 117.434 104.223 117.202C104.527 116.931 104.692 116.395 104.415 116.096C104.137 115.796 103.469 116.033 103.092 116.353L99.4552 119.367C99.203 119.61 98.8955 119.78 98.5624 119.861C98.3955 119.89 98.2243 119.851 98.0841 119.751C97.9438 119.652 97.8452 119.499 97.8086 119.325C97.8114 119.138 97.8666 118.957 97.9673 118.803C98.6222 117.586 99.5257 116.538 100.612 115.734C101.05 115.466 101.445 115.128 101.783 114.731C101.946 114.529 102.045 114.277 102.065 114.013C102.085 113.748 102.026 113.483 101.895 113.256C101.179 113.962 100.389 114.581 99.5411 115.1C99.2435 115.281 98.8071 115.434 98.5823 115.156C98.3575 114.877 98.5823 114.46 98.827 114.14C100.083 112.594 101.338 111.045 102.59 109.49C102.867 109.056 103.294 108.751 103.78 108.641L104.401 108.724Z" fill="white"/>
    <path d="M93.8147 136.434C94.1255 135.982 94.5355 135.689 94.7802 135.348C95.0249 135.007 95.5737 134.854 95.8382 135.181C96.1027 135.508 95.8382 136.114 95.4944 136.469C96.5722 136.518 97.3856 134.972 98.4238 135.279C98.5824 135.354 98.7254 135.461 98.8445 135.595C98.9637 135.728 99.0566 135.885 99.1181 136.056C99.1795 136.228 99.2082 136.41 99.2025 136.593C99.1969 136.776 99.1569 136.956 99.085 137.123C98.7518 137.783 98.2254 138.313 97.584 138.634C96.9451 138.948 96.3703 139.39 95.8911 139.935C95.6663 140.241 95.5208 140.708 95.7655 141C96.1755 141.501 97.1475 140.91 97.5112 141.446C97.7625 141.807 97.4649 142.295 97.174 142.622L94.0594 146.213C93.8094 146.556 93.479 146.825 93.1006 146.993C92.9095 147.067 92.6988 147.064 92.5103 146.982C92.3217 146.901 92.1689 146.749 92.0822 146.554C92.0526 146.345 92.0866 146.132 92.1792 145.944C92.2719 145.757 92.4184 145.605 92.598 145.51C92.9651 145.339 93.3169 145.134 93.6494 144.898C93.8108 144.775 93.9204 144.591 93.9549 144.384C93.9895 144.177 93.9463 143.965 93.8346 143.791C93.4907 143.408 92.8956 143.729 92.512 144.049L88.8685 147.063C88.6223 147.311 88.3155 147.482 87.9824 147.557C87.8154 147.586 87.6442 147.547 87.504 147.447C87.3637 147.347 87.2652 147.195 87.2285 147.021C87.2314 146.834 87.2866 146.653 87.3872 146.499C88.0459 145.285 88.9486 144.237 90.0323 143.429C90.4706 143.166 90.8639 142.827 91.1961 142.427C91.3605 142.225 91.4605 141.974 91.4818 141.709C91.5032 141.445 91.4449 141.179 91.3152 140.951C90.5993 141.658 89.8096 142.277 88.961 142.796C88.6569 142.984 88.227 143.137 88.0022 142.852C87.7774 142.566 88.0022 142.156 88.2403 141.842L92.0095 137.193C92.2833 136.753 92.7112 136.445 93.1998 136.337L93.8147 136.434Z" fill="white"/>
    <path d="M125.404 133.998C125.708 133.545 126.124 133.253 126.369 132.912C126.614 132.571 127.163 132.411 127.427 132.745C127.692 133.079 127.394 133.671 127.083 134.032C128.161 134.081 128.974 132.536 130.013 132.842C130.171 132.917 130.314 133.025 130.433 133.158C130.553 133.292 130.645 133.449 130.707 133.62C130.768 133.791 130.797 133.974 130.791 134.157C130.786 134.34 130.746 134.52 130.674 134.687C130.34 135.344 129.813 135.871 129.173 136.19C128.535 136.51 127.961 136.954 127.48 137.499C127.255 137.805 127.11 138.271 127.354 138.564C127.764 139.058 128.736 138.473 129.1 139.009C129.351 139.371 129.047 139.858 128.763 140.185L125.642 143.777C125.393 144.121 125.062 144.39 124.683 144.557C124.491 144.629 124.28 144.623 124.092 144.541C123.904 144.459 123.751 144.305 123.664 144.111C123.635 143.902 123.67 143.689 123.764 143.502C123.858 143.315 124.006 143.165 124.187 143.074C124.55 142.899 124.899 142.694 125.232 142.461C125.536 142.19 125.701 141.654 125.423 141.355C125.146 141.055 124.484 141.292 124.101 141.612L120.464 144.626C120.214 144.872 119.905 145.042 119.571 145.12C119.404 145.15 119.233 145.11 119.093 145.01C118.953 144.911 118.854 144.758 118.817 144.584C118.82 144.397 118.877 144.214 118.983 144.062C119.647 142.842 120.562 141.793 121.661 140.993C122.095 140.723 122.488 140.385 122.825 139.991C122.989 139.789 123.089 139.538 123.11 139.273C123.132 139.008 123.073 138.743 122.944 138.515C122.226 139.219 121.437 139.838 120.59 140.359C120.285 140.547 119.849 140.694 119.624 140.415C119.399 140.137 119.624 139.719 119.869 139.399L123.638 134.756C123.773 134.538 123.947 134.35 124.152 134.203C124.356 134.056 124.586 133.953 124.828 133.9L125.404 133.998Z" fill="white"/>
    <path d="M113.342 137.722C113.27 137.636 113.21 137.539 113.163 137.436L112.7 136.58C112.304 135.842 111.748 134.749 111.093 133.392C109.771 130.678 108.045 126.863 106.346 122.569C104.646 118.274 103.297 114.293 102.378 111.39C101.928 109.936 101.584 108.759 101.36 107.91C101.26 107.534 101.181 107.214 101.115 106.964C101.078 106.854 101.056 106.739 101.049 106.623C101.106 106.723 101.15 106.831 101.181 106.943C101.26 107.193 101.366 107.5 101.492 107.868C101.77 108.725 102.153 109.88 102.609 111.279C103.562 114.154 104.944 118.107 106.637 122.416C108.329 126.724 110.016 130.524 111.265 133.26C111.88 134.596 112.39 135.689 112.773 136.503L113.176 137.387C113.247 137.49 113.303 137.602 113.342 137.722Z" fill="#263238"/>
    <path d="M149.222 127.051C149.222 127.573 146.934 128.666 146.444 128.61L145.869 128.422C145.499 128.819 145.049 129.042 144.758 129.341C144.467 129.64 143.899 129.703 143.687 129.341C143.475 128.979 143.852 128.429 144.216 128.123C143.158 127.907 142.126 129.299 141.148 128.819C140.855 128.616 140.651 128.299 140.58 127.937C140.509 127.576 140.578 127.199 140.771 126.891C141.198 126.294 141.796 125.857 142.477 125.645C143.154 125.438 143.787 125.095 144.342 124.636C144.606 124.364 144.818 123.94 144.619 123.599C144.289 123.042 143.244 123.467 142.96 122.903C142.768 122.506 143.131 122.075 143.469 121.796C144.666 120.78 146.312 119.367 147.516 118.351C147.516 118.316 149.175 124.671 149.222 127.051Z" fill="white"/>
    <g opacity="0.3">
        <path d="M103.145 149.533C112.733 144.028 121.29 135.16 125.932 124.754L103.145 149.533Z" fill="black"/>
    </g>
    <g opacity="0.3">
        <path d="M71.3584 143.902C73.2364 139.656 76.9329 138.494 80.5236 138.543C80.5592 138.322 80.5162 138.096 80.4026 137.907C80.2891 137.718 80.1131 137.58 79.9086 137.519C79.4951 137.401 79.0591 137.401 78.6456 137.519C76.9008 137.784 75.2186 138.391 73.6861 139.308C72.9811 139.787 72.4032 140.446 72.0065 141.224C71.6097 142.002 71.4072 142.873 71.4179 143.756" fill="black"/>
    </g>
    <g opacity="0.3">
        <path d="M81.4751 85.0942C83.9135 94.5016 87.7045 103.461 92.7167 111.662C94.5648 108.643 95.3509 105.038 94.9385 101.472C96.3288 103.375 98.2361 104.788 100.407 105.523C97.8613 101.841 95.2163 98.3398 91.9099 95.4095C91.9099 95.4095 91.6256 107.242 91.6322 106.915C88.1738 99.5997 84.8079 92.3957 81.4619 85.0942" fill="black"/>
    </g>
    <path d="M110.611 52.2413C109.626 55.6171 108.224 58.2133 105.116 59.5427C102.398 60.7051 99.3236 60.4824 96.4537 59.8629C87.1232 57.8374 77.3298 52.6032 72.377 44.0419L75.022 37.9725C77.8192 33.3438 84.6567 27.8591 92.5919 30.5736C94.7386 29.9275 97.006 29.8657 99.1815 30.3941C101.357 30.9224 103.37 32.0236 105.03 33.5944C111.114 39.0444 110.611 52.2413 110.611 52.2413Z" fill="#263238"/>
    <path d="M88.1938 35.1951C82.745 34.499 75.7091 41.4594 75.2594 47.2295C74.7569 53.6331 74.3866 61.4705 75.0148 66.2662C76.291 75.9133 83.274 77.2775 83.274 77.2775L82.9367 82.1846L103.806 77.9666L104.706 43.5614L104.818 40.4571L88.1938 35.1951Z" fill="#967262"/>
    <path d="M78.6509 54.1761C78.6418 54.4971 78.7522 54.8091 78.9584 55.0458C79.1647 55.2824 79.4506 55.4249 79.7552 55.4429C79.9045 55.4592 80.0554 55.4438 80.199 55.3977C80.3425 55.3516 80.4759 55.2757 80.5911 55.1745C80.7064 55.0733 80.8012 54.9488 80.87 54.8085C80.9388 54.6681 80.9802 54.5146 80.9918 54.3571C81.0009 54.0361 80.8906 53.724 80.6843 53.4874C80.478 53.2508 80.1921 53.1083 79.8875 53.0903C79.7382 53.074 79.5873 53.0894 79.4438 53.1355C79.3002 53.1816 79.1669 53.2574 79.0516 53.3586C78.9363 53.4598 78.8415 53.5843 78.7727 53.7247C78.7039 53.8651 78.6625 54.0186 78.6509 54.1761Z" fill="#263238"/>
    <path d="M77.1175 51.357C77.2564 51.5171 78.1557 50.8489 79.4187 50.8768C80.6817 50.9046 81.5943 51.5728 81.7331 51.4266C81.872 51.2805 81.6604 51.0647 81.2636 50.7306C80.7227 50.3238 80.0768 50.1004 79.4121 50.0903C78.7561 50.0765 78.1127 50.2811 77.5738 50.6749C77.1836 50.9951 77.0249 51.2805 77.1175 51.357Z" fill="#263238"/>
    <path d="M90.4232 54.6562C90.4158 54.9767 90.5267 55.2878 90.7326 55.524C90.9386 55.7602 91.2235 55.9033 91.5275 55.923C91.6763 55.9383 91.8265 55.9222 91.9693 55.8756C92.112 55.8291 92.2446 55.753 92.3591 55.6519C92.4736 55.5508 92.5679 55.4267 92.6363 55.2868C92.7047 55.1469 92.7459 54.994 92.7575 54.8372C92.7666 54.5154 92.6565 54.2026 92.4504 53.9649C92.2443 53.7271 91.9584 53.5832 91.6532 53.5634C91.5039 53.5481 91.3532 53.5645 91.21 53.6114C91.0668 53.6584 90.934 53.7351 90.8194 53.8369C90.7047 53.9388 90.6106 54.0637 90.5426 54.2044C90.4746 54.3451 90.434 54.4987 90.4232 54.6562Z" fill="#263238"/>
    <path d="M89.5033 51.8582C89.6488 52.0182 90.5481 51.35 91.8111 51.3779C93.0741 51.4057 93.9801 52.0739 94.1189 51.9278C94.2578 51.7816 94.0462 51.5658 93.6494 51.2317C93.111 50.8251 92.4672 50.6016 91.8045 50.5914C91.1483 50.5761 90.5046 50.7809 89.9662 51.176C89.5893 51.4962 89.4372 51.7816 89.5033 51.8582Z" fill="#263238"/>
    <path d="M84.7485 61.6027C84.0858 61.3764 83.3998 61.2339 82.7051 61.1781C82.3877 61.1363 82.0836 61.0598 82.0439 60.8301C82.0229 60.4781 82.106 60.1279 82.2819 59.8278C82.5993 59.0134 82.9432 58.1573 83.2805 57.2664C84.6691 53.6191 85.6809 50.6192 85.542 50.5635C85.4031 50.5078 84.1599 53.4103 82.7713 57.0576C82.434 57.9555 82.11 58.8185 81.8124 59.6399C81.5989 60.0419 81.5308 60.5116 81.6207 60.9623C81.6637 61.0843 81.7335 61.1938 81.8242 61.2821C81.915 61.3703 82.0242 61.4349 82.1431 61.4704C82.3196 61.524 82.5017 61.5544 82.6853 61.5609C83.3685 61.6676 84.0619 61.6816 84.7485 61.6027Z" fill="#263238"/>
    <path d="M83.2747 77.3052C87.676 77.4674 92.0359 76.3628 95.8851 74.1104C95.8851 74.1104 92.5457 80.7506 83.1094 79.6787L83.2747 77.3052Z" fill="#77574A"/>
    <path d="M85.2245 64.8186C85.4687 64.5044 85.7853 64.2613 86.1442 64.1126C86.5031 63.964 86.8923 63.9147 87.2744 63.9695C87.5518 64.0004 87.8203 64.0904 88.0635 64.234C88.3068 64.3776 88.5198 64.5718 88.6895 64.8047C88.854 65.0299 88.9491 65.3025 88.9621 65.5862C88.9751 65.8699 88.9054 66.1509 88.7623 66.3917C88.5555 66.6257 88.2869 66.7891 87.9911 66.8611C87.6953 66.933 87.3858 66.9102 87.1025 66.7954C86.5097 66.5644 85.9675 66.2092 85.5088 65.7513C85.3705 65.6421 85.2519 65.5077 85.1584 65.3546C85.1112 65.2818 85.0859 65.1957 85.0859 65.1075C85.0859 65.0193 85.1112 64.9332 85.1584 64.8604" fill="#77574A"/>
    <path d="M88.4379 62.598C88.2329 62.598 88.2064 63.9901 87.0162 65.0202C85.8259 66.0503 84.3711 65.8346 84.3711 66.0364C84.3711 66.12 84.6885 66.3218 85.3035 66.3496C86.1068 66.379 86.894 66.1077 87.5253 65.584C88.1303 65.0832 88.5263 64.3543 88.6297 63.5516C88.6826 62.953 88.5371 62.591 88.4379 62.598Z" fill="#263238"/>
    <path d="M89.2788 46.6518C89.3913 47.0138 90.6543 46.8676 92.1289 47.0834C93.6035 47.2992 94.774 47.7794 94.9988 47.4314C95.0914 47.2783 94.8864 46.9372 94.4103 46.5753C93.7762 46.1287 93.0514 45.845 92.2942 45.747C91.5398 45.636 90.771 45.7171 90.0525 45.9836C89.5037 46.2133 89.2259 46.4778 89.2788 46.6518Z" fill="#263238"/>
    <path d="M77.6862 47.5219C77.8978 47.8281 78.7773 47.5219 79.8155 47.5219C80.8537 47.5219 81.7464 47.7655 81.9514 47.4523C82.044 47.2991 81.9117 46.9998 81.5282 46.7005C81.0194 46.339 80.4159 46.1541 79.8023 46.1715C79.1895 46.1738 78.5919 46.3729 78.0896 46.7423C77.6862 47.0694 77.554 47.3757 77.6862 47.5219Z" fill="#263238"/>
    <path d="M103.971 39.4968C103.237 37.8751 101.432 37.2069 99.8319 36.5944C97.5704 35.7313 95.375 34.6663 93.0671 33.9564C90.7718 33.1517 88.3159 32.9957 85.9453 33.504C83.5317 34.1165 81.4421 35.6965 79.5971 37.4435C77.1637 39.7474 74.9683 42.5733 74.3467 45.9561V47.1185C79.5905 45.5524 84.8079 39.7822 88.6036 35.6686C91.8769 40.4713 97.3257 48.9978 102.153 51.0859C102.477 48.6289 104.137 45.0651 104.322 42.5942C104.453 41.5471 104.332 40.4823 103.971 39.4968Z" fill="#263238"/>
    <path d="M121.608 78.3354C121.251 76.4144 119.445 75.252 117.865 74.2219C116.285 73.1917 114.592 71.7161 114.684 69.7603C114.777 67.8044 116.847 66.12 116.668 64.0806C116.49 62.0412 114.089 60.9554 112.813 59.2779C110.961 56.8557 110.604 55.3453 110.604 52.241C110.604 46.1646 108.297 38.2297 103.211 35.3342L96.5723 41.2018C98.5032 46.8745 100.461 52.8048 99.786 58.7977C99.3827 62.3475 98.0601 65.7998 98.2519 69.3705C98.4569 73.2056 100.381 76.6997 101.036 80.4723C101.657 84.0499 101.122 87.7319 101.294 91.3653C101.466 94.9986 102.616 98.9242 105.539 100.852L116.576 95.284C117.772 94.6784 119.121 93.8919 119.293 92.4998C119.465 91.1077 118.295 89.8827 117.971 88.4906C117.177 84.8504 122.282 81.9966 121.608 78.3354Z" fill="#263238"/>
    <path d="M110.425 48.6423C109.901 48.8924 109.353 49.0837 108.791 49.2131C107.448 49.6112 106.07 49.8699 104.678 49.9857C103.279 50.0761 101.874 49.9161 100.526 49.5124C99.96 49.3759 99.4164 49.1532 98.9121 48.8511C98.9452 48.705 101.432 49.8534 104.659 49.6237C106.031 49.4961 107.392 49.2634 108.732 48.9277C109.287 48.7773 109.853 48.6818 110.425 48.6423Z" fill="#455A64"/>
    <path d="M110.637 50.877C110.185 51.2395 109.683 51.5282 109.149 51.7331C107.881 52.2952 106.524 52.6021 105.148 52.6379C103.775 52.6503 102.408 52.4533 101.088 52.0533C100.537 51.9219 100.004 51.7185 99.501 51.4477C100.057 51.5232 100.608 51.6418 101.148 51.8027C102.448 52.1228 103.78 52.2817 105.115 52.276C106.453 52.2357 107.777 51.9726 109.036 51.4964C109.559 51.2601 110.093 51.0533 110.637 50.877Z" fill="#455A64"/>
    <path d="M71.8662 47.2782C72.447 47.1911 73.0321 47.1399 73.6186 47.1251C74.1946 46.9919 74.7775 46.8943 75.3643 46.8328C74.8532 47.1856 74.2716 47.4094 73.6648 47.4867C73.058 47.5639 72.4425 47.4926 71.8662 47.2782Z" fill="#455A64"/>
    <path d="M71.5371 48.378C71.5966 48.2945 72.2976 48.8026 73.2696 49.1506C74.2417 49.4986 75.0881 49.5613 75.0881 49.6727C74.4432 49.8387 73.7641 49.7751 73.1572 49.4917C72.5136 49.3228 71.9428 48.9305 71.5371 48.378Z" fill="#455A64"/>
    <path d="M102.45 96.1819C102.286 96.1571 102.126 96.1079 101.974 96.0357C101.524 95.8364 101.121 95.5373 100.79 95.1587C100.264 94.5564 99.9183 93.8031 99.7986 92.994C99.7261 92.484 99.7623 91.9633 99.9044 91.4697C100.07 90.9291 100.304 90.4142 100.599 89.9384C100.917 89.4328 101.202 88.9049 101.452 88.3584C101.693 87.764 101.821 87.1255 101.829 86.4791C101.781 85.0338 101.372 83.6272 100.645 82.4003C99.8144 81.0432 98.9138 79.735 97.947 78.4816C96.8842 77.1048 96.1517 75.4791 95.8111 73.7416C95.56 71.99 95.6591 70.2025 96.1021 68.4935C96.5066 66.92 97.0261 65.3818 97.6561 63.8927C98.2248 62.4658 98.7802 61.1085 99.1968 59.8209C99.5988 58.6232 99.8803 57.3844 100.037 56.1249C100.308 54.3059 100.202 52.4467 99.7258 50.6749C99.53 50.0329 99.2567 49.42 98.9125 48.8513C99.0308 48.9752 99.135 49.113 99.2233 49.262C99.4978 49.6953 99.72 50.1629 99.8846 50.6541C100.416 52.4398 100.561 54.3283 100.308 56.1806C100.164 57.4603 99.8914 58.7202 99.4944 59.9392C99.0844 61.2547 98.5356 62.612 97.9735 64.0458C97.3571 65.5218 96.8508 67.0461 96.4592 68.6049C96.0293 70.264 95.9325 71.9992 96.1748 73.6999C96.5065 75.3831 97.2162 76.9583 98.2446 78.2937C99.2155 79.5598 100.118 80.882 100.949 82.2542C101.695 83.5366 102.106 85.0037 102.139 86.507C102.126 87.1906 101.984 87.8647 101.723 88.4907C101.458 89.035 101.16 89.5605 100.83 90.0637C100.543 90.5191 100.309 91.01 100.136 91.5254C100.005 91.9756 99.964 92.4498 100.017 92.9175C100.116 93.691 100.429 94.417 100.916 95.0056C101.33 95.5226 101.856 95.9262 102.45 96.1819Z" fill="#263238"/>
    <path d="M92.9412 30.4686C91.9594 30.9348 91.0638 31.5805 90.2962 32.3758C89.61 33.2459 89.073 34.2351 88.7091 35.2991C88.6708 34.9534 88.7187 34.6032 88.848 34.2829C89.0933 33.4825 89.5005 32.7475 90.0416 32.1287C90.5827 31.5099 91.2449 31.0219 91.9824 30.6983C92.2779 30.5362 92.6082 30.4571 92.9412 30.4686Z" fill="#455A64"/>
    <path d="M127.982 95.8966L123.479 88.4281L123.168 81.0849L124.934 76.0595C124.934 76.0595 126.342 75.7045 126.573 77.4516C126.657 78.7795 126.48 80.1112 126.051 81.3633L127.017 84.927C127.017 84.927 127.334 85.3098 127.632 83.8273C127.929 82.3447 127.413 71.3543 127.407 70.6026C127.4 69.8508 127.46 68.0481 128.524 68.2152C129.589 68.3822 129.926 69.8787 129.926 70.6374C129.926 71.396 130.706 78.774 130.706 78.774C130.706 78.774 130.958 79.4353 131.209 79.3378C131.46 79.2404 130.984 71.4239 130.938 70.1919C130.892 68.9599 130.627 66.2175 132.002 66.2175C133.378 66.2175 133.378 67.6096 133.457 69.0991C133.537 70.5887 134.429 79.0734 134.429 79.0734C134.429 79.0734 134.641 79.6023 134.839 78.8924C135.038 78.1824 135.282 68.9808 135.434 68.5493C135.587 68.1177 136.393 67.547 137.015 68.591C137.636 69.6351 137.491 72.0712 137.405 76.3518C137.326 80.2149 137.213 81.8157 137.63 82.122C138.046 82.4282 139.614 80.0339 139.614 80.0339C139.614 80.0339 141.492 74.9389 143.085 75.1199C144.679 75.3008 143.608 76.6024 143.337 77.7857C143.105 78.788 140.321 84.7461 140.262 84.8226C140.202 84.8992 137.465 95.5138 137.465 95.5138L143.509 107.674C144.579 109.788 144.988 112.204 144.679 114.578C144.315 117.174 143.052 120.07 139.435 121.253C136.79 122.13 134.806 120.877 133.484 119.402C132.364 118.093 131.623 116.475 131.348 114.738C130.574 110.047 127.969 95.8827 127.969 95.8827L127.982 95.8966Z" fill="#967262"/>
    <path d="M132.478 90.5372C132.419 90.5372 132.478 89.9665 132.333 89.1034C132.136 87.9765 131.625 86.9368 130.865 86.1174C130.263 85.45 129.463 85.02 128.596 84.8993C128.056 84.8319 127.509 84.9621 127.049 85.2682L126.983 85.31V85.2474C126.897 85.0525 126.857 84.9411 126.877 84.9341C126.897 84.9272 126.963 85.0037 127.089 85.1847H126.996C127.221 84.9808 127.483 84.8264 127.766 84.7307C128.049 84.6351 128.347 84.6001 128.643 84.6279C129.593 84.7057 130.481 85.1522 131.136 85.8808C131.948 86.7475 132.465 87.8736 132.604 89.0825C132.679 89.5708 132.635 90.0711 132.478 90.5372Z" fill="#77574A"/>
    <path d="M136.281 84.8921C136.341 84.9826 135.732 85.5324 135.137 86.3468C134.816 86.8783 134.462 87.3874 134.079 87.8711C134.217 87.2354 134.486 86.6391 134.866 86.1244C135.247 85.6097 135.73 85.1891 136.281 84.8921Z" fill="#77574A"/>
    <path d="M75.1799 151.385C75.2641 154.487 76.4101 157.453 78.4069 159.737C79.8875 161.426 81.4502 163.034 83.0887 164.554L94.4757 169.927C94.4757 169.927 97.4448 170.4 100.427 167.345C101.382 166.466 102.167 165.403 102.742 164.213C102.742 164.213 106.154 165.82 107.489 165.758C109.738 165.653 109.381 163.983 109.381 163.983C109.381 163.983 101.862 159.626 100.077 157.941C98.2912 156.257 93.1466 155.157 89.4964 155.651L87.3803 155.213L86.6132 152.22C86.6132 152.22 82.4869 145.754 78.678 148.044C74.8691 150.334 75.1799 151.385 75.1799 151.385Z" fill="#967262"/>
</svg>
