<svg width="22" height="21" viewBox="0 0 22 21" fill="none" xmlns="http://www.w3.org/2000/svg">
<path d="M19.9995 1L17.9995 3M17.9995 3L20.9995 6L17.4995 9.5L14.4995 6.5M17.9995 3L14.4995 6.5M10.3895 10.61C11.1586 11.3792 11.6823 12.3592 11.8944 13.4261C12.1065 14.493 11.9975 15.5988 11.5812 16.6037C11.1649 17.6086 10.46 18.4675 9.55552 19.0718C8.65107 19.6761 7.58775 19.9987 6.5 19.9987C5.41226 19.9987 4.34893 19.6761 3.44449 19.0718C2.54004 18.4675 1.83509 17.6086 1.41878 16.6037C1.00246 15.5988 0.893474 14.493 1.1056 13.4261C1.31772 12.3592 1.84143 11.3792 2.6105 10.61C3.12124 10.0992 3.72761 9.69392 4.39497 9.41745C5.06234 9.14098 5.77763 8.99867 6.5 8.99867C7.22237 8.99867 7.93766 9.14098 8.60503 9.41745C9.2724 9.69392 9.87877 10.0992 10.3895 10.61ZM10.3895 10.61L14.4995 6.5" stroke="#262A50" stroke-width="2" stroke-linecap="round" stroke-linejoin="round"/>
</svg>
