<svg width="219" height="249" viewBox="0 0 219 249" fill="none" xmlns="http://www.w3.org/2000/svg">
    <path d="M29.2319 115.276L32.2505 118.206L25.6638 121.282C25.6638 121.282 24.0694 118.506 25.1762 115.999L29.2319 115.276Z" fill="#E4897B"/>
    <path d="M34.6885 122.566L29.1234 124.827L25.6714 121.251L32.2504 118.206L34.6885 122.566Z" fill="#E4897B"/>
    <path opacity="0.4" d="M148.216 117.296C137.265 116.075 126.924 111.654 118.5 104.594C110.077 97.5342 103.95 88.1514 100.893 77.632C97.8361 67.1125 97.987 55.9287 101.327 45.4944C104.666 35.0602 111.044 25.8439 119.655 19.0107C128.266 12.1775 138.722 8.03427 149.703 7.10467C160.683 6.17508 171.694 8.50091 181.345 13.7881C190.995 19.0754 198.85 27.0866 203.919 36.8091C208.987 46.5315 211.04 57.5287 209.819 68.4104C209.007 75.6401 206.77 82.6402 203.234 89.0104C199.698 95.3806 194.934 100.996 189.213 105.536C183.492 110.076 176.927 113.451 169.892 115.469C162.858 117.487 155.492 118.108 148.216 117.296Z" fill="#FAFAFA"/>
    <path opacity="0.4" d="M187.963 20.7649L103.21 88.0455C102.854 87.2765 102.506 86.5075 102.181 85.7385C100.056 80.7171 98.6971 75.4089 98.1484 69.9892L171.353 11.8752C177.364 13.8671 182.983 16.8744 187.963 20.7649Z" fill="#FAFAFA"/>
    <path opacity="0.4" d="M207.522 50.2409L127.839 113.492C120.269 109.571 113.709 103.972 108.667 97.1274L195.672 28.0551C201.281 34.4508 205.335 42.0414 207.522 50.2409Z" fill="#FAFAFA"/>
    <path d="M90.9042 43.2277L90.1689 42.9816C91.4424 39.248 93.043 35.6327 94.9523 32.177L95.6256 32.5461C93.7416 35.9631 92.1617 39.5373 90.9042 43.2277ZM100.301 25.279L99.6737 24.8253C106.034 16.28 114.359 9.36931 123.954 4.66957L124.302 5.36168C114.817 10.0129 106.587 16.8497 100.301 25.3021V25.279ZM185.123 6.41521C182.594 5.06733 179.977 3.88815 177.29 2.88547L177.569 2.1626C180.282 3.1888 182.925 4.39105 185.479 5.76156L185.123 6.41521Z" fill="#407BFF"/>
    <path opacity="0.3" d="M90.9042 43.2277L90.1689 42.9816C91.4424 39.248 93.043 35.6327 94.9523 32.177L95.6256 32.5461C93.7416 35.9631 92.1617 39.5373 90.9042 43.2277ZM100.301 25.279L99.6737 24.8253C106.034 16.28 114.359 9.36931 123.954 4.66957L124.302 5.36168C114.817 10.0129 106.587 16.8497 100.301 25.3021V25.279ZM185.123 6.41521C182.594 5.06733 179.977 3.88815 177.29 2.88547L177.569 2.1626C180.282 3.1888 182.925 4.39105 185.479 5.76156L185.123 6.41521Z" fill="black"/>
    <path d="M211.246 36.1067C204.079 21.3381 191.467 9.87612 176.024 4.0968C160.581 -1.68252 143.492 -1.33589 128.299 5.06485C113.107 11.4656 100.976 23.4295 94.4217 38.4764C87.8674 53.5233 87.3923 70.4991 93.0949 85.8846C87.9246 87.6841 82.8162 89.6143 77.7387 91.6061C70.4167 94.4924 63.1617 97.5069 55.9738 100.65C48.7911 103.81 41.6394 107.032 34.5573 110.401C31.0046 112.054 27.4984 113.8 23.9612 115.491C22.1211 116.277 20.4539 117.414 19.054 118.837C18.2965 119.625 17.6294 120.494 17.0649 121.428C16.3761 122.533 15.8545 123.733 15.5169 124.989C14.9345 127.252 15.1863 129.647 16.2269 131.742C17.2675 133.836 19.0281 135.492 21.1903 136.409C22.391 136.909 23.6578 137.235 24.9519 137.377C26.0449 137.5 27.1484 137.5 28.2414 137.377C30.2277 137.138 32.1474 136.513 33.8916 135.54C37.3978 133.779 40.9273 132.079 44.4103 130.272C51.3763 126.742 58.3423 123.059 65.2231 119.321C72.104 115.584 78.9926 111.67 85.7109 107.655C90.3549 104.864 95.0454 102.011 99.6429 99.027C108.471 112.874 122.323 122.816 138.329 126.793C154.334 130.769 171.265 128.475 185.615 120.386C199.964 112.297 210.631 99.0337 215.406 83.3435C220.18 67.6533 218.696 50.7395 211.261 36.1067H211.246ZM176.06 109.57C167.065 113.981 156.956 115.644 147.01 114.347C137.064 113.05 127.729 108.852 120.184 102.284C112.64 95.7156 107.225 87.0723 104.624 77.4468C102.024 67.8213 102.354 57.6457 105.574 48.2067C108.794 38.7678 114.758 30.4893 122.713 24.4182C130.668 18.347 140.256 14.7558 150.266 14.0986C160.275 13.4413 170.255 15.7477 178.945 20.7259C187.635 25.7041 194.644 33.1307 199.086 42.0665C202.036 48.0009 203.781 54.4546 204.22 61.0589C204.659 67.6632 203.785 74.2888 201.647 80.5573C199.508 86.8258 196.148 92.6144 191.758 97.5925C187.368 102.571 182.034 106.641 176.06 109.57Z" fill="#407BFF"/>
    <path opacity="0.3" d="M211.246 36.1067C204.079 21.3381 191.467 9.87612 176.024 4.0968C160.581 -1.68252 143.492 -1.33589 128.299 5.06485C113.107 11.4656 100.976 23.4295 94.4217 38.4764C87.8674 53.5233 87.3923 70.4991 93.0949 85.8846C87.9246 87.6841 82.8162 89.6143 77.7387 91.6061C70.4167 94.4924 63.1617 97.5069 55.9738 100.65C48.7911 103.81 41.6394 107.032 34.5573 110.401C31.0046 112.054 27.4984 113.8 23.9612 115.491C22.1211 116.277 20.4539 117.414 19.054 118.837C18.2965 119.625 17.6294 120.494 17.0649 121.428C16.3761 122.533 15.8545 123.733 15.5169 124.989C14.9345 127.252 15.1863 129.647 16.2269 131.742C17.2675 133.836 19.0281 135.492 21.1903 136.409C22.391 136.909 23.6578 137.235 24.9519 137.377C26.0449 137.5 27.1484 137.5 28.2414 137.377C30.2277 137.138 32.1474 136.513 33.8916 135.54C37.3978 133.779 40.9273 132.079 44.4103 130.272C51.3763 126.742 58.3423 123.059 65.2231 119.321C72.104 115.584 78.9926 111.67 85.7109 107.655C90.3549 104.864 95.0454 102.011 99.6429 99.027C108.471 112.874 122.323 122.816 138.329 126.793C154.334 130.769 171.265 128.475 185.615 120.386C199.964 112.297 210.631 99.0337 215.406 83.3435C220.18 67.6533 218.697 50.7395 211.261 36.1067H211.246ZM176.06 109.57C167.065 113.981 156.956 115.644 147.01 114.347C137.064 113.05 127.729 108.852 120.184 102.284C112.64 95.7156 107.225 87.0723 104.624 77.4468C102.024 67.8213 102.354 57.6457 105.574 48.2067C108.794 38.7678 114.758 30.4893 122.713 24.4182C130.668 18.347 140.256 14.7558 150.266 14.0986C160.275 13.4413 170.255 15.7477 178.945 20.7259C187.635 25.7041 194.644 33.1307 199.086 42.0665C202.036 48.0009 203.781 54.4546 204.22 61.0589C204.659 67.6632 203.785 74.2888 201.647 80.5573C199.508 86.8258 196.148 92.6144 191.758 97.5925C187.368 102.571 182.034 106.641 176.06 109.57Z" fill="black"/>
</svg>
